<?xml version="1.0" encoding="utf-8" standalone="no"?>
<!DOCTYPE svg PUBLIC "-//W3C//DTD SVG 1.1//EN"
  "http://www.w3.org/Graphics/SVG/1.1/DTD/svg11.dtd">
<!-- Created with matplotlib (https://matplotlib.org/) -->
<svg height="443.434687pt" version="1.1" viewBox="0 0 803.79185 443.434687" width="803.79185pt" xmlns="http://www.w3.org/2000/svg" xmlns:xlink="http://www.w3.org/1999/xlink">
 <metadata>
  <rdf:RDF xmlns:cc="http://creativecommons.org/ns#" xmlns:dc="http://purl.org/dc/elements/1.1/" xmlns:rdf="http://www.w3.org/1999/02/22-rdf-syntax-ns#">
   <cc:Work>
    <dc:type rdf:resource="http://purl.org/dc/dcmitype/StillImage"/>
    <dc:date>2021-07-25T17:16:46.527651</dc:date>
    <dc:format>image/svg+xml</dc:format>
    <dc:creator>
     <cc:Agent>
      <dc:title>Matplotlib v3.3.4, https://matplotlib.org/</dc:title>
     </cc:Agent>
    </dc:creator>
   </cc:Work>
  </rdf:RDF>
 </metadata>
 <defs>
  <style type="text/css">*{stroke-linecap:butt;stroke-linejoin:round;}</style>
 </defs>
 <g id="figure_1">
  <g id="patch_1">
   <path d="M 0 443.434687 
L 803.79185 443.434687 
L 803.79185 0 
L 0 0 
z
" style="fill:#ffffff;"/>
  </g>
  <g id="axes_1">
   <g id="patch_2">
    <path d="M 43.78125 405.878437 
L 713.38125 405.878437 
L 713.38125 17.798437 
L 43.78125 17.798437 
z
" style="fill:#ffffff;"/>
   </g>
   <g id="matplotlib.axis_1">
    <g id="xtick_1">
     <g id="text_1">
      <!-- 0 -->
      <g transform="translate(40.6 420.476875)scale(0.1 -0.1)">
       <defs>
        <path d="M 31.78125 66.40625 
Q 24.171875 66.40625 20.328125 58.90625 
Q 16.5 51.421875 16.5 36.375 
Q 16.5 21.390625 20.328125 13.890625 
Q 24.171875 6.390625 31.78125 6.390625 
Q 39.453125 6.390625 43.28125 13.890625 
Q 47.125 21.390625 47.125 36.375 
Q 47.125 51.421875 43.28125 58.90625 
Q 39.453125 66.40625 31.78125 66.40625 
z
M 31.78125 74.21875 
Q 44.046875 74.21875 50.515625 64.515625 
Q 56.984375 54.828125 56.984375 36.375 
Q 56.984375 17.96875 50.515625 8.265625 
Q 44.046875 -1.421875 31.78125 -1.421875 
Q 19.53125 -1.421875 13.0625 8.265625 
Q 6.59375 17.96875 6.59375 36.375 
Q 6.59375 54.828125 13.0625 64.515625 
Q 19.53125 74.21875 31.78125 74.21875 
z
" id="DejaVuSans-48"/>
       </defs>
       <use xlink:href="#DejaVuSans-48"/>
      </g>
     </g>
    </g>
    <g id="xtick_2">
     <g id="text_2">
      <!-- 100 -->
      <g transform="translate(101.1975 420.476875)scale(0.1 -0.1)">
       <defs>
        <path d="M 12.40625 8.296875 
L 28.515625 8.296875 
L 28.515625 63.921875 
L 10.984375 60.40625 
L 10.984375 69.390625 
L 28.421875 72.90625 
L 38.28125 72.90625 
L 38.28125 8.296875 
L 54.390625 8.296875 
L 54.390625 0 
L 12.40625 0 
z
" id="DejaVuSans-49"/>
       </defs>
       <use xlink:href="#DejaVuSans-49"/>
       <use x="63.623047" xlink:href="#DejaVuSans-48"/>
       <use x="127.246094" xlink:href="#DejaVuSans-48"/>
      </g>
     </g>
    </g>
    <g id="xtick_3">
     <g id="text_3">
      <!-- 200 -->
      <g transform="translate(168.1575 420.476875)scale(0.1 -0.1)">
       <defs>
        <path d="M 19.1875 8.296875 
L 53.609375 8.296875 
L 53.609375 0 
L 7.328125 0 
L 7.328125 8.296875 
Q 12.9375 14.109375 22.625 23.890625 
Q 32.328125 33.6875 34.8125 36.53125 
Q 39.546875 41.84375 41.421875 45.53125 
Q 43.3125 49.21875 43.3125 52.78125 
Q 43.3125 58.59375 39.234375 62.25 
Q 35.15625 65.921875 28.609375 65.921875 
Q 23.96875 65.921875 18.8125 64.3125 
Q 13.671875 62.703125 7.8125 59.421875 
L 7.8125 69.390625 
Q 13.765625 71.78125 18.9375 73 
Q 24.125 74.21875 28.421875 74.21875 
Q 39.75 74.21875 46.484375 68.546875 
Q 53.21875 62.890625 53.21875 53.421875 
Q 53.21875 48.921875 51.53125 44.890625 
Q 49.859375 40.875 45.40625 35.40625 
Q 44.1875 33.984375 37.640625 27.21875 
Q 31.109375 20.453125 19.1875 8.296875 
z
" id="DejaVuSans-50"/>
       </defs>
       <use xlink:href="#DejaVuSans-50"/>
       <use x="63.623047" xlink:href="#DejaVuSans-48"/>
       <use x="127.246094" xlink:href="#DejaVuSans-48"/>
      </g>
     </g>
    </g>
    <g id="xtick_4">
     <g id="text_4">
      <!-- 300 -->
      <g transform="translate(235.1175 420.476875)scale(0.1 -0.1)">
       <defs>
        <path d="M 40.578125 39.3125 
Q 47.65625 37.796875 51.625 33 
Q 55.609375 28.21875 55.609375 21.1875 
Q 55.609375 10.40625 48.1875 4.484375 
Q 40.765625 -1.421875 27.09375 -1.421875 
Q 22.515625 -1.421875 17.65625 -0.515625 
Q 12.796875 0.390625 7.625 2.203125 
L 7.625 11.71875 
Q 11.71875 9.328125 16.59375 8.109375 
Q 21.484375 6.890625 26.8125 6.890625 
Q 36.078125 6.890625 40.9375 10.546875 
Q 45.796875 14.203125 45.796875 21.1875 
Q 45.796875 27.640625 41.28125 31.265625 
Q 36.765625 34.90625 28.71875 34.90625 
L 20.21875 34.90625 
L 20.21875 43.015625 
L 29.109375 43.015625 
Q 36.375 43.015625 40.234375 45.921875 
Q 44.09375 48.828125 44.09375 54.296875 
Q 44.09375 59.90625 40.109375 62.90625 
Q 36.140625 65.921875 28.71875 65.921875 
Q 24.65625 65.921875 20.015625 65.03125 
Q 15.375 64.15625 9.8125 62.3125 
L 9.8125 71.09375 
Q 15.4375 72.65625 20.34375 73.4375 
Q 25.25 74.21875 29.59375 74.21875 
Q 40.828125 74.21875 47.359375 69.109375 
Q 53.90625 64.015625 53.90625 55.328125 
Q 53.90625 49.265625 50.4375 45.09375 
Q 46.96875 40.921875 40.578125 39.3125 
z
" id="DejaVuSans-51"/>
       </defs>
       <use xlink:href="#DejaVuSans-51"/>
       <use x="63.623047" xlink:href="#DejaVuSans-48"/>
       <use x="127.246094" xlink:href="#DejaVuSans-48"/>
      </g>
     </g>
    </g>
    <g id="xtick_5">
     <g id="text_5">
      <!-- 400 -->
      <g transform="translate(302.0775 420.476875)scale(0.1 -0.1)">
       <defs>
        <path d="M 37.796875 64.3125 
L 12.890625 25.390625 
L 37.796875 25.390625 
z
M 35.203125 72.90625 
L 47.609375 72.90625 
L 47.609375 25.390625 
L 58.015625 25.390625 
L 58.015625 17.1875 
L 47.609375 17.1875 
L 47.609375 0 
L 37.796875 0 
L 37.796875 17.1875 
L 4.890625 17.1875 
L 4.890625 26.703125 
z
" id="DejaVuSans-52"/>
       </defs>
       <use xlink:href="#DejaVuSans-52"/>
       <use x="63.623047" xlink:href="#DejaVuSans-48"/>
       <use x="127.246094" xlink:href="#DejaVuSans-48"/>
      </g>
     </g>
    </g>
    <g id="xtick_6">
     <g id="text_6">
      <!-- 500 -->
      <g transform="translate(369.0375 420.476875)scale(0.1 -0.1)">
       <defs>
        <path d="M 10.796875 72.90625 
L 49.515625 72.90625 
L 49.515625 64.59375 
L 19.828125 64.59375 
L 19.828125 46.734375 
Q 21.96875 47.46875 24.109375 47.828125 
Q 26.265625 48.1875 28.421875 48.1875 
Q 40.625 48.1875 47.75 41.5 
Q 54.890625 34.8125 54.890625 23.390625 
Q 54.890625 11.625 47.5625 5.09375 
Q 40.234375 -1.421875 26.90625 -1.421875 
Q 22.3125 -1.421875 17.546875 -0.640625 
Q 12.796875 0.140625 7.71875 1.703125 
L 7.71875 11.625 
Q 12.109375 9.234375 16.796875 8.0625 
Q 21.484375 6.890625 26.703125 6.890625 
Q 35.15625 6.890625 40.078125 11.328125 
Q 45.015625 15.765625 45.015625 23.390625 
Q 45.015625 31 40.078125 35.4375 
Q 35.15625 39.890625 26.703125 39.890625 
Q 22.75 39.890625 18.8125 39.015625 
Q 14.890625 38.140625 10.796875 36.28125 
z
" id="DejaVuSans-53"/>
       </defs>
       <use xlink:href="#DejaVuSans-53"/>
       <use x="63.623047" xlink:href="#DejaVuSans-48"/>
       <use x="127.246094" xlink:href="#DejaVuSans-48"/>
      </g>
     </g>
    </g>
    <g id="xtick_7">
     <g id="text_7">
      <!-- 600 -->
      <g transform="translate(435.9975 420.476875)scale(0.1 -0.1)">
       <defs>
        <path d="M 33.015625 40.375 
Q 26.375 40.375 22.484375 35.828125 
Q 18.609375 31.296875 18.609375 23.390625 
Q 18.609375 15.53125 22.484375 10.953125 
Q 26.375 6.390625 33.015625 6.390625 
Q 39.65625 6.390625 43.53125 10.953125 
Q 47.40625 15.53125 47.40625 23.390625 
Q 47.40625 31.296875 43.53125 35.828125 
Q 39.65625 40.375 33.015625 40.375 
z
M 52.59375 71.296875 
L 52.59375 62.3125 
Q 48.875 64.0625 45.09375 64.984375 
Q 41.3125 65.921875 37.59375 65.921875 
Q 27.828125 65.921875 22.671875 59.328125 
Q 17.53125 52.734375 16.796875 39.40625 
Q 19.671875 43.65625 24.015625 45.921875 
Q 28.375 48.1875 33.59375 48.1875 
Q 44.578125 48.1875 50.953125 41.515625 
Q 57.328125 34.859375 57.328125 23.390625 
Q 57.328125 12.15625 50.6875 5.359375 
Q 44.046875 -1.421875 33.015625 -1.421875 
Q 20.359375 -1.421875 13.671875 8.265625 
Q 6.984375 17.96875 6.984375 36.375 
Q 6.984375 53.65625 15.1875 63.9375 
Q 23.390625 74.21875 37.203125 74.21875 
Q 40.921875 74.21875 44.703125 73.484375 
Q 48.484375 72.75 52.59375 71.296875 
z
" id="DejaVuSans-54"/>
       </defs>
       <use xlink:href="#DejaVuSans-54"/>
       <use x="63.623047" xlink:href="#DejaVuSans-48"/>
       <use x="127.246094" xlink:href="#DejaVuSans-48"/>
      </g>
     </g>
    </g>
    <g id="xtick_8">
     <g id="text_8">
      <!-- 700 -->
      <g transform="translate(502.9575 420.476875)scale(0.1 -0.1)">
       <defs>
        <path d="M 8.203125 72.90625 
L 55.078125 72.90625 
L 55.078125 68.703125 
L 28.609375 0 
L 18.3125 0 
L 43.21875 64.59375 
L 8.203125 64.59375 
z
" id="DejaVuSans-55"/>
       </defs>
       <use xlink:href="#DejaVuSans-55"/>
       <use x="63.623047" xlink:href="#DejaVuSans-48"/>
       <use x="127.246094" xlink:href="#DejaVuSans-48"/>
      </g>
     </g>
    </g>
    <g id="xtick_9">
     <g id="text_9">
      <!-- 800 -->
      <g transform="translate(569.9175 420.476875)scale(0.1 -0.1)">
       <defs>
        <path d="M 31.78125 34.625 
Q 24.75 34.625 20.71875 30.859375 
Q 16.703125 27.09375 16.703125 20.515625 
Q 16.703125 13.921875 20.71875 10.15625 
Q 24.75 6.390625 31.78125 6.390625 
Q 38.8125 6.390625 42.859375 10.171875 
Q 46.921875 13.96875 46.921875 20.515625 
Q 46.921875 27.09375 42.890625 30.859375 
Q 38.875 34.625 31.78125 34.625 
z
M 21.921875 38.8125 
Q 15.578125 40.375 12.03125 44.71875 
Q 8.5 49.078125 8.5 55.328125 
Q 8.5 64.0625 14.71875 69.140625 
Q 20.953125 74.21875 31.78125 74.21875 
Q 42.671875 74.21875 48.875 69.140625 
Q 55.078125 64.0625 55.078125 55.328125 
Q 55.078125 49.078125 51.53125 44.71875 
Q 48 40.375 41.703125 38.8125 
Q 48.828125 37.15625 52.796875 32.3125 
Q 56.78125 27.484375 56.78125 20.515625 
Q 56.78125 9.90625 50.3125 4.234375 
Q 43.84375 -1.421875 31.78125 -1.421875 
Q 19.734375 -1.421875 13.25 4.234375 
Q 6.78125 9.90625 6.78125 20.515625 
Q 6.78125 27.484375 10.78125 32.3125 
Q 14.796875 37.15625 21.921875 38.8125 
z
M 18.3125 54.390625 
Q 18.3125 48.734375 21.84375 45.5625 
Q 25.390625 42.390625 31.78125 42.390625 
Q 38.140625 42.390625 41.71875 45.5625 
Q 45.3125 48.734375 45.3125 54.390625 
Q 45.3125 60.0625 41.71875 63.234375 
Q 38.140625 66.40625 31.78125 66.40625 
Q 25.390625 66.40625 21.84375 63.234375 
Q 18.3125 60.0625 18.3125 54.390625 
z
" id="DejaVuSans-56"/>
       </defs>
       <use xlink:href="#DejaVuSans-56"/>
       <use x="63.623047" xlink:href="#DejaVuSans-48"/>
       <use x="127.246094" xlink:href="#DejaVuSans-48"/>
      </g>
     </g>
    </g>
    <g id="xtick_10">
     <g id="text_10">
      <!-- 900 -->
      <g transform="translate(636.8775 420.476875)scale(0.1 -0.1)">
       <defs>
        <path d="M 10.984375 1.515625 
L 10.984375 10.5 
Q 14.703125 8.734375 18.5 7.8125 
Q 22.3125 6.890625 25.984375 6.890625 
Q 35.75 6.890625 40.890625 13.453125 
Q 46.046875 20.015625 46.78125 33.40625 
Q 43.953125 29.203125 39.59375 26.953125 
Q 35.25 24.703125 29.984375 24.703125 
Q 19.046875 24.703125 12.671875 31.3125 
Q 6.296875 37.9375 6.296875 49.421875 
Q 6.296875 60.640625 12.9375 67.421875 
Q 19.578125 74.21875 30.609375 74.21875 
Q 43.265625 74.21875 49.921875 64.515625 
Q 56.59375 54.828125 56.59375 36.375 
Q 56.59375 19.140625 48.40625 8.859375 
Q 40.234375 -1.421875 26.421875 -1.421875 
Q 22.703125 -1.421875 18.890625 -0.6875 
Q 15.09375 0.046875 10.984375 1.515625 
z
M 30.609375 32.421875 
Q 37.25 32.421875 41.125 36.953125 
Q 45.015625 41.5 45.015625 49.421875 
Q 45.015625 57.28125 41.125 61.84375 
Q 37.25 66.40625 30.609375 66.40625 
Q 23.96875 66.40625 20.09375 61.84375 
Q 16.21875 57.28125 16.21875 49.421875 
Q 16.21875 41.5 20.09375 36.953125 
Q 23.96875 32.421875 30.609375 32.421875 
z
" id="DejaVuSans-57"/>
       </defs>
       <use xlink:href="#DejaVuSans-57"/>
       <use x="63.623047" xlink:href="#DejaVuSans-48"/>
       <use x="127.246094" xlink:href="#DejaVuSans-48"/>
      </g>
     </g>
    </g>
    <g id="text_11">
     <!-- $t$ -->
     <g transform="translate(376.58125 434.155)scale(0.1 -0.1)">
      <defs>
       <path d="M 42.28125 54.6875 
L 40.921875 47.703125 
L 23 47.703125 
L 17.1875 18.015625 
Q 16.890625 16.359375 16.75 15.234375 
Q 16.609375 14.109375 16.609375 13.484375 
Q 16.609375 10.359375 18.484375 8.9375 
Q 20.359375 7.515625 24.515625 7.515625 
L 33.59375 7.515625 
L 32.078125 0 
L 23.484375 0 
Q 15.484375 0 11.546875 3.125 
Q 7.625 6.25 7.625 12.59375 
Q 7.625 13.71875 7.765625 15.0625 
Q 7.90625 16.40625 8.203125 18.015625 
L 14.015625 47.703125 
L 6.390625 47.703125 
L 7.8125 54.6875 
L 15.28125 54.6875 
L 18.3125 70.21875 
L 27.296875 70.21875 
L 24.3125 54.6875 
z
" id="DejaVuSans-Oblique-116"/>
      </defs>
      <use transform="translate(0 0.78125)" xlink:href="#DejaVuSans-Oblique-116"/>
     </g>
    </g>
   </g>
   <g id="matplotlib.axis_2">
    <g id="ytick_1">
     <g id="text_12">
      <!-- 0.0 -->
      <g transform="translate(20.878125 392.037656)scale(0.1 -0.1)">
       <defs>
        <path d="M 10.6875 12.40625 
L 21 12.40625 
L 21 0 
L 10.6875 0 
z
" id="DejaVuSans-46"/>
       </defs>
       <use xlink:href="#DejaVuSans-48"/>
       <use x="63.623047" xlink:href="#DejaVuSans-46"/>
       <use x="95.410156" xlink:href="#DejaVuSans-48"/>
      </g>
     </g>
    </g>
    <g id="ytick_2">
     <g id="text_13">
      <!-- 0.2 -->
      <g transform="translate(20.878125 320.977514)scale(0.1 -0.1)">
       <use xlink:href="#DejaVuSans-48"/>
       <use x="63.623047" xlink:href="#DejaVuSans-46"/>
       <use x="95.410156" xlink:href="#DejaVuSans-50"/>
      </g>
     </g>
    </g>
    <g id="ytick_3">
     <g id="text_14">
      <!-- 0.4 -->
      <g transform="translate(20.878125 249.917371)scale(0.1 -0.1)">
       <use xlink:href="#DejaVuSans-48"/>
       <use x="63.623047" xlink:href="#DejaVuSans-46"/>
       <use x="95.410156" xlink:href="#DejaVuSans-52"/>
      </g>
     </g>
    </g>
    <g id="ytick_4">
     <g id="text_15">
      <!-- 0.6 -->
      <g transform="translate(20.878125 178.857228)scale(0.1 -0.1)">
       <use xlink:href="#DejaVuSans-48"/>
       <use x="63.623047" xlink:href="#DejaVuSans-46"/>
       <use x="95.410156" xlink:href="#DejaVuSans-54"/>
      </g>
     </g>
    </g>
    <g id="ytick_5">
     <g id="text_16">
      <!-- 0.8 -->
      <g transform="translate(20.878125 107.797086)scale(0.1 -0.1)">
       <use xlink:href="#DejaVuSans-48"/>
       <use x="63.623047" xlink:href="#DejaVuSans-46"/>
       <use x="95.410156" xlink:href="#DejaVuSans-56"/>
      </g>
     </g>
    </g>
    <g id="ytick_6">
     <g id="text_17">
      <!-- 1.0 -->
      <g transform="translate(20.878125 36.736943)scale(0.1 -0.1)">
       <use xlink:href="#DejaVuSans-49"/>
       <use x="63.623047" xlink:href="#DejaVuSans-46"/>
       <use x="95.410156" xlink:href="#DejaVuSans-48"/>
      </g>
     </g>
    </g>
    <g id="text_18">
     <!-- $S_t$ -->
     <g transform="translate(14.798438 216.538437)rotate(-90)scale(0.1 -0.1)">
      <defs>
       <path d="M 60.296875 70.515625 
L 58.40625 60.890625 
Q 53.46875 63.53125 48.609375 64.875 
Q 43.75 66.21875 39.203125 66.21875 
Q 30.375 66.21875 25.140625 62.359375 
Q 19.921875 58.5 19.921875 52.09375 
Q 19.921875 48.578125 21.84375 46.703125 
Q 23.78125 44.828125 31.78125 42.671875 
L 37.703125 41.21875 
Q 47.703125 38.625 51.609375 34.640625 
Q 55.515625 30.671875 55.515625 23.484375 
Q 55.515625 12.453125 46.84375 5.515625 
Q 38.1875 -1.421875 24.03125 -1.421875 
Q 18.21875 -1.421875 12.359375 -0.265625 
Q 6.5 0.875 0.59375 3.21875 
L 2.59375 13.375 
Q 8.015625 10.015625 13.453125 8.296875 
Q 18.890625 6.59375 24.3125 6.59375 
Q 33.546875 6.59375 39.109375 10.6875 
Q 44.671875 14.796875 44.671875 21.390625 
Q 44.671875 25.78125 42.453125 28.046875 
Q 40.234375 30.328125 32.90625 32.171875 
L 27 33.6875 
Q 16.890625 36.328125 13.203125 39.765625 
Q 9.515625 43.21875 9.515625 49.421875 
Q 9.515625 60.296875 17.890625 67.25 
Q 26.265625 74.21875 39.703125 74.21875 
Q 44.921875 74.21875 50.046875 73.28125 
Q 55.171875 72.359375 60.296875 70.515625 
z
" id="DejaVuSans-Oblique-83"/>
      </defs>
      <use transform="translate(0 0.78125)" xlink:href="#DejaVuSans-Oblique-83"/>
      <use transform="translate(63.476562 -15.625)scale(0.7)" xlink:href="#DejaVuSans-Oblique-116"/>
     </g>
    </g>
    <g id="text_19">
     <!-- 1e40 -->
     <g transform="translate(43.78125 14.798437)scale(0.1 -0.1)">
      <defs>
       <path d="M 56.203125 29.59375 
L 56.203125 25.203125 
L 14.890625 25.203125 
Q 15.484375 15.921875 20.484375 11.0625 
Q 25.484375 6.203125 34.421875 6.203125 
Q 39.59375 6.203125 44.453125 7.46875 
Q 49.3125 8.734375 54.109375 11.28125 
L 54.109375 2.78125 
Q 49.265625 0.734375 44.1875 -0.34375 
Q 39.109375 -1.421875 33.890625 -1.421875 
Q 20.796875 -1.421875 13.15625 6.1875 
Q 5.515625 13.8125 5.515625 26.8125 
Q 5.515625 40.234375 12.765625 48.109375 
Q 20.015625 56 32.328125 56 
Q 43.359375 56 49.78125 48.890625 
Q 56.203125 41.796875 56.203125 29.59375 
z
M 47.21875 32.234375 
Q 47.125 39.59375 43.09375 43.984375 
Q 39.0625 48.390625 32.421875 48.390625 
Q 24.90625 48.390625 20.390625 44.140625 
Q 15.875 39.890625 15.1875 32.171875 
z
" id="DejaVuSans-101"/>
      </defs>
      <use xlink:href="#DejaVuSans-49"/>
      <use x="63.623047" xlink:href="#DejaVuSans-101"/>
      <use x="125.146484" xlink:href="#DejaVuSans-52"/>
      <use x="188.769531" xlink:href="#DejaVuSans-48"/>
     </g>
    </g>
   </g>
   <g id="line2d_1">
    <path clip-path="url(#p2c72a5a64b)" d="M 43.78125 388.238437 
L 671.922807 388.129565 
L 672.067734 388.120112 
L 672.330071 388.133201 
L 677.45757 388.024199 
L 677.569476 388.001171 
L 677.576814 388.005285 
L 677.718073 388.046131 
L 677.851993 388.048594 
L 678.022604 388.041099 
L 678.15469 388.058699 
L 678.156524 388.060788 
L 678.169366 388.052018 
L 678.290445 388.0625 
L 678.543609 388.064412 
L 678.771091 388.007753 
L 678.890335 388.015679 
L 678.892169 388.012745 
L 679.027924 388.009858 
L 680.04792 387.986229 
L 680.163495 387.956383 
L 680.180006 387.967312 
L 680.312092 387.965637 
L 680.313927 387.964018 
L 680.480868 387.906864 
L 680.482703 387.909375 
L 680.673494 387.922094 
L 680.838601 387.883164 
L 680.697342 387.949371 
L 680.845939 387.889749 
L 680.948672 387.919561 
L 680.963349 387.892019 
L 681.565073 387.925329 
L 681.680648 387.902744 
L 682.062229 387.858647 
L 682.13561 387.827921 
L 682.174135 387.86827 
L 682.339243 387.861487 
L 682.341077 387.854173 
L 682.392444 387.836171 
L 682.449314 387.89213 
L 682.54471 387.90092 
L 682.564889 387.869854 
L 682.748342 387.822855 
L 682.829061 387.793784 
L 682.786867 387.762833 
L 682.841903 387.762558 
L 683.113413 387.754424 
L 683.252836 387.727971 
L 684.256322 387.11217 
L 684.296682 387.042076 
L 684.270998 387.133576 
L 684.368228 387.07695 
L 684.375566 387.090671 
L 684.43794 386.959556 
L 684.454451 386.969273 
L 684.566357 386.827736 
L 684.582868 386.85137 
L 684.584702 386.857575 
L 684.663587 386.754912 
L 684.665421 386.759047 
L 684.718622 386.654003 
L 684.683766 386.775546 
L 684.779162 386.73736 
L 684.878226 386.785091 
L 684.825025 386.678611 
L 684.894737 386.762518 
L 684.905744 386.769395 
L 685.019485 386.525565 
L 685.024988 386.534741 
L 685.048837 386.354332 
L 685.087362 386.382742 
L 685.188261 386.338833 
L 685.140563 386.523596 
L 685.197434 386.397393 
L 685.230455 386.419658 
L 685.2488 386.327213 
L 685.294663 386.347828 
L 685.4029 386.285633 
L 685.360706 386.488292 
L 685.408404 386.336161 
L 685.44326 386.438833 
L 685.489123 386.195142 
L 685.505634 386.237246 
L 685.672576 385.642561 
L 685.67441 385.646212 
L 685.75146 385.825037 
L 685.685417 385.586068 
L 685.782647 385.617504 
L 685.806496 385.389074 
L 685.793654 385.618268 
L 685.900057 385.459506 
L 685.956927 385.53422 
L 685.980776 385.300106 
L 685.999121 385.332744 
L 686.00279 385.257493 
L 686.089013 385.73784 
L 686.090848 385.703462 
L 686.200919 385.786929 
L 686.136711 385.562109 
L 686.204588 385.767078 
L 686.298149 385.680801 
L 686.283473 385.843156 
L 686.325667 385.766089 
L 686.441242 385.961994 
L 686.373364 385.700186 
L 686.446746 385.913853 
L 686.48894 385.745691 
L 686.540306 386.063439 
L 686.553148 386.012331 
L 686.661385 386.207953 
L 686.624695 385.978616 
L 686.668723 386.179982 
L 686.773291 386.075969 
L 686.75678 386.258096 
L 686.786133 386.125491 
L 686.789802 386.162171 
L 686.855845 385.98347 
L 686.898039 386.150409 
L 686.921888 386.150894 
L 686.964082 386.265798 
L 686.982427 386.192153 
L 687.092499 386.270918 
L 687.064981 386.064596 
L 687.096168 386.266468 
L 687.109009 386.289384 
L 687.129189 386.176189 
L 687.20257 386.232532 
L 687.252102 386.330362 
L 687.206239 386.219006 
L 687.307138 386.222709 
L 687.308973 386.191136 
L 687.340159 386.364832 
L 687.411706 386.313825 
L 687.439224 386.196314 
L 687.523612 386.331999 
L 687.855661 385.78658 
L 687.885014 385.816095 
L 687.954726 385.968296 
L 687.97674 385.746885 
L 687.993251 385.782407 
L 688.119833 385.420283 
L 688.022603 385.887091 
L 688.136344 385.484392 
L 688.209725 385.796202 
L 688.141847 385.4662 
L 688.273933 385.718403 
L 688.338141 385.462652 
L 688.38217 385.745852 
L 688.384005 385.737465 
L 688.404184 385.817345 
L 688.451882 385.52726 
L 688.495911 385.759309 
L 688.514256 385.781263 
L 688.572961 385.422844 
L 688.697708 385.079414 
L 688.705047 385.045922 
L 688.769255 385.280025 
L 688.789435 385.250863 
L 688.796773 385.404724 
L 688.873823 385.022087 
L 688.894003 385.112723 
L 688.895837 385.105336 
L 688.917851 385.34628 
L 688.949038 385.319611 
L 688.993067 385.440845 
L 689.053606 385.188198 
L 689.057275 385.238723 
L 689.068283 385.126949 
L 689.123318 385.580644 
L 689.163678 385.414897 
L 689.196699 385.174551 
L 689.235224 385.476635 
L 689.288426 385.417453 
L 689.293929 385.467015 
L 689.358138 385.223007 
L 689.400332 385.430511 
L 689.457202 385.343413 
L 689.495727 385.521874 
L 689.503065 385.452946 
L 689.510403 385.493053 
L 689.589288 384.960813 
L 689.63882 384.819561 
L 689.671841 385.109373 
L 689.703028 384.903166 
L 689.717705 384.963729 
L 689.743388 384.603741 
L 689.824107 384.295008 
L 689.750726 384.660752 
L 689.855294 384.50063 
L 689.958027 384.934135 
L 689.899323 384.214879 
L 689.974538 384.793028 
L 690.113962 384.376047 
L 689.980042 384.795707 
L 690.123135 384.470211 
L 690.16166 384.792082 
L 690.23871 384.531677 
L 690.37263 384.857862 
L 690.262559 384.400056 
L 690.401983 384.655821 
L 690.539572 383.400382 
L 690.541407 383.411449 
L 690.585435 383.104496 
L 690.658816 383.69284 
L 690.746873 383.303964 
L 690.675327 383.776992 
L 690.772557 383.559168 
L 690.880794 383.77507 
L 690.847772 383.358983 
L 690.889966 383.752489 
L 690.908312 383.365469 
L 690.956009 383.95399 
L 690.957844 383.946217 
L 690.968851 384.082803 
L 691.031225 383.618286 
L 691.064246 383.8847 
L 691.088095 383.559271 
L 691.168814 384.120943 
L 691.28072 383.793779 
L 691.205505 384.142511 
L 691.291728 383.822792 
L 691.431152 384.766337 
L 691.443993 384.668035 
L 691.510036 384.309014 
L 691.455 384.75364 
L 691.555899 384.597338 
L 691.579748 384.415396 
L 691.61277 384.780185 
L 691.660467 384.620393 
L 691.728345 384.933236 
L 691.66964 384.538199 
L 691.777877 384.756169 
L 691.779711 384.758397 
L 691.796222 384.610832 
L 691.829244 384.505592 
L 691.873272 384.886447 
L 691.875107 384.90239 
L 691.919135 384.351811 
L 691.933812 384.453577 
L 691.966833 384.41065 
L 691.97784 384.643383 
L 692.025538 384.524285 
L 692.027372 384.56755 
L 692.124602 384.240166 
L 692.242012 384.733295 
L 692.139278 384.202055 
L 692.253019 384.468649 
L 692.30622 384.094504 
L 692.36309 384.467379 
L 692.374098 384.474546 
L 692.392443 384.152585 
L 692.434637 384.051166 
L 692.484169 384.602592 
L 692.489673 384.542667 
L 692.542874 384.650559 
L 692.581399 384.284802 
L 692.590572 384.342927 
L 692.603413 384.411949 
L 692.649276 384.005378 
L 692.663953 384.097857 
L 692.777693 383.870585 
L 692.680463 384.202481 
L 692.783197 383.88911 
L 692.847405 384.162707 
L 692.818053 383.871136 
L 692.896937 383.977204 
L 692.966649 383.779752 
L 692.920786 384.129134 
L 693.00334 384.045297 
L 693.007009 384.029359 
L 693.047369 384.224805 
L 693.087728 384.7646 
L 693.155606 384.194498 
L 693.15744 384.196913 
L 693.258339 383.497592 
L 693.280353 383.76692 
L 693.37208 383.875769 
L 693.304202 383.499972 
L 693.38859 383.749678 
L 693.493158 383.362721 
L 693.434453 383.892113 
L 693.520676 383.612896 
L 693.575712 383.7687 
L 693.627079 383.4704 
L 693.689452 383.220982 
L 693.709632 383.606757 
L 693.740819 383.395479 
L 693.764668 383.433811 
L 693.816035 383.014968 
L 693.819704 383.044138 
L 693.865567 382.728449 
L 693.898588 383.391699 
L 693.900423 383.389961 
L 693.902257 383.394772 
L 693.916934 383.182479 
L 693.95179 383.235968 
L 693.990315 383.092924 
L 694.050854 383.461066 
L 694.052689 383.439328 
L 694.076537 383.845167 
L 694.148084 383.181648 
L 694.164595 383.494822 
L 694.190278 383.090754 
L 694.283839 383.276919 
L 694.285673 383.269373 
L 694.315026 383.599503 
L 694.318695 383.551264 
L 694.410421 384.110889 
L 694.331536 383.522108 
L 694.441608 384.050009 
L 694.47096 384.428123 
L 694.527831 383.854055 
L 694.659917 383.054483 
L 694.544341 383.923334 
L 694.669089 383.117914 
L 694.740636 383.561982 
L 694.779161 383.068261 
L 694.845204 383.320585 
L 694.88006 382.794015 
L 694.951606 382.088464 
L 694.91675 382.826601 
L 695.004807 382.376115 
L 695.017649 382.726063 
L 695.100203 382.183028 
L 695.11121 382.342807 
L 695.180922 381.836464 
L 695.217612 382.652099 
L 695.325849 382.948778 
L 695.289159 382.068617 
L 695.333187 382.905542 
L 695.452432 382.402727 
L 695.336856 382.909365 
L 695.456101 382.498696 
L 695.45977 382.4219 
L 695.465273 382.613124 
L 695.470777 382.606872 
L 695.47628 382.725807 
L 695.557 382.285812 
L 695.560669 382.321087 
L 695.621208 382.184612 
L 695.635884 382.880085 
L 695.65056 382.680277 
L 695.731279 383.305183 
L 695.766135 383.116783 
L 695.791819 383.34997 
L 695.828509 382.563767 
L 695.861531 382.833016 
L 696.002789 381.825056 
L 695.894552 382.964503 
L 696.008293 381.983041 
L 696.074336 382.518531 
L 696.0193 381.869952 
L 696.131206 382.478394 
L 696.219263 382.126091 
L 696.188076 382.912776 
L 696.246781 382.204365 
L 696.408219 383.147683 
L 696.417392 382.968615 
L 696.488939 383.391848 
L 696.516456 383.198818 
L 696.520125 383.180272 
L 696.523795 383.281683 
L 696.560485 383.776714 
L 696.637535 383.490854 
L 696.683398 383.620404 
L 696.725592 383.331907 
L 696.729261 383.369118 
L 696.824657 383.147731 
L 696.756779 383.561768 
L 696.841167 383.276251 
L 696.843002 383.349062 
L 696.901707 382.677699 
L 696.942066 382.950982 
L 696.971419 382.530728 
L 697.055807 382.848207 
L 697.085159 383.399121 
L 697.187893 383.087901 
L 697.314475 382.469027 
L 697.230087 383.343805 
L 697.318144 382.503562 
L 697.349331 382.853767 
L 697.391525 382.348178 
L 697.428216 382.498927 
L 697.435554 382.402298 
L 697.483251 383.022173 
L 697.497928 382.923566 
L 697.587819 383.258707 
L 697.519942 382.749441 
L 697.611668 383.051436 
L 697.70156 383.457733 
L 697.683215 382.770198 
L 697.727243 383.244205 
L 697.804293 383.752673 
L 697.741919 383.19077 
L 697.850156 383.515702 
L 697.914365 383.665659 
L 697.967566 383.122474 
L 697.996919 383.37045 
L 698.051954 382.851737 
L 698.0703 382.933385 
L 698.162026 382.376062 
L 698.103321 383.06208 
L 698.189544 382.670181 
L 698.312457 383.287321 
L 698.195047 382.629804 
L 698.332637 383.220514 
L 698.389507 382.413837 
L 698.453715 382.534356 
L 698.45555 382.54275 
L 698.481233 382.185539 
L 698.499579 382.24872 
L 698.591305 381.796259 
L 698.539938 382.418253 
L 698.611485 382.077331 
L 698.778426 380.049615 
L 698.626161 382.115846 
L 698.780261 380.165602 
L 698.785765 380.410154 
L 698.86098 378.910593 
L 698.88116 379.358303 
L 698.927023 378.746958 
L 698.972886 379.973004 
L 698.983893 379.772646 
L 699.084792 380.828237 
L 699.101303 380.562364 
L 699.104972 380.427186 
L 699.117814 380.890124 
L 699.211374 380.620728 
L 699.260907 381.445366 
L 699.348964 381.36509 
L 699.493891 380.056377 
L 699.499395 380.122455 
L 699.512237 380.27363 
L 699.526913 379.59306 
L 699.592956 379.64945 
L 699.629646 379.828833 
L 699.714034 378.784078 
L 699.725042 378.600688 
L 699.761732 379.399265 
L 699.765401 379.259511 
L 699.767236 379.424893 
L 699.862631 378.497576 
L 699.8663 378.506785 
L 699.932343 377.555774 
L 699.880976 378.565489 
L 699.978206 378.265405 
L 699.991048 378.697117 
L 700.009393 377.961219 
L 700.086443 378.225807 
L 700.115796 377.687771 
L 700.176335 378.520319 
L 700.202018 377.901956 
L 700.222198 378.475847 
L 700.290076 377.248664 
L 700.293745 377.347215 
L 700.394643 376.909947 
L 700.328601 377.829 
L 700.401982 377.286717 
L 700.455183 378.047366 
L 700.50655 377.057429 
L 700.666153 374.537799 
L 700.512053 377.060928 
L 700.671657 374.542092 
L 700.702844 375.584907 
L 700.778059 373.76384 
L 700.811081 371.832563 
L 700.910145 372.26273 
L 700.959677 373.234193 
L 700.941332 372.064957 
L 701.023886 372.741262 
L 701.255036 366.804612 
L 701.275216 369.20992 
L 701.313741 370.51184 
L 701.37428 368.998575 
L 701.387122 369.350084 
L 701.388956 369.34091 
L 701.392625 369.835376 
L 701.425647 370.11019 
L 701.49169 368.390342 
L 701.493524 368.422749 
L 701.521042 367.048897 
L 701.530215 367.306746 
L 701.561402 365.843909 
L 701.627445 368.057834 
L 701.640286 367.42552 
L 701.7632 363.544149 
L 701.831077 363.982134 
L 701.847588 365.577278 
L 701.928307 362.982122 
L 701.942983 364.243183 
L 701.944818 364.491583 
L 702.016364 362.209012 
L 702.047551 363.358645 
L 702.049386 363.255081 
L 702.119098 364.824332 
L 702.131939 364.557827 
L 702.133774 364.882994 
L 702.2255 362.054705 
L 702.232838 362.852557 
L 702.24568 364.848974 
L 702.315392 362.243979 
L 702.339241 362.929898 
L 702.412622 358.898916 
L 702.463988 360.618587 
L 702.491506 362.219649 
L 702.546542 357.943219 
L 702.570391 359.945573 
L 702.601578 357.782828 
L 702.57406 360.296343 
L 702.693304 358.631863 
L 702.698808 358.986802 
L 702.733664 357.391394 
L 702.74834 357.719216 
L 702.808879 355.869593 
L 702.777692 358.053421 
L 702.854742 357.938608 
L 702.860246 358.624871 
L 702.904274 352.864838 
L 702.955641 355.1585 
L 702.957476 355.189509 
L 702.970317 353.866571 
L 703.091396 351.144283 
L 703.03636 354.736647 
L 703.093231 351.354515 
L 703.140928 353.813051 
L 703.186791 349.573732 
L 703.199633 350.794452 
L 703.254669 349.239194 
L 703.27118 351.360918 
L 703.313374 350.461674 
L 703.331719 350.561792 
L 703.346395 348.833898 
L 703.34823 348.844102 
L 703.395927 345.218095 
L 703.456467 349.184181 
L 703.46197 350.595668 
L 703.493157 345.568545 
L 703.5592 347.752686 
L 703.562869 348.02687 
L 703.577545 346.312476 
L 703.57938 346.491242 
L 703.658264 341.968472 
L 703.69312 344.6946 
L 703.702293 343.908263 
L 703.834379 350.852548 
L 703.838048 351.076347 
L 703.847221 349.574991 
L 703.854559 348.508156 
L 703.929774 353.377264 
L 703.931609 353.291891 
L 704.02517 354.510014 
L 703.968299 352.094853 
L 704.039846 353.086446 
L 704.045349 352.757035 
L 704.083874 356.794426 
L 704.111392 358.099039 
L 704.164594 355.895165 
L 704.193946 356.677529 
L 704.237975 355.983152 
L 704.280169 359.17538 
L 704.291176 358.687256 
L 704.335204 360.052686 
L 704.357219 357.952373 
L 704.401247 358.590819 
L 704.404916 358.090136 
L 704.496643 353.536801 
L 704.520491 354.900703 
L 704.522326 355.287771 
L 704.615887 351.933907 
L 704.628728 352.732006 
L 704.694771 348.268685 
L 704.70211 345.541743 
L 704.77916 349.476884 
L 704.803008 349.345594 
L 704.874555 346.540073 
L 704.832361 350.009494 
L 704.878224 346.618886 
L 704.980957 344.082874 
L 704.909411 348.530071 
L 704.991965 345.419894 
L 705.021317 342.072671 
L 705.083691 349.562773 
L 705.089194 349.273264 
L 705.182755 351.66532 
L 705.105705 348.7832 
L 705.199266 349.218824 
L 705.287323 345.085627 
L 705.212108 349.981725 
L 705.324014 346.750139 
L 705.37538 350.520562 
L 705.421244 345.236778 
L 705.432251 347.028698 
L 705.470776 344.735881 
L 705.531315 351.160296 
L 705.654228 348.979193 
L 705.54966 352.499498 
L 705.663401 349.747683 
L 705.689084 351.30072 
L 705.745955 346.63798 
L 705.777141 350.763544 
L 705.892717 345.389824 
L 705.911062 346.662461 
L 706.022968 349.124898 
L 705.951421 344.274158 
L 706.026637 348.333261 
L 706.140378 341.697084 
L 706.144047 342.498583 
L 706.188075 345.393219 
L 706.219262 342.043528 
L 706.307319 327.32534 
L 706.369693 329.016105 
L 706.463254 330.838956 
L 706.44124 324.020162 
L 706.479765 328.388791 
L 706.547642 317.782839 
L 706.610016 323.070521 
L 706.61552 325.568801 
L 706.657714 321.269753 
L 706.721922 323.93852 
L 706.786131 318.151511 
L 706.831994 323.692632 
L 706.921885 330.519351 
L 706.954907 325.825009 
L 706.987928 321.98151 
L 707.008108 326.427786 
L 707.068647 323.934969 
L 707.110842 324.318442 
L 707.131021 320.289586 
L 707.138359 319.139612 
L 707.206237 326.155302 
L 707.220913 325.40167 
L 707.224582 325.694243 
L 707.239258 320.122879 
L 707.241093 319.478286 
L 707.330985 326.402519 
L 707.332819 326.20409 
L 707.347495 324.913581 
L 707.42638 328.348088 
L 707.44656 325.664458 
L 707.545624 330.246555 
L 707.475912 323.515548 
L 707.562135 326.244748 
L 707.705228 315.504291 
L 707.747422 317.807333 
L 707.809796 311.736238 
L 707.81163 310.393489 
L 707.896019 320.040342 
L 707.916198 314.97009 
L 707.921702 314.092895 
L 707.940047 319.546945 
L 708.024435 315.486287 
L 708.029939 316.762447 
L 708.073968 309.182759 
L 708.119831 310.733736 
L 708.195046 308.015297 
L 708.134507 315.179179 
L 708.226233 312.460073 
L 708.259255 314.325434 
L 708.275765 307.742227 
L 708.310621 302.203805 
L 708.389506 305.429791 
L 708.426196 309.73678 
L 708.484901 302.257202 
L 708.490405 302.606085 
L 708.583966 295.012437 
L 708.547275 307.746454 
L 708.611484 296.673994 
L 708.613318 296.69979 
L 708.616987 296.051369 
L 708.618822 296.147679 
L 708.62616 292.020363 
L 708.70321 303.974926 
L 708.725224 298.924156 
L 708.791267 292.143122 
L 708.76008 300.685351 
L 708.838965 297.637112 
L 708.840799 299.460361 
L 708.928856 287.428994 
L 708.939864 288.440613 
L 709.018748 296.404932 
L 708.969216 283.439897 
L 709.046266 288.493386 
L 709.334287 228.551501 
L 709.075618 295.691249 
L 709.337956 233.939388 
L 709.345294 238.859777 
L 709.420509 225.029337 
L 709.444358 230.475936 
L 709.453531 223.461296 
L 709.495725 237.578824 
L 709.556264 228.137382 
L 709.561768 224.141402 
L 709.644321 239.415842 
L 709.646156 238.241283 
L 709.710364 251.669926 
L 709.7654 244.7353 
L 709.838781 219.746075 
L 709.886479 226.516158 
L 709.890148 228.089633 
L 709.981874 216.876713 
L 709.989212 220.708114 
L 710.091946 209.9172 
L 710.042413 232.41818 
L 710.106622 215.829787 
L 710.112125 218.491793 
L 710.19101 197.1383 
L 710.207521 205.682572 
L 710.297413 195.360152 
L 710.235039 208.411856 
L 710.315758 205.467883 
L 710.389139 210.557559 
L 710.409319 199.543952 
L 710.420326 200.287954 
L 710.501045 194.435327 
L 710.468023 211.84745 
L 710.524894 202.960954 
L 710.642303 217.023838 
L 710.59644 199.861583 
L 710.644138 216.531993 
L 710.761547 180.279125 
L 710.662483 219.285047 
L 710.778058 181.599301 
L 710.853274 200.671125 
L 710.891799 190.193606 
L 710.989029 182.508545 
L 710.956007 199.763801 
L 711.00187 190.935772 
L 711.036726 193.541905 
L 711.020216 183.410138 
L 711.077086 183.786233 
L 711.11928 170.853728 
L 711.097266 186.684654 
L 711.187157 181.983146 
L 711.194496 189.311062 
L 711.233021 164.921041 
L 711.297229 182.978613 
L 711.300898 185.374111 
L 711.308236 177.529816 
L 711.383452 151.597665 
L 711.324747 180.11557 
L 711.423811 162.667067 
L 711.539386 174.807865 
L 711.555897 166.281754 
L 711.60176 186.491378 
L 711.647623 180.882074 
L 711.722839 162.049876 
L 711.768702 171.619976 
L 711.831076 173.362177 
L 711.812731 157.814249 
L 711.845752 160.785706 
L 711.93014 130.288356 
L 711.862263 162.850407 
L 711.961327 144.597462 
L 712.038377 154.785827 
L 712.023701 139.218242 
L 712.069564 142.791523 
L 712.130104 100.745153 
L 712.190643 110.983257 
L 712.216326 121.367893 
L 712.260355 89.512428 
L 712.287873 89.737234 
L 712.297045 86.747978 
L 712.317225 106.196361 
L 712.401613 127.474289 
L 712.324563 104.677728 
L 712.423628 106.435968 
L 712.515354 63.88896 
L 712.541037 78.10308 
L 712.618087 97.254366 
L 712.577728 68.368549 
L 712.652943 80.48542 
L 712.774022 45.95708 
L 712.691468 91.450085 
L 712.775857 46.085134 
L 712.785029 40.998301 
L 712.893266 72.477067 
L 712.929957 66.419164 
L 712.973985 93.882012 
L 712.979489 91.483203 
L 713.023518 103.285466 
L 713.060208 74.054833 
L 713.085891 81.474803 
L 713.087726 81.681691 
L 713.08956 74.066591 
L 713.203301 35.438437 
L 713.210639 45.722084 
L 713.217977 36.090684 
L 713.256502 58.809349 
L 713.322545 98.446051 
L 713.372077 76.104343 
L 713.38125 73.600059 
L 713.377581 78.283765 
L 713.38125 73.600059 
" style="fill:none;stroke:#d53b3b;stroke-linecap:square;stroke-width:1.5;"/>
   </g>
   <g id="patch_3">
    <path d="M 43.78125 405.878437 
L 43.78125 17.798437 
" style="fill:none;stroke:#000000;stroke-linecap:square;stroke-linejoin:miter;stroke-width:0.8;"/>
   </g>
   <g id="patch_4">
    <path d="M 713.38125 405.878437 
L 713.38125 17.798437 
" style="fill:none;stroke:#000000;stroke-linecap:square;stroke-linejoin:miter;stroke-width:0.8;"/>
   </g>
   <g id="patch_5">
    <path d="M 43.78125 405.878437 
L 713.38125 405.878437 
" style="fill:none;stroke:#000000;stroke-linecap:square;stroke-linejoin:miter;stroke-width:0.8;"/>
   </g>
   <g id="patch_6">
    <path d="M 43.78125 17.798437 
L 713.38125 17.798437 
" style="fill:none;stroke:#000000;stroke-linecap:square;stroke-linejoin:miter;stroke-width:0.8;"/>
   </g>
   <g id="legend_1">
    <g id="patch_7">
     <path d="M 718.23925 33.551153 
L 795.20385 33.551153 
Q 796.59185 33.551153 796.59185 32.163153 
L 796.59185 22.656437 
Q 796.59185 21.268437 795.20385 21.268437 
L 718.23925 21.268437 
Q 716.85125 21.268437 716.85125 22.656437 
L 716.85125 32.163153 
Q 716.85125 33.551153 718.23925 33.551153 
z
" style="fill:#ffffff;opacity:0.8;stroke:#cccccc;stroke-linejoin:miter;"/>
    </g>
    <g id="line2d_2">
     <path d="M 719.62725 26.888753 
L 733.50725 26.888753 
" style="fill:none;stroke:#d53b3b;stroke-linecap:square;stroke-width:1.5;"/>
    </g>
    <g id="line2d_3"/>
    <g id="text_20">
     <!-- $p =$ 0.0 $\alpha =$ 1.0 -->
     <g transform="translate(739.05925 29.317753)scale(0.0694 -0.0694)">
      <defs>
       <path d="M 49.609375 33.6875 
Q 49.609375 40.875 46.484375 44.671875 
Q 43.359375 48.484375 37.5 48.484375 
Q 33.5 48.484375 29.859375 46.4375 
Q 26.21875 44.390625 23.390625 40.484375 
Q 20.609375 36.625 18.9375 31.15625 
Q 17.28125 25.6875 17.28125 20.3125 
Q 17.28125 13.484375 20.40625 9.796875 
Q 23.53125 6.109375 29.296875 6.109375 
Q 33.546875 6.109375 37.1875 8.109375 
Q 40.828125 10.109375 43.40625 13.921875 
Q 46.1875 17.921875 47.890625 23.34375 
Q 49.609375 28.765625 49.609375 33.6875 
z
M 21.78125 46.390625 
Q 25.390625 51.125 30.296875 53.5625 
Q 35.203125 56 41.21875 56 
Q 49.609375 56 54.25 50.5 
Q 58.890625 45.015625 58.890625 35.109375 
Q 58.890625 27 56 19.65625 
Q 53.125 12.3125 47.703125 6.5 
Q 44.09375 2.640625 39.546875 0.609375 
Q 35.015625 -1.421875 29.984375 -1.421875 
Q 24.171875 -1.421875 20.21875 1 
Q 16.265625 3.421875 14.3125 8.203125 
L 8.6875 -20.796875 
L -0.296875 -20.796875 
L 14.40625 54.6875 
L 23.390625 54.6875 
z
" id="DejaVuSans-Oblique-112"/>
       <path d="M 10.59375 45.40625 
L 73.1875 45.40625 
L 73.1875 37.203125 
L 10.59375 37.203125 
z
M 10.59375 25.484375 
L 73.1875 25.484375 
L 73.1875 17.1875 
L 10.59375 17.1875 
z
" id="DejaVuSans-61"/>
       <path id="DejaVuSans-32"/>
       <path d="M 40.921875 25.4375 
L 40.96875 36.71875 
Q 41.015625 48.25 32.328125 48.296875 
Q 25.828125 48.34375 21.78125 42.921875 
Q 16.703125 36.234375 14.984375 27.296875 
Q 12.890625 16.546875 15.53125 11.421875 
Q 18.265625 6.203125 24.171875 6.203125 
Q 30.71875 6.203125 36.234375 16.609375 
z
M 33.84375 55.90625 
Q 49.078125 56.15625 48.875 40.375 
Q 48.875 40.375 56.5 54.6875 
L 64.5 54.6875 
L 48.734375 25.046875 
L 48.578125 14.359375 
Q 48.578125 11.96875 49.90625 9.96875 
Q 51.421875 7.625 52.984375 7.625 
L 57.328125 7.625 
L 55.859375 0 
L 50.4375 0 
Q 45.84375 0 42.53125 4.109375 
Q 40.96875 6.15625 40.921875 10.453125 
Q 37.75 5.21875 32.28125 0.78125 
Q 29.6875 -1.265625 22.703125 -1.21875 
Q 11.28125 -1.125 7.125 6.203125 
Q 2.875 13.8125 5.515625 27.296875 
Q 8.34375 41.796875 15.765625 48.390625 
Q 24.125 55.765625 33.84375 55.90625 
z
" id="DejaVuSans-Oblique-945"/>
      </defs>
      <use transform="translate(0 0.78125)" xlink:href="#DejaVuSans-Oblique-112"/>
      <use transform="translate(82.958984 0.78125)" xlink:href="#DejaVuSans-61"/>
      <use transform="translate(186.230469 0.78125)" xlink:href="#DejaVuSans-32"/>
      <use transform="translate(218.017578 0.78125)" xlink:href="#DejaVuSans-48"/>
      <use transform="translate(281.640625 0.78125)" xlink:href="#DejaVuSans-46"/>
      <use transform="translate(313.427734 0.78125)" xlink:href="#DejaVuSans-48"/>
      <use transform="translate(377.050781 0.78125)" xlink:href="#DejaVuSans-32"/>
      <use transform="translate(408.837891 0.78125)" xlink:href="#DejaVuSans-Oblique-945"/>
      <use transform="translate(494.238281 0.78125)" xlink:href="#DejaVuSans-61"/>
      <use transform="translate(597.509766 0.78125)" xlink:href="#DejaVuSans-32"/>
      <use transform="translate(629.296875 0.78125)" xlink:href="#DejaVuSans-49"/>
      <use transform="translate(692.919922 0.78125)" xlink:href="#DejaVuSans-46"/>
      <use transform="translate(724.707031 0.78125)" xlink:href="#DejaVuSans-48"/>
     </g>
    </g>
   </g>
  </g>
 </g>
 <defs>
  <clipPath id="p2c72a5a64b">
   <rect height="388.08" width="669.6" x="43.78125" y="17.798437"/>
  </clipPath>
 </defs>
</svg>
