<?xml version="1.0" encoding="utf-8" standalone="no"?>
<!DOCTYPE svg PUBLIC "-//W3C//DTD SVG 1.1//EN"
  "http://www.w3.org/Graphics/SVG/1.1/DTD/svg11.dtd">
<!-- Created with matplotlib (https://matplotlib.org/) -->
<svg height="432.83625pt" version="1.1" viewBox="0 0 817.116225 432.83625" width="817.116225pt" xmlns="http://www.w3.org/2000/svg" xmlns:xlink="http://www.w3.org/1999/xlink">
 <metadata>
  <rdf:RDF xmlns:cc="http://creativecommons.org/ns#" xmlns:dc="http://purl.org/dc/elements/1.1/" xmlns:rdf="http://www.w3.org/1999/02/22-rdf-syntax-ns#">
   <cc:Work>
    <dc:type rdf:resource="http://purl.org/dc/dcmitype/StillImage"/>
    <dc:date>2021-07-25T00:47:31.479642</dc:date>
    <dc:format>image/svg+xml</dc:format>
    <dc:creator>
     <cc:Agent>
      <dc:title>Matplotlib v3.3.4, https://matplotlib.org/</dc:title>
     </cc:Agent>
    </dc:creator>
   </cc:Work>
  </rdf:RDF>
 </metadata>
 <defs>
  <style type="text/css">*{stroke-linecap:butt;stroke-linejoin:round;}</style>
 </defs>
 <g id="figure_1">
  <g id="patch_1">
   <path d="M 0 432.83625 
L 817.116225 432.83625 
L 817.116225 0 
L 0 0 
z
" style="fill:#ffffff;"/>
  </g>
  <g id="axes_1">
   <g id="patch_2">
    <path d="M 50.165625 395.28 
L 719.765625 395.28 
L 719.765625 7.2 
L 50.165625 7.2 
z
" style="fill:#ffffff;"/>
   </g>
   <g id="matplotlib.axis_1">
    <g id="xtick_1">
     <g id="text_1">
      <!-- 0.0 -->
      <g transform="translate(42.214063 409.878437)scale(0.1 -0.1)">
       <defs>
        <path d="M 31.78125 66.40625 
Q 24.171875 66.40625 20.328125 58.90625 
Q 16.5 51.421875 16.5 36.375 
Q 16.5 21.390625 20.328125 13.890625 
Q 24.171875 6.390625 31.78125 6.390625 
Q 39.453125 6.390625 43.28125 13.890625 
Q 47.125 21.390625 47.125 36.375 
Q 47.125 51.421875 43.28125 58.90625 
Q 39.453125 66.40625 31.78125 66.40625 
z
M 31.78125 74.21875 
Q 44.046875 74.21875 50.515625 64.515625 
Q 56.984375 54.828125 56.984375 36.375 
Q 56.984375 17.96875 50.515625 8.265625 
Q 44.046875 -1.421875 31.78125 -1.421875 
Q 19.53125 -1.421875 13.0625 8.265625 
Q 6.59375 17.96875 6.59375 36.375 
Q 6.59375 54.828125 13.0625 64.515625 
Q 19.53125 74.21875 31.78125 74.21875 
z
" id="DejaVuSans-48"/>
        <path d="M 10.6875 12.40625 
L 21 12.40625 
L 21 0 
L 10.6875 0 
z
" id="DejaVuSans-46"/>
       </defs>
       <use xlink:href="#DejaVuSans-48"/>
       <use x="63.623047" xlink:href="#DejaVuSans-46"/>
       <use x="95.410156" xlink:href="#DejaVuSans-48"/>
      </g>
     </g>
    </g>
    <g id="xtick_2">
     <g id="text_2">
      <!-- 0.1 -->
      <g transform="translate(109.174063 409.878437)scale(0.1 -0.1)">
       <defs>
        <path d="M 12.40625 8.296875 
L 28.515625 8.296875 
L 28.515625 63.921875 
L 10.984375 60.40625 
L 10.984375 69.390625 
L 28.421875 72.90625 
L 38.28125 72.90625 
L 38.28125 8.296875 
L 54.390625 8.296875 
L 54.390625 0 
L 12.40625 0 
z
" id="DejaVuSans-49"/>
       </defs>
       <use xlink:href="#DejaVuSans-48"/>
       <use x="63.623047" xlink:href="#DejaVuSans-46"/>
       <use x="95.410156" xlink:href="#DejaVuSans-49"/>
      </g>
     </g>
    </g>
    <g id="xtick_3">
     <g id="text_3">
      <!-- 0.2 -->
      <g transform="translate(176.134063 409.878437)scale(0.1 -0.1)">
       <defs>
        <path d="M 19.1875 8.296875 
L 53.609375 8.296875 
L 53.609375 0 
L 7.328125 0 
L 7.328125 8.296875 
Q 12.9375 14.109375 22.625 23.890625 
Q 32.328125 33.6875 34.8125 36.53125 
Q 39.546875 41.84375 41.421875 45.53125 
Q 43.3125 49.21875 43.3125 52.78125 
Q 43.3125 58.59375 39.234375 62.25 
Q 35.15625 65.921875 28.609375 65.921875 
Q 23.96875 65.921875 18.8125 64.3125 
Q 13.671875 62.703125 7.8125 59.421875 
L 7.8125 69.390625 
Q 13.765625 71.78125 18.9375 73 
Q 24.125 74.21875 28.421875 74.21875 
Q 39.75 74.21875 46.484375 68.546875 
Q 53.21875 62.890625 53.21875 53.421875 
Q 53.21875 48.921875 51.53125 44.890625 
Q 49.859375 40.875 45.40625 35.40625 
Q 44.1875 33.984375 37.640625 27.21875 
Q 31.109375 20.453125 19.1875 8.296875 
z
" id="DejaVuSans-50"/>
       </defs>
       <use xlink:href="#DejaVuSans-48"/>
       <use x="63.623047" xlink:href="#DejaVuSans-46"/>
       <use x="95.410156" xlink:href="#DejaVuSans-50"/>
      </g>
     </g>
    </g>
    <g id="xtick_4">
     <g id="text_4">
      <!-- 0.3 -->
      <g transform="translate(243.094063 409.878437)scale(0.1 -0.1)">
       <defs>
        <path d="M 40.578125 39.3125 
Q 47.65625 37.796875 51.625 33 
Q 55.609375 28.21875 55.609375 21.1875 
Q 55.609375 10.40625 48.1875 4.484375 
Q 40.765625 -1.421875 27.09375 -1.421875 
Q 22.515625 -1.421875 17.65625 -0.515625 
Q 12.796875 0.390625 7.625 2.203125 
L 7.625 11.71875 
Q 11.71875 9.328125 16.59375 8.109375 
Q 21.484375 6.890625 26.8125 6.890625 
Q 36.078125 6.890625 40.9375 10.546875 
Q 45.796875 14.203125 45.796875 21.1875 
Q 45.796875 27.640625 41.28125 31.265625 
Q 36.765625 34.90625 28.71875 34.90625 
L 20.21875 34.90625 
L 20.21875 43.015625 
L 29.109375 43.015625 
Q 36.375 43.015625 40.234375 45.921875 
Q 44.09375 48.828125 44.09375 54.296875 
Q 44.09375 59.90625 40.109375 62.90625 
Q 36.140625 65.921875 28.71875 65.921875 
Q 24.65625 65.921875 20.015625 65.03125 
Q 15.375 64.15625 9.8125 62.3125 
L 9.8125 71.09375 
Q 15.4375 72.65625 20.34375 73.4375 
Q 25.25 74.21875 29.59375 74.21875 
Q 40.828125 74.21875 47.359375 69.109375 
Q 53.90625 64.015625 53.90625 55.328125 
Q 53.90625 49.265625 50.4375 45.09375 
Q 46.96875 40.921875 40.578125 39.3125 
z
" id="DejaVuSans-51"/>
       </defs>
       <use xlink:href="#DejaVuSans-48"/>
       <use x="63.623047" xlink:href="#DejaVuSans-46"/>
       <use x="95.410156" xlink:href="#DejaVuSans-51"/>
      </g>
     </g>
    </g>
    <g id="xtick_5">
     <g id="text_5">
      <!-- 0.4 -->
      <g transform="translate(310.054062 409.878437)scale(0.1 -0.1)">
       <defs>
        <path d="M 37.796875 64.3125 
L 12.890625 25.390625 
L 37.796875 25.390625 
z
M 35.203125 72.90625 
L 47.609375 72.90625 
L 47.609375 25.390625 
L 58.015625 25.390625 
L 58.015625 17.1875 
L 47.609375 17.1875 
L 47.609375 0 
L 37.796875 0 
L 37.796875 17.1875 
L 4.890625 17.1875 
L 4.890625 26.703125 
z
" id="DejaVuSans-52"/>
       </defs>
       <use xlink:href="#DejaVuSans-48"/>
       <use x="63.623047" xlink:href="#DejaVuSans-46"/>
       <use x="95.410156" xlink:href="#DejaVuSans-52"/>
      </g>
     </g>
    </g>
    <g id="xtick_6">
     <g id="text_6">
      <!-- 0.5 -->
      <g transform="translate(377.014063 409.878437)scale(0.1 -0.1)">
       <defs>
        <path d="M 10.796875 72.90625 
L 49.515625 72.90625 
L 49.515625 64.59375 
L 19.828125 64.59375 
L 19.828125 46.734375 
Q 21.96875 47.46875 24.109375 47.828125 
Q 26.265625 48.1875 28.421875 48.1875 
Q 40.625 48.1875 47.75 41.5 
Q 54.890625 34.8125 54.890625 23.390625 
Q 54.890625 11.625 47.5625 5.09375 
Q 40.234375 -1.421875 26.90625 -1.421875 
Q 22.3125 -1.421875 17.546875 -0.640625 
Q 12.796875 0.140625 7.71875 1.703125 
L 7.71875 11.625 
Q 12.109375 9.234375 16.796875 8.0625 
Q 21.484375 6.890625 26.703125 6.890625 
Q 35.15625 6.890625 40.078125 11.328125 
Q 45.015625 15.765625 45.015625 23.390625 
Q 45.015625 31 40.078125 35.4375 
Q 35.15625 39.890625 26.703125 39.890625 
Q 22.75 39.890625 18.8125 39.015625 
Q 14.890625 38.140625 10.796875 36.28125 
z
" id="DejaVuSans-53"/>
       </defs>
       <use xlink:href="#DejaVuSans-48"/>
       <use x="63.623047" xlink:href="#DejaVuSans-46"/>
       <use x="95.410156" xlink:href="#DejaVuSans-53"/>
      </g>
     </g>
    </g>
    <g id="xtick_7">
     <g id="text_7">
      <!-- 0.6 -->
      <g transform="translate(443.974063 409.878437)scale(0.1 -0.1)">
       <defs>
        <path d="M 33.015625 40.375 
Q 26.375 40.375 22.484375 35.828125 
Q 18.609375 31.296875 18.609375 23.390625 
Q 18.609375 15.53125 22.484375 10.953125 
Q 26.375 6.390625 33.015625 6.390625 
Q 39.65625 6.390625 43.53125 10.953125 
Q 47.40625 15.53125 47.40625 23.390625 
Q 47.40625 31.296875 43.53125 35.828125 
Q 39.65625 40.375 33.015625 40.375 
z
M 52.59375 71.296875 
L 52.59375 62.3125 
Q 48.875 64.0625 45.09375 64.984375 
Q 41.3125 65.921875 37.59375 65.921875 
Q 27.828125 65.921875 22.671875 59.328125 
Q 17.53125 52.734375 16.796875 39.40625 
Q 19.671875 43.65625 24.015625 45.921875 
Q 28.375 48.1875 33.59375 48.1875 
Q 44.578125 48.1875 50.953125 41.515625 
Q 57.328125 34.859375 57.328125 23.390625 
Q 57.328125 12.15625 50.6875 5.359375 
Q 44.046875 -1.421875 33.015625 -1.421875 
Q 20.359375 -1.421875 13.671875 8.265625 
Q 6.984375 17.96875 6.984375 36.375 
Q 6.984375 53.65625 15.1875 63.9375 
Q 23.390625 74.21875 37.203125 74.21875 
Q 40.921875 74.21875 44.703125 73.484375 
Q 48.484375 72.75 52.59375 71.296875 
z
" id="DejaVuSans-54"/>
       </defs>
       <use xlink:href="#DejaVuSans-48"/>
       <use x="63.623047" xlink:href="#DejaVuSans-46"/>
       <use x="95.410156" xlink:href="#DejaVuSans-54"/>
      </g>
     </g>
    </g>
    <g id="xtick_8">
     <g id="text_8">
      <!-- 0.7 -->
      <g transform="translate(510.934063 409.878437)scale(0.1 -0.1)">
       <defs>
        <path d="M 8.203125 72.90625 
L 55.078125 72.90625 
L 55.078125 68.703125 
L 28.609375 0 
L 18.3125 0 
L 43.21875 64.59375 
L 8.203125 64.59375 
z
" id="DejaVuSans-55"/>
       </defs>
       <use xlink:href="#DejaVuSans-48"/>
       <use x="63.623047" xlink:href="#DejaVuSans-46"/>
       <use x="95.410156" xlink:href="#DejaVuSans-55"/>
      </g>
     </g>
    </g>
    <g id="xtick_9">
     <g id="text_9">
      <!-- 0.8 -->
      <g transform="translate(577.894063 409.878437)scale(0.1 -0.1)">
       <defs>
        <path d="M 31.78125 34.625 
Q 24.75 34.625 20.71875 30.859375 
Q 16.703125 27.09375 16.703125 20.515625 
Q 16.703125 13.921875 20.71875 10.15625 
Q 24.75 6.390625 31.78125 6.390625 
Q 38.8125 6.390625 42.859375 10.171875 
Q 46.921875 13.96875 46.921875 20.515625 
Q 46.921875 27.09375 42.890625 30.859375 
Q 38.875 34.625 31.78125 34.625 
z
M 21.921875 38.8125 
Q 15.578125 40.375 12.03125 44.71875 
Q 8.5 49.078125 8.5 55.328125 
Q 8.5 64.0625 14.71875 69.140625 
Q 20.953125 74.21875 31.78125 74.21875 
Q 42.671875 74.21875 48.875 69.140625 
Q 55.078125 64.0625 55.078125 55.328125 
Q 55.078125 49.078125 51.53125 44.71875 
Q 48 40.375 41.703125 38.8125 
Q 48.828125 37.15625 52.796875 32.3125 
Q 56.78125 27.484375 56.78125 20.515625 
Q 56.78125 9.90625 50.3125 4.234375 
Q 43.84375 -1.421875 31.78125 -1.421875 
Q 19.734375 -1.421875 13.25 4.234375 
Q 6.78125 9.90625 6.78125 20.515625 
Q 6.78125 27.484375 10.78125 32.3125 
Q 14.796875 37.15625 21.921875 38.8125 
z
M 18.3125 54.390625 
Q 18.3125 48.734375 21.84375 45.5625 
Q 25.390625 42.390625 31.78125 42.390625 
Q 38.140625 42.390625 41.71875 45.5625 
Q 45.3125 48.734375 45.3125 54.390625 
Q 45.3125 60.0625 41.71875 63.234375 
Q 38.140625 66.40625 31.78125 66.40625 
Q 25.390625 66.40625 21.84375 63.234375 
Q 18.3125 60.0625 18.3125 54.390625 
z
" id="DejaVuSans-56"/>
       </defs>
       <use xlink:href="#DejaVuSans-48"/>
       <use x="63.623047" xlink:href="#DejaVuSans-46"/>
       <use x="95.410156" xlink:href="#DejaVuSans-56"/>
      </g>
     </g>
    </g>
    <g id="xtick_10">
     <g id="text_10">
      <!-- 0.9 -->
      <g transform="translate(644.854062 409.878437)scale(0.1 -0.1)">
       <defs>
        <path d="M 10.984375 1.515625 
L 10.984375 10.5 
Q 14.703125 8.734375 18.5 7.8125 
Q 22.3125 6.890625 25.984375 6.890625 
Q 35.75 6.890625 40.890625 13.453125 
Q 46.046875 20.015625 46.78125 33.40625 
Q 43.953125 29.203125 39.59375 26.953125 
Q 35.25 24.703125 29.984375 24.703125 
Q 19.046875 24.703125 12.671875 31.3125 
Q 6.296875 37.9375 6.296875 49.421875 
Q 6.296875 60.640625 12.9375 67.421875 
Q 19.578125 74.21875 30.609375 74.21875 
Q 43.265625 74.21875 49.921875 64.515625 
Q 56.59375 54.828125 56.59375 36.375 
Q 56.59375 19.140625 48.40625 8.859375 
Q 40.234375 -1.421875 26.421875 -1.421875 
Q 22.703125 -1.421875 18.890625 -0.6875 
Q 15.09375 0.046875 10.984375 1.515625 
z
M 30.609375 32.421875 
Q 37.25 32.421875 41.125 36.953125 
Q 45.015625 41.5 45.015625 49.421875 
Q 45.015625 57.28125 41.125 61.84375 
Q 37.25 66.40625 30.609375 66.40625 
Q 23.96875 66.40625 20.09375 61.84375 
Q 16.21875 57.28125 16.21875 49.421875 
Q 16.21875 41.5 20.09375 36.953125 
Q 23.96875 32.421875 30.609375 32.421875 
z
" id="DejaVuSans-57"/>
       </defs>
       <use xlink:href="#DejaVuSans-48"/>
       <use x="63.623047" xlink:href="#DejaVuSans-46"/>
       <use x="95.410156" xlink:href="#DejaVuSans-57"/>
      </g>
     </g>
    </g>
    <g id="text_11">
     <!-- $t$ -->
     <g transform="translate(382.965625 423.556562)scale(0.1 -0.1)">
      <defs>
       <path d="M 42.28125 54.6875 
L 40.921875 47.703125 
L 23 47.703125 
L 17.1875 18.015625 
Q 16.890625 16.359375 16.75 15.234375 
Q 16.609375 14.109375 16.609375 13.484375 
Q 16.609375 10.359375 18.484375 8.9375 
Q 20.359375 7.515625 24.515625 7.515625 
L 33.59375 7.515625 
L 32.078125 0 
L 23.484375 0 
Q 15.484375 0 11.546875 3.125 
Q 7.625 6.25 7.625 12.59375 
Q 7.625 13.71875 7.765625 15.0625 
Q 7.90625 16.40625 8.203125 18.015625 
L 14.015625 47.703125 
L 6.390625 47.703125 
L 7.8125 54.6875 
L 15.28125 54.6875 
L 18.3125 70.21875 
L 27.296875 70.21875 
L 24.3125 54.6875 
z
" id="DejaVuSans-Oblique-116"/>
      </defs>
      <use transform="translate(0 0.78125)" xlink:href="#DejaVuSans-Oblique-116"/>
     </g>
    </g>
   </g>
   <g id="matplotlib.axis_2">
    <g id="ytick_1">
     <g id="text_12">
      <!-- 0.14 -->
      <g transform="translate(20.9 356.302261)scale(0.1 -0.1)">
       <use xlink:href="#DejaVuSans-48"/>
       <use x="63.623047" xlink:href="#DejaVuSans-46"/>
       <use x="95.410156" xlink:href="#DejaVuSans-49"/>
       <use x="159.033203" xlink:href="#DejaVuSans-52"/>
      </g>
     </g>
    </g>
    <g id="ytick_2">
     <g id="text_13">
      <!-- 0.15 -->
      <g transform="translate(20.9 306.642187)scale(0.1 -0.1)">
       <use xlink:href="#DejaVuSans-48"/>
       <use x="63.623047" xlink:href="#DejaVuSans-46"/>
       <use x="95.410156" xlink:href="#DejaVuSans-49"/>
       <use x="159.033203" xlink:href="#DejaVuSans-53"/>
      </g>
     </g>
    </g>
    <g id="ytick_3">
     <g id="text_14">
      <!-- 0.16 -->
      <g transform="translate(20.9 256.982114)scale(0.1 -0.1)">
       <use xlink:href="#DejaVuSans-48"/>
       <use x="63.623047" xlink:href="#DejaVuSans-46"/>
       <use x="95.410156" xlink:href="#DejaVuSans-49"/>
       <use x="159.033203" xlink:href="#DejaVuSans-54"/>
      </g>
     </g>
    </g>
    <g id="ytick_4">
     <g id="text_15">
      <!-- 0.17 -->
      <g transform="translate(20.9 207.322041)scale(0.1 -0.1)">
       <use xlink:href="#DejaVuSans-48"/>
       <use x="63.623047" xlink:href="#DejaVuSans-46"/>
       <use x="95.410156" xlink:href="#DejaVuSans-49"/>
       <use x="159.033203" xlink:href="#DejaVuSans-55"/>
      </g>
     </g>
    </g>
    <g id="ytick_5">
     <g id="text_16">
      <!-- 0.18 -->
      <g transform="translate(20.9 157.661968)scale(0.1 -0.1)">
       <use xlink:href="#DejaVuSans-48"/>
       <use x="63.623047" xlink:href="#DejaVuSans-46"/>
       <use x="95.410156" xlink:href="#DejaVuSans-49"/>
       <use x="159.033203" xlink:href="#DejaVuSans-56"/>
      </g>
     </g>
    </g>
    <g id="ytick_6">
     <g id="text_17">
      <!-- 0.19 -->
      <g transform="translate(20.9 108.001894)scale(0.1 -0.1)">
       <use xlink:href="#DejaVuSans-48"/>
       <use x="63.623047" xlink:href="#DejaVuSans-46"/>
       <use x="95.410156" xlink:href="#DejaVuSans-49"/>
       <use x="159.033203" xlink:href="#DejaVuSans-57"/>
      </g>
     </g>
    </g>
    <g id="ytick_7">
     <g id="text_18">
      <!-- 0.20 -->
      <g transform="translate(20.9 58.341821)scale(0.1 -0.1)">
       <use xlink:href="#DejaVuSans-48"/>
       <use x="63.623047" xlink:href="#DejaVuSans-46"/>
       <use x="95.410156" xlink:href="#DejaVuSans-50"/>
       <use x="159.033203" xlink:href="#DejaVuSans-48"/>
      </g>
     </g>
    </g>
    <g id="text_19">
     <!-- $\xi$ -->
     <g transform="translate(14.8 204.04)rotate(-90)scale(0.1 -0.1)">
      <defs>
       <path d="M 31.5 6.203125 
Q 37.9375 6.15625 41.0625 2.484375 
Q 44.4375 -1.375 43.3125 -7.234375 
Q 42.1875 -12.84375 37.84375 -16.75 
Q 33.109375 -21 25.140625 -21 
Q 25.875 -17.328125 26.5625 -13.625 
Q 29.890625 -13.875 32.375 -11.71875 
Q 34.28125 -10.015625 34.625 -8.203125 
Q 35.109375 -5.609375 33.984375 -3.46875 
Q 32.8125 -1.421875 30.03125 -1.421875 
Q -0.390625 -1.421875 3.765625 19.921875 
Q 6.59375 34.578125 23.6875 38.875 
Q 10.359375 40.625 12.84375 53.328125 
Q 14.703125 62.9375 26.21875 66.9375 
L 16.0625 66.9375 
L 17.828125 75.984375 
L 56.34375 75.984375 
L 54.59375 66.9375 
Q 23.875 66.9375 21.09375 52.734375 
Q 19.28125 43.40625 45.015625 42.96875 
L 43.40625 34.671875 
Q 15.765625 35.75 12.796875 19.921875 
Q 10.296875 6.6875 31.5 6.203125 
z
" id="DejaVuSans-Oblique-958"/>
      </defs>
      <use transform="translate(0 0.015625)" xlink:href="#DejaVuSans-Oblique-958"/>
     </g>
    </g>
   </g>
   <g id="line2d_1">
    <path clip-path="url(#p34e5613f94)" d="M 50.165625 54.542602 
L 53.844746 54.441403 
L 55.684306 54.251143 
L 57.523867 53.864829 
L 59.363427 53.651125 
L 61.202988 52.989171 
L 63.042548 52.688218 
L 68.561229 51.466017 
L 70.40079 51.338774 
L 74.079911 50.25264 
L 75.919471 49.61001 
L 77.759032 49.209379 
L 81.438152 47.950203 
L 85.117273 46.322835 
L 86.956834 45.658417 
L 88.796394 44.760618 
L 90.635955 44.127461 
L 94.315076 43.361187 
L 96.154636 43.20912 
L 99.833757 42.647363 
L 107.191999 40.749874 
L 109.031559 40.150075 
L 110.87112 39.412093 
L 112.71068 38.494395 
L 116.389801 36.377039 
L 120.068922 33.816484 
L 121.908482 32.985443 
L 125.587603 31.644002 
L 127.427163 30.769487 
L 129.266724 29.731267 
L 134.785405 27.724509 
L 136.624966 27.029914 
L 140.304087 26.552302 
L 145.822768 26.31063 
L 149.501889 25.633582 
L 151.341449 25.230939 
L 153.18101 24.952662 
L 155.02057 24.84 
L 158.699691 25.012233 
L 160.539251 25.27532 
L 162.378812 25.418819 
L 166.057933 26.197223 
L 169.737054 27.046829 
L 171.576614 27.500344 
L 173.416174 28.116609 
L 175.255735 28.93187 
L 177.095295 29.999494 
L 178.934856 30.906847 
L 189.972218 35.181427 
L 193.651339 36.356066 
L 197.33046 37.806593 
L 206.528262 41.631887 
L 212.046944 44.010906 
L 213.886504 44.821696 
L 215.726065 45.76456 
L 223.084306 49.947161 
L 230.442548 53.966848 
L 235.961229 56.821095 
L 239.64035 59.003928 
L 243.319471 61.22347 
L 252.517273 66.4933 
L 256.196394 68.243966 
L 259.875515 70.115998 
L 261.715076 71.041598 
L 265.394196 72.583589 
L 267.233757 73.148392 
L 274.591999 76.03131 
L 276.431559 76.845324 
L 278.27112 77.872772 
L 280.11068 78.696173 
L 281.95024 79.655536 
L 291.148043 85.164867 
L 292.987603 86.194813 
L 296.666724 88.049298 
L 302.185405 91.074506 
L 305.864526 92.954953 
L 315.062328 97.995513 
L 322.42057 102.689359 
L 329.778812 107.491747 
L 331.618372 108.618456 
L 344.495295 117.688628 
L 348.174416 119.89053 
L 357.372218 125.315359 
L 359.211779 126.482744 
L 361.051339 127.820652 
L 366.570021 131.325004 
L 396.002988 153.611426 
L 403.361229 159.497834 
L 414.398592 169.295353 
L 423.596394 177.716853 
L 427.275515 181.148208 
L 430.954636 184.245656 
L 441.991999 192.808398 
L 449.35024 198.261535 
L 453.029361 201.057277 
L 456.708482 204.010301 
L 464.066724 210.27479 
L 469.585405 215.103528 
L 487.98101 230.59193 
L 499.018372 238.685501 
L 504.537054 242.389975 
L 515.574416 249.684016 
L 522.932658 254.325128 
L 530.2909 259.317379 
L 537.649141 263.945264 
L 548.686504 271.373822 
L 561.563427 280.599876 
L 572.60079 288.263407 
L 583.638152 295.901937 
L 594.675515 303.084126 
L 603.873317 309.098122 
L 607.552438 311.458711 
L 616.75024 317.095626 
L 625.948043 322.953207 
L 629.627163 325.494976 
L 640.664526 333.530199 
L 657.22057 344.814016 
L 670.097493 353.974511 
L 671.937054 355.111542 
L 673.776614 356.114152 
L 686.653537 362.341378 
L 701.370021 369.488298 
L 708.728262 373.044448 
L 712.407383 374.681873 
L 719.765625 377.64 
L 719.765625 377.64 
" style="fill:none;stroke:#294ad9;stroke-linecap:square;stroke-width:3;"/>
    <defs>
     <path d="M 0 3 
C 0.795609 3 1.55874 2.683901 2.12132 2.12132 
C 2.683901 1.55874 3 0.795609 3 0 
C 3 -0.795609 2.683901 -1.55874 2.12132 -2.12132 
C 1.55874 -2.683901 0.795609 -3 0 -3 
C -0.795609 -3 -1.55874 -2.683901 -2.12132 -2.12132 
C -2.683901 -1.55874 -3 -0.795609 -3 0 
C -3 0.795609 -2.683901 1.55874 -2.12132 2.12132 
C -1.55874 2.683901 -0.795609 3 0 3 
z
" id="m108fe880ed" style="stroke:#294ad9;"/>
    </defs>
    <g clip-path="url(#p34e5613f94)">
     <use style="fill:#294ad9;stroke:#294ad9;" x="50.165625" xlink:href="#m108fe880ed" y="54.542602"/>
     <use style="fill:#294ad9;stroke:#294ad9;" x="123.748043" xlink:href="#m108fe880ed" y="32.33036"/>
     <use style="fill:#294ad9;stroke:#294ad9;" x="197.33046" xlink:href="#m108fe880ed" y="37.806593"/>
     <use style="fill:#294ad9;stroke:#294ad9;" x="265.394196" xlink:href="#m108fe880ed" y="72.583589"/>
     <use style="fill:#294ad9;stroke:#294ad9;" x="333.457933" xlink:href="#m108fe880ed" y="109.927263"/>
     <use style="fill:#294ad9;stroke:#294ad9;" x="397.842548" xlink:href="#m108fe880ed" y="155.054464"/>
     <use style="fill:#294ad9;stroke:#294ad9;" x="456.708482" xlink:href="#m108fe880ed" y="204.010301"/>
     <use style="fill:#294ad9;stroke:#294ad9;" x="517.413977" xlink:href="#m108fe880ed" y="250.834688"/>
     <use style="fill:#294ad9;stroke:#294ad9;" x="581.798592" xlink:href="#m108fe880ed" y="294.67003"/>
     <use style="fill:#294ad9;stroke:#294ad9;" x="646.183207" xlink:href="#m108fe880ed" y="337.236302"/>
     <use style="fill:#294ad9;stroke:#294ad9;" x="714.246944" xlink:href="#m108fe880ed" y="375.437846"/>
    </g>
   </g>
   <g id="line2d_2">
    <path clip-path="url(#p34e5613f94)" d="M 50.165625 54.542602 
L 53.844746 54.44958 
L 55.684306 54.274852 
L 57.523867 53.921441 
L 59.363427 53.724477 
L 61.202988 53.120885 
L 63.042548 52.843551 
L 68.561229 51.719016 
L 70.40079 51.598395 
L 74.079911 50.599749 
L 75.919471 50.009861 
L 77.759032 49.638475 
L 81.438152 48.479999 
L 85.117273 46.988207 
L 86.956834 46.376015 
L 88.796394 45.553459 
L 90.635955 44.968611 
L 94.315076 44.250599 
L 97.994196 43.841905 
L 99.833757 43.56724 
L 107.191999 41.789988 
L 109.031559 41.231008 
L 110.87112 40.546832 
L 112.71068 39.700545 
L 116.389801 37.753931 
L 120.068922 35.409793 
L 121.908482 34.639404 
L 125.587603 33.386514 
L 127.427163 32.575768 
L 129.266724 31.617663 
L 134.785405 29.738177 
L 136.624966 29.08766 
L 140.304087 28.614107 
L 145.822768 28.336203 
L 149.501889 27.676931 
L 153.18101 27.012787 
L 155.02057 26.888648 
L 158.699691 27.005626 
L 164.218372 27.639849 
L 171.576614 29.157888 
L 173.416174 29.708752 
L 175.255735 30.447729 
L 177.095295 31.427811 
L 178.934856 32.254382 
L 189.972218 36.100495 
L 193.651339 37.144626 
L 197.33046 38.449016 
L 206.528262 41.896825 
L 212.046944 44.044067 
L 213.886504 44.776561 
L 215.726065 45.635313 
L 223.084306 49.465955 
L 230.442548 53.139487 
L 235.961229 55.740102 
L 239.64035 57.744145 
L 243.319471 59.784113 
L 252.517273 64.614244 
L 256.196394 66.201746 
L 259.875515 67.906029 
L 261.715076 68.748072 
L 265.394196 70.135149 
L 267.233757 70.632057 
L 274.591999 73.212848 
L 276.431559 73.947219 
L 278.27112 74.887582 
L 280.11068 75.630961 
L 281.95024 76.50538 
L 291.148043 81.570522 
L 292.987603 82.513751 
L 296.666724 84.201237 
L 302.185405 86.968703 
L 305.864526 88.681665 
L 315.062328 93.294548 
L 322.42057 97.632785 
L 329.778812 102.081243 
L 331.618372 103.120745 
L 344.495295 111.571133 
L 348.174416 113.602875 
L 357.372218 118.605717 
L 359.211779 119.687725 
L 361.051339 120.939193 
L 366.570021 124.189255 
L 394.163427 143.796339 
L 401.521669 149.281982 
L 405.20079 152.25271 
L 425.435955 169.840008 
L 429.115076 172.984574 
L 432.794196 175.792879 
L 436.473317 178.507414 
L 441.991999 182.560656 
L 449.35024 187.737648 
L 453.029361 190.397838 
L 456.708482 193.21933 
L 464.066724 199.235338 
L 469.585405 203.887616 
L 482.462328 214.455292 
L 486.141449 217.398529 
L 489.82057 220.106902 
L 495.339251 224.057064 
L 499.018372 226.540502 
L 504.537054 230.068792 
L 515.574416 237.017182 
L 522.932658 241.42948 
L 530.2909 246.196913 
L 537.649141 250.601123 
L 548.686504 257.702449 
L 561.563427 266.567895 
L 572.60079 273.927893 
L 583.638152 281.272064 
L 594.675515 288.161251 
L 602.033757 292.700994 
L 605.712878 295.095461 
L 614.91068 300.53109 
L 622.268922 304.901181 
L 627.787603 308.397693 
L 642.504087 318.699455 
L 659.06013 329.705436 
L 666.418372 334.867889 
L 670.097493 337.343868 
L 671.937054 338.442677 
L 673.776614 339.405743 
L 684.813977 344.501657 
L 694.011779 348.662269 
L 699.53046 351.271477 
L 705.049141 353.911439 
L 710.567823 356.396824 
L 716.086504 358.650282 
L 719.765625 359.961938 
L 719.765625 359.961938 
" style="fill:none;stroke:#0d98df;stroke-linecap:square;stroke-width:3;"/>
    <defs>
     <path d="M 0 3 
C 0.795609 3 1.55874 2.683901 2.12132 2.12132 
C 2.683901 1.55874 3 0.795609 3 0 
C 3 -0.795609 2.683901 -1.55874 2.12132 -2.12132 
C 1.55874 -2.683901 0.795609 -3 0 -3 
C -0.795609 -3 -1.55874 -2.683901 -2.12132 -2.12132 
C -2.683901 -1.55874 -3 -0.795609 -3 0 
C -3 0.795609 -2.683901 1.55874 -2.12132 2.12132 
C -1.55874 2.683901 -0.795609 3 0 3 
z
" id="m7e3f77e17b" style="stroke:#0d98df;"/>
    </defs>
    <g clip-path="url(#p34e5613f94)">
     <use style="fill:#0d98df;stroke:#0d98df;" x="50.165625" xlink:href="#m7e3f77e17b" y="54.542602"/>
     <use style="fill:#0d98df;stroke:#0d98df;" x="123.748043" xlink:href="#m7e3f77e17b" y="34.027287"/>
     <use style="fill:#0d98df;stroke:#0d98df;" x="199.170021" xlink:href="#m7e3f77e17b" y="39.120709"/>
     <use style="fill:#0d98df;stroke:#0d98df;" x="269.073317" xlink:href="#m7e3f77e17b" y="71.266162"/>
     <use style="fill:#0d98df;stroke:#0d98df;" x="337.137054" xlink:href="#m7e3f77e17b" y="106.826508"/>
     <use style="fill:#0d98df;stroke:#0d98df;" x="401.521669" xlink:href="#m7e3f77e17b" y="149.281982"/>
     <use style="fill:#0d98df;stroke:#0d98df;" x="462.227163" xlink:href="#m7e3f77e17b" y="197.764129"/>
     <use style="fill:#0d98df;stroke:#0d98df;" x="524.772218" xlink:href="#m7e3f77e17b" y="242.626176"/>
     <use style="fill:#0d98df;stroke:#0d98df;" x="589.156834" xlink:href="#m7e3f77e17b" y="284.781226"/>
     <use style="fill:#0d98df;stroke:#0d98df;" x="655.38101" xlink:href="#m7e3f77e17b" y="327.15896"/>
    </g>
   </g>
   <g id="line2d_3">
    <path clip-path="url(#p34e5613f94)" d="M 50.165625 54.542602 
L 53.844746 54.457803 
L 55.684306 54.298669 
L 57.523867 53.978037 
L 59.363427 53.798022 
L 61.202988 53.25223 
L 63.042548 52.998817 
L 68.561229 51.972885 
L 70.40079 51.859638 
L 74.079911 50.949257 
L 75.919471 50.412398 
L 77.759032 50.071128 
L 81.438152 49.014468 
L 85.117273 47.658701 
L 86.956834 47.099535 
L 88.796394 46.352418 
L 90.635955 45.816941 
L 94.315076 45.150394 
L 97.994196 44.761679 
L 99.833757 44.503173 
L 107.191999 42.85416 
L 110.87112 41.709511 
L 114.55024 40.045547 
L 116.389801 39.162463 
L 120.068922 37.035572 
L 121.908482 36.327985 
L 125.587603 35.168909 
L 127.427163 34.424249 
L 129.266724 33.548184 
L 134.785405 31.80495 
L 136.624966 31.20164 
L 140.304087 30.739069 
L 145.822768 30.435346 
L 149.501889 29.801547 
L 153.18101 29.162138 
L 155.02057 29.030408 
L 158.699691 29.09928 
L 164.218372 29.621813 
L 171.576614 30.935677 
L 173.416174 31.42291 
L 175.255735 32.086199 
L 177.095295 32.977536 
L 178.934856 33.723282 
L 189.972218 37.148358 
L 193.651339 38.066074 
L 197.33046 39.226804 
L 206.528262 42.302107 
L 212.046944 44.220011 
L 213.886504 44.874898 
L 217.565625 46.541972 
L 221.244746 48.319621 
L 235.961229 54.79244 
L 239.64035 56.614219 
L 243.319471 58.470714 
L 252.517273 62.853498 
L 256.196394 64.277687 
L 259.875515 65.813012 
L 261.715076 66.570966 
L 265.394196 67.804544 
L 267.233757 68.235779 
L 274.591999 70.518791 
L 276.431559 71.173857 
L 278.27112 72.025602 
L 280.11068 72.689188 
L 281.95024 73.477715 
L 291.148043 78.086981 
L 294.827163 79.674568 
L 300.345845 82.119114 
L 304.024966 83.698576 
L 313.222768 87.757523 
L 318.741449 90.637116 
L 324.26013 93.702607 
L 327.939251 95.874005 
L 331.618372 97.681962 
L 344.495295 105.476768 
L 348.174416 107.331761 
L 357.372218 111.896472 
L 359.211779 112.888962 
L 361.051339 114.048031 
L 366.570021 117.031021 
L 394.163427 135.285601 
L 401.521669 140.420807 
L 405.20079 143.22017 
L 423.596394 158.315146 
L 427.275515 161.465394 
L 430.954636 164.267073 
L 441.991999 171.939288 
L 449.35024 176.807302 
L 453.029361 179.314799 
L 456.708482 181.986181 
L 462.227163 186.314391 
L 465.906284 189.221249 
L 471.424966 193.577919 
L 478.783207 199.24091 
L 484.301889 203.685526 
L 487.98101 206.392707 
L 499.018372 213.72766 
L 504.537054 217.055925 
L 515.574416 223.611638 
L 522.932658 227.765347 
L 530.2909 232.275522 
L 537.649141 236.426213 
L 548.686504 243.151833 
L 565.242548 253.959982 
L 585.477713 266.711256 
L 598.354636 274.33085 
L 602.033757 276.465308 
L 605.712878 278.7507 
L 609.391999 280.803732 
L 613.07112 282.849756 
L 627.787603 291.405997 
L 644.343647 302.486695 
L 651.701889 307.077258 
L 659.06013 311.905727 
L 666.418372 316.896056 
L 670.097493 319.285037 
L 671.937054 320.337887 
L 673.776614 321.254438 
L 684.813977 326.076752 
L 694.011779 330.011377 
L 699.53046 332.484497 
L 705.049141 334.988861 
L 710.567823 337.340154 
L 716.086504 339.462519 
L 719.765625 340.690035 
L 719.765625 340.690035 
" style="fill:none;stroke:#11e4c6;stroke-linecap:square;stroke-width:3;"/>
    <defs>
     <path d="M 0 3 
C 0.795609 3 1.55874 2.683901 2.12132 2.12132 
C 2.683901 1.55874 3 0.795609 3 0 
C 3 -0.795609 2.683901 -1.55874 2.12132 -2.12132 
C 1.55874 -2.683901 0.795609 -3 0 -3 
C -0.795609 -3 -1.55874 -2.683901 -2.12132 -2.12132 
C -2.683901 -1.55874 -3 -0.795609 -3 0 
C -3 0.795609 -2.683901 1.55874 -2.12132 2.12132 
C -1.55874 2.683901 -0.795609 3 0 3 
z
" id="m852c5c411d" style="stroke:#11e4c6;"/>
    </defs>
    <g clip-path="url(#p34e5613f94)">
     <use style="fill:#11e4c6;stroke:#11e4c6;" x="50.165625" xlink:href="#m852c5c411d" y="54.542602"/>
     <use style="fill:#11e4c6;stroke:#11e4c6;" x="123.748043" xlink:href="#m852c5c411d" y="35.76145"/>
     <use style="fill:#11e4c6;stroke:#11e4c6;" x="199.170021" xlink:href="#m852c5c411d" y="39.825257"/>
     <use style="fill:#11e4c6;stroke:#11e4c6;" x="270.912878" xlink:href="#m852c5c411d" y="69.401281"/>
     <use style="fill:#11e4c6;stroke:#11e4c6;" x="340.816174" xlink:href="#m852c5c411d" y="103.346416"/>
     <use style="fill:#11e4c6;stroke:#11e4c6;" x="405.20079" xlink:href="#m852c5c411d" y="143.22017"/>
     <use style="fill:#11e4c6;stroke:#11e4c6;" x="467.745845" xlink:href="#m852c5c411d" y="190.697484"/>
     <use style="fill:#11e4c6;stroke:#11e4c6;" x="532.13046" xlink:href="#m852c5c411d" y="233.291492"/>
     <use style="fill:#11e4c6;stroke:#11e4c6;" x="598.354636" xlink:href="#m852c5c411d" y="274.33085"/>
     <use style="fill:#11e4c6;stroke:#11e4c6;" x="662.739251" xlink:href="#m852c5c411d" y="314.407683"/>
    </g>
   </g>
   <g id="line2d_4">
    <path clip-path="url(#p34e5613f94)" d="M 50.165625 54.542602 
L 53.844746 54.461932 
L 55.684306 54.310618 
L 57.523867 54.006329 
L 59.363427 53.834865 
L 61.202988 53.317759 
L 64.882109 52.72568 
L 68.561229 52.100121 
L 70.40079 51.990842 
L 74.079911 51.124863 
L 75.919471 50.614613 
L 77.759032 50.288716 
L 81.438152 49.283351 
L 85.117273 47.99572 
L 86.956834 47.463346 
L 88.796394 46.753995 
L 90.635955 46.243578 
L 94.315076 45.603933 
L 97.994196 45.226584 
L 99.833757 44.97688 
L 107.191999 43.394891 
L 110.87112 42.300876 
L 114.55024 40.717765 
L 116.389801 39.877973 
L 120.068922 37.859878 
L 121.908482 37.184444 
L 125.587603 36.074157 
L 127.427163 35.363349 
L 129.266724 34.528953 
L 136.624966 32.278477 
L 140.304087 31.823971 
L 145.822768 31.511261 
L 149.501889 30.893043 
L 153.18101 30.268944 
L 155.02057 30.13488 
L 158.699691 30.182432 
L 166.057933 30.954529 
L 169.737054 31.548667 
L 171.576614 31.868786 
L 173.416174 32.324947 
L 175.255735 32.950703 
L 177.095295 33.797296 
L 178.934856 34.502703 
L 189.972218 37.720603 
L 193.651339 38.576837 
L 197.33046 39.666872 
L 206.528262 42.558335 
L 212.046944 44.36283 
L 215.726065 45.711419 
L 223.084306 49.005754 
L 230.442548 52.153789 
L 235.961229 54.371462 
L 245.159032 58.708579 
L 248.838152 60.436846 
L 252.517273 62.021447 
L 256.196394 63.364216 
L 259.875515 64.814899 
L 261.715076 65.530756 
L 265.394196 66.688431 
L 267.233757 67.087823 
L 274.591999 69.224232 
L 276.431559 69.839936 
L 278.27112 70.646945 
L 280.11068 71.270888 
L 281.95024 72.016269 
L 291.148043 76.393904 
L 294.827163 77.895155 
L 300.345845 80.20852 
L 304.024966 81.701862 
L 313.222768 85.542714 
L 318.741449 88.281873 
L 324.26013 91.203881 
L 327.939251 93.277812 
L 331.618372 94.995055 
L 344.495295 102.449244 
L 348.174416 104.213684 
L 357.372218 108.554025 
L 359.211779 109.500329 
L 361.051339 110.611021 
L 366.570021 113.45605 
L 392.323867 129.790633 
L 401.521669 135.943348 
L 405.20079 138.649864 
L 423.596394 153.299226 
L 427.275515 156.364753 
L 430.954636 159.080041 
L 441.991999 166.496434 
L 449.35024 171.197281 
L 453.029361 173.621753 
L 456.708482 176.210728 
L 460.387603 178.993175 
L 473.264526 188.850809 
L 480.622768 194.468041 
L 484.301889 197.327986 
L 487.98101 199.959882 
L 499.018372 207.0712 
L 504.537054 210.290156 
L 515.574416 216.631175 
L 522.932658 220.644055 
L 530.2909 225.012786 
L 537.649141 229.025092 
L 548.686504 235.543609 
L 565.242548 246.050027 
L 585.477713 258.44493 
L 598.354636 265.84436 
L 602.033757 267.916793 
L 605.712878 270.140868 
L 609.391999 272.132846 
L 613.07112 274.118216 
L 627.787603 282.435263 
L 644.343647 293.266276 
L 651.701889 297.746703 
L 659.06013 302.469416 
L 666.418372 307.358741 
L 670.097493 309.69703 
L 671.937054 310.723689 
L 673.776614 311.614162 
L 684.813977 316.284726 
L 694.011779 320.094212 
L 699.53046 322.491706 
L 705.049141 324.920613 
L 710.567823 327.197663 
L 716.086504 329.247963 
L 719.765625 330.429613 
L 719.765625 330.429613 
" style="fill:none;stroke:#0ce359;stroke-linecap:square;stroke-width:3;"/>
    <defs>
     <path d="M 0 3 
C 0.795609 3 1.55874 2.683901 2.12132 2.12132 
C 2.683901 1.55874 3 0.795609 3 0 
C 3 -0.795609 2.683901 -1.55874 2.12132 -2.12132 
C 1.55874 -2.683901 0.795609 -3 0 -3 
C -0.795609 -3 -1.55874 -2.683901 -2.12132 -2.12132 
C -2.683901 -1.55874 -3 -0.795609 -3 0 
C -3 0.795609 -2.683901 1.55874 -2.12132 2.12132 
C -1.55874 2.683901 -0.795609 3 0 3 
z
" id="m7116d469bf" style="stroke:#0ce359;"/>
    </defs>
    <g clip-path="url(#p34e5613f94)">
     <use style="fill:#0ce359;stroke:#0ce359;" x="50.165625" xlink:href="#m7116d469bf" y="54.542602"/>
     <use style="fill:#0ce359;stroke:#0ce359;" x="125.587603" xlink:href="#m7116d469bf" y="36.074157"/>
     <use style="fill:#0ce359;stroke:#0ce359;" x="199.170021" xlink:href="#m7116d469bf" y="40.22923"/>
     <use style="fill:#0ce359;stroke:#0ce359;" x="272.752438" xlink:href="#m7116d469bf" y="68.743645"/>
     <use style="fill:#0ce359;stroke:#0ce359;" x="342.655735" xlink:href="#m7116d469bf" y="101.477713"/>
     <use style="fill:#0ce359;stroke:#0ce359;" x="408.879911" xlink:href="#m7116d469bf" y="141.589689"/>
     <use style="fill:#0ce359;stroke:#0ce359;" x="469.585405" xlink:href="#m7116d469bf" y="186.104691"/>
     <use style="fill:#0ce359;stroke:#0ce359;" x="535.809581" xlink:href="#m7116d469bf" y="228.020928"/>
     <use style="fill:#0ce359;stroke:#0ce359;" x="602.033757" xlink:href="#m7116d469bf" y="267.916793"/>
     <use style="fill:#0ce359;stroke:#0ce359;" x="668.257933" xlink:href="#m7116d469bf" y="308.573988"/>
    </g>
   </g>
   <g id="line2d_5">
    <path clip-path="url(#p34e5613f94)" d="M 50.165625 54.542602 
L 53.844746 54.470226 
L 55.684306 54.334595 
L 57.523867 54.062898 
L 59.363427 53.908686 
L 61.202988 53.448525 
L 64.882109 52.917356 
L 68.561229 52.355151 
L 70.40079 52.25436 
L 74.079911 51.477683 
L 75.919471 51.020812 
L 77.759032 50.726272 
L 81.438152 49.824201 
L 88.796394 47.56095 
L 90.635955 47.101355 
L 94.315076 46.517789 
L 97.994196 46.165887 
L 99.833757 45.9352 
L 107.191999 44.49287 
L 110.87112 43.502738 
L 114.55024 42.082779 
L 116.389801 41.330227 
L 120.068922 39.529791 
L 123.748043 38.426489 
L 125.587603 37.910927 
L 131.106284 36.032049 
L 134.785405 34.996345 
L 136.624966 34.469333 
L 140.304087 34.036049 
L 147.662328 33.444102 
L 153.18101 32.544052 
L 155.02057 32.408242 
L 158.699691 32.418709 
L 166.057933 33.047958 
L 171.576614 33.821496 
L 173.416174 34.217155 
L 175.255735 34.76864 
L 177.095295 35.52517 
L 178.934856 36.150227 
L 189.972218 38.961576 
L 193.651339 39.698668 
L 197.33046 40.649994 
L 206.528262 43.179701 
L 212.046944 44.760599 
L 215.726065 45.949161 
L 223.084306 48.882517 
L 230.442548 51.678339 
L 235.961229 53.640882 
L 245.159032 57.512296 
L 248.838152 59.054723 
L 252.517273 60.462022 
L 256.196394 61.643033 
L 259.875515 62.924709 
L 261.715076 63.556579 
L 265.394196 64.564783 
L 267.233757 64.902792 
L 274.591999 66.751902 
L 276.431559 67.289805 
L 278.27112 68.006799 
L 281.95024 69.211328 
L 291.148043 73.119832 
L 294.827163 74.448007 
L 300.345845 76.49785 
L 304.024966 77.81851 
L 315.062328 82.008711 
L 322.42057 85.400793 
L 329.778812 88.899602 
L 331.618372 89.708054 
L 344.495295 96.456879 
L 348.174416 98.036523 
L 357.372218 101.919229 
L 359.211779 102.770603 
L 361.051339 103.780354 
L 366.570021 106.341492 
L 392.323867 121.268909 
L 401.521669 126.922766 
L 405.20079 129.428795 
L 423.596394 143.099413 
L 427.275515 145.976264 
L 430.954636 148.502793 
L 441.991999 155.366016 
L 449.35024 159.70668 
L 453.029361 161.951352 
L 456.708482 164.360115 
L 460.387603 166.963661 
L 473.264526 176.209326 
L 478.783207 180.096271 
L 484.301889 184.178646 
L 487.98101 186.643263 
L 499.018372 193.263642 
L 504.537054 196.244857 
L 515.574416 202.118686 
L 522.932658 205.826364 
L 530.2909 209.885492 
L 537.649141 213.597159 
L 548.686504 219.661131 
L 565.242548 229.496441 
L 585.477713 241.098365 
L 598.354636 248.0098 
L 602.033757 249.944829 
L 605.712878 252.031624 
L 609.391999 253.888714 
L 613.07112 255.740015 
L 627.787603 263.524272 
L 635.145845 268.262279 
L 640.664526 271.645914 
L 657.22057 281.341612 
L 670.097493 289.364663 
L 671.937054 290.331909 
L 673.776614 291.164212 
L 684.813977 295.500129 
L 694.011779 299.034049 
L 699.53046 301.264334 
L 705.049141 303.526138 
L 710.567823 305.639646 
L 716.086504 307.532429 
L 719.765625 308.61476 
L 719.765625 308.61476 
" style="fill:none;stroke:#36bc14;stroke-linecap:square;stroke-width:3;"/>
    <defs>
     <path d="M 0 3 
C 0.795609 3 1.55874 2.683901 2.12132 2.12132 
C 2.683901 1.55874 3 0.795609 3 0 
C 3 -0.795609 2.683901 -1.55874 2.12132 -2.12132 
C 1.55874 -2.683901 0.795609 -3 0 -3 
C -0.795609 -3 -1.55874 -2.683901 -2.12132 -2.12132 
C -2.683901 -1.55874 -3 -0.795609 -3 0 
C -3 0.795609 -2.683901 1.55874 -2.12132 2.12132 
C -1.55874 2.683901 -0.795609 3 0 3 
z
" id="mc825607b65" style="stroke:#36bc14;"/>
    </defs>
    <g clip-path="url(#p34e5613f94)">
     <use style="fill:#36bc14;stroke:#36bc14;" x="50.165625" xlink:href="#mc825607b65" y="54.542602"/>
     <use style="fill:#36bc14;stroke:#36bc14;" x="125.587603" xlink:href="#mc825607b65" y="37.910927"/>
     <use style="fill:#36bc14;stroke:#36bc14;" x="201.009581" xlink:href="#mc825607b65" y="41.612066"/>
     <use style="fill:#36bc14;stroke:#36bc14;" x="274.591999" xlink:href="#mc825607b65" y="66.751902"/>
     <use style="fill:#36bc14;stroke:#36bc14;" x="344.495295" xlink:href="#mc825607b65" y="96.456879"/>
     <use style="fill:#36bc14;stroke:#36bc14;" x="412.559032" xlink:href="#mc825607b65" y="134.780924"/>
     <use style="fill:#36bc14;stroke:#36bc14;" x="476.943647" xlink:href="#mc825607b65" y="178.78213"/>
     <use style="fill:#36bc14;stroke:#36bc14;" x="543.167823" xlink:href="#mc825607b65" y="216.620235"/>
     <use style="fill:#36bc14;stroke:#36bc14;" x="611.231559" xlink:href="#mc825607b65" y="254.771166"/>
     <use style="fill:#36bc14;stroke:#36bc14;" x="677.455735" xlink:href="#mc825607b65" y="292.549593"/>
    </g>
   </g>
   <g id="line2d_6">
    <path clip-path="url(#p34e5613f94)" d="M 50.165625 54.542602 
L 53.844746 54.47439 
L 55.684306 54.346624 
L 72.24035 52.03935 
L 81.438152 50.096084 
L 88.796394 47.966172 
L 90.635955 47.532321 
L 94.315076 46.977904 
L 97.994196 46.640067 
L 99.833757 46.419585 
L 107.191999 45.049808 
L 110.87112 44.112862 
L 114.55024 42.775116 
L 116.389801 42.066464 
L 120.068922 40.374786 
L 123.748043 39.330461 
L 125.587603 38.841714 
L 131.106284 37.06544 
L 134.785405 36.082543 
L 136.624966 35.582338 
L 140.304087 35.162182 
L 147.662328 34.578354 
L 153.18101 33.711215 
L 155.02057 33.575989 
L 158.699691 33.570719 
L 166.057933 34.133607 
L 171.576614 34.840258 
L 173.416174 35.206551 
L 175.255735 35.721368 
L 177.095295 36.432648 
L 178.934856 37.017769 
L 189.972218 39.630183 
L 193.651339 40.309759 
L 197.33046 41.193236 
L 206.528262 43.545464 
L 215.726065 46.125818 
L 223.084306 48.878235 
L 230.442548 51.498008 
L 235.961229 53.333524 
L 245.159032 56.970481 
L 248.838152 58.419336 
L 252.517273 59.737884 
L 256.196394 60.838807 
L 259.875515 62.03637 
L 261.715076 62.626476 
L 265.394196 63.561374 
L 269.073317 64.288456 
L 276.431559 66.078517 
L 278.27112 66.750364 
L 281.95024 67.873168 
L 291.148043 71.544818 
L 294.827163 72.786542 
L 300.345845 74.704479 
L 304.024966 75.938874 
L 315.062328 79.862085 
L 322.42057 83.056999 
L 329.778812 86.356504 
L 331.618372 87.117018 
L 344.495295 93.501821 
L 348.174416 94.987514 
L 357.372218 98.63771 
L 359.211779 99.440477 
L 361.051339 100.39775 
L 366.570021 102.813362 
L 392.323867 117.002456 
L 401.521669 122.391886 
L 405.20079 124.790129 
L 423.596394 137.925823 
L 427.275515 140.698186 
L 430.954636 143.122092 
L 441.991999 149.687645 
L 449.35024 153.835186 
L 453.029361 155.982969 
L 456.708482 158.293686 
L 460.387603 160.798714 
L 473.264526 169.705455 
L 478.783207 173.450018 
L 484.301889 177.39187 
L 487.98101 179.764089 
L 499.018372 186.116485 
L 504.537054 188.969128 
L 515.574416 194.590171 
L 522.932658 198.133392 
L 532.13046 202.890193 
L 543.167823 208.472029 
L 550.526065 212.45251 
L 557.884306 216.809796 
L 563.402988 219.785016 
L 568.921669 222.87353 
L 574.44035 225.949787 
L 583.638152 231.047757 
L 594.675515 236.755062 
L 602.033757 240.518833 
L 605.712878 242.529256 
L 614.91068 247.018211 
L 622.268922 250.639187 
L 627.787603 253.579243 
L 635.145845 258.170811 
L 640.664526 261.445895 
L 657.22057 270.823188 
L 670.097493 278.607636 
L 671.937054 279.541425 
L 673.776614 280.341507 
L 686.653537 285.193165 
L 701.370021 290.778473 
L 708.728262 293.558878 
L 712.407383 294.817965 
L 719.765625 297.046028 
L 719.765625 297.046028 
" style="fill:none;stroke:#abd800;stroke-linecap:square;stroke-width:3;"/>
    <defs>
     <path d="M 0 3 
C 0.795609 3 1.55874 2.683901 2.12132 2.12132 
C 2.683901 1.55874 3 0.795609 3 0 
C 3 -0.795609 2.683901 -1.55874 2.12132 -2.12132 
C 1.55874 -2.683901 0.795609 -3 0 -3 
C -0.795609 -3 -1.55874 -2.683901 -2.12132 -2.12132 
C -2.683901 -1.55874 -3 -0.795609 -3 0 
C -3 0.795609 -2.683901 1.55874 -2.12132 2.12132 
C -1.55874 2.683901 -0.795609 3 0 3 
z
" id="m520de0e9e3" style="stroke:#abd800;"/>
    </defs>
    <g clip-path="url(#p34e5613f94)">
     <use style="fill:#abd800;stroke:#abd800;" x="50.165625" xlink:href="#m520de0e9e3" y="54.542602"/>
     <use style="fill:#abd800;stroke:#abd800;" x="125.587603" xlink:href="#m520de0e9e3" y="38.841714"/>
     <use style="fill:#abd800;stroke:#abd800;" x="201.009581" xlink:href="#m520de0e9e3" y="42.0867"/>
     <use style="fill:#abd800;stroke:#abd800;" x="274.591999" xlink:href="#m520de0e9e3" y="65.578915"/>
     <use style="fill:#abd800;stroke:#abd800;" x="346.334856" xlink:href="#m520de0e9e3" y="94.285033"/>
     <use style="fill:#abd800;stroke:#abd800;" x="414.398592" xlink:href="#m520de0e9e3" y="131.207627"/>
     <use style="fill:#abd800;stroke:#abd800;" x="478.783207" xlink:href="#m520de0e9e3" y="173.450018"/>
     <use style="fill:#abd800;stroke:#abd800;" x="546.846944" xlink:href="#m520de0e9e3" y="210.403485"/>
     <use style="fill:#abd800;stroke:#abd800;" x="614.91068" xlink:href="#m520de0e9e3" y="247.018211"/>
     <use style="fill:#abd800;stroke:#abd800;" x="682.974416" xlink:href="#m520de0e9e3" y="283.793094"/>
    </g>
   </g>
   <g id="line2d_7">
    <path clip-path="url(#p34e5613f94)" d="M 50.165625 54.542602 
L 53.844746 54.478566 
L 55.684306 54.358679 
L 72.24035 52.193276 
L 81.438152 50.368885 
L 88.796394 48.372455 
L 90.635955 47.964555 
L 94.315076 47.440009 
L 97.994196 47.117119 
L 101.673317 46.590492 
L 109.031559 45.211048 
L 112.71068 44.142896 
L 116.389801 42.809103 
L 120.068922 41.226064 
L 123.748043 40.241667 
L 127.427163 39.209687 
L 129.266724 38.545619 
L 136.624966 36.706379 
L 142.143647 36.181373 
L 145.822768 35.978501 
L 155.02057 34.763665 
L 158.699691 34.744544 
L 166.057933 35.24453 
L 171.576614 35.8867 
L 173.416174 36.224256 
L 175.255735 36.702764 
L 177.095295 37.368695 
L 178.934856 37.914089 
L 189.972218 40.330753 
L 193.651339 40.954278 
L 197.33046 41.771017 
L 206.528262 43.948324 
L 215.726065 46.341695 
L 223.084306 48.913143 
L 230.442548 51.357188 
L 235.961229 53.066262 
L 245.159032 56.468064 
L 248.838152 57.823064 
L 254.356834 59.550644 
L 265.394196 62.59967 
L 269.073317 63.264361 
L 276.431559 64.91304 
L 278.27112 65.539739 
L 281.95024 66.581455 
L 291.148043 70.015183 
L 294.827163 71.170709 
L 300.345845 72.956946 
L 304.024966 74.105333 
L 315.062328 77.761574 
L 322.42057 80.757304 
L 329.778812 83.85498 
L 331.618372 84.567151 
L 344.495295 90.580915 
L 348.174416 91.971835 
L 357.372218 95.387601 
L 359.211779 96.141097 
L 361.051339 97.044621 
L 366.570021 99.312617 
L 390.484306 111.773983 
L 396.002988 114.746826 
L 403.361229 118.948742 
L 410.719471 123.840846 
L 416.238152 127.534366 
L 429.115076 136.575358 
L 432.794196 138.744437 
L 436.473317 140.827586 
L 441.991999 143.940729 
L 449.35024 147.886445 
L 453.029361 149.932629 
L 456.708482 152.139872 
L 460.387603 154.540081 
L 473.264526 163.084871 
L 478.783207 166.677329 
L 484.301889 170.46801 
L 487.98101 172.74174 
L 499.018372 178.81077 
L 504.537054 181.528326 
L 515.574416 186.883689 
L 522.932658 190.254558 
L 532.13046 194.791267 
L 543.167823 200.113556 
L 550.526065 203.918564 
L 557.884306 208.097733 
L 563.402988 210.943764 
L 568.921669 213.902635 
L 574.44035 216.850302 
L 583.638152 221.73647 
L 594.675515 227.197684 
L 602.033757 230.799619 
L 605.712878 232.728263 
L 614.91068 237.020814 
L 622.268922 240.48553 
L 627.787603 243.306677 
L 633.306284 246.61712 
L 638.824966 249.864943 
L 644.343647 252.882374 
L 651.701889 256.816941 
L 659.06013 261.003798 
L 666.418372 265.371035 
L 670.097493 267.450271 
L 671.937054 268.347954 
L 673.776614 269.11365 
L 686.653537 273.738971 
L 701.370021 279.066615 
L 708.728262 281.719023 
L 712.407383 282.9169 
L 719.765625 285.029371 
L 719.765625 285.029371 
" style="fill:none;stroke:#f3e80b;stroke-linecap:square;stroke-width:3;"/>
    <defs>
     <path d="M 0 3 
C 0.795609 3 1.55874 2.683901 2.12132 2.12132 
C 2.683901 1.55874 3 0.795609 3 0 
C 3 -0.795609 2.683901 -1.55874 2.12132 -2.12132 
C 1.55874 -2.683901 0.795609 -3 0 -3 
C -0.795609 -3 -1.55874 -2.683901 -2.12132 -2.12132 
C -2.683901 -1.55874 -3 -0.795609 -3 0 
C -3 0.795609 -2.683901 1.55874 -2.12132 2.12132 
C -1.55874 2.683901 -0.795609 3 0 3 
z
" id="md7b40cfa94" style="stroke:#f3e80b;"/>
    </defs>
    <g clip-path="url(#p34e5613f94)">
     <use style="fill:#f3e80b;stroke:#f3e80b;" x="50.165625" xlink:href="#md7b40cfa94" y="54.542602"/>
     <use style="fill:#f3e80b;stroke:#f3e80b;" x="125.587603" xlink:href="#md7b40cfa94" y="39.78028"/>
     <use style="fill:#f3e80b;stroke:#f3e80b;" x="201.009581" xlink:href="#md7b40cfa94" y="42.596985"/>
     <use style="fill:#f3e80b;stroke:#f3e80b;" x="276.431559" xlink:href="#md7b40cfa94" y="64.91304"/>
     <use style="fill:#f3e80b;stroke:#f3e80b;" x="348.174416" xlink:href="#md7b40cfa94" y="91.971835"/>
     <use style="fill:#f3e80b;stroke:#f3e80b;" x="416.238152" xlink:href="#md7b40cfa94" y="127.534366"/>
     <use style="fill:#f3e80b;stroke:#f3e80b;" x="482.462328" xlink:href="#md7b40cfa94" y="169.249738"/>
     <use style="fill:#f3e80b;stroke:#f3e80b;" x="550.526065" xlink:href="#md7b40cfa94" y="203.918564"/>
     <use style="fill:#f3e80b;stroke:#f3e80b;" x="620.429361" xlink:href="#md7b40cfa94" y="239.588034"/>
     <use style="fill:#f3e80b;stroke:#f3e80b;" x="688.493098" xlink:href="#md7b40cfa94" y="274.393386"/>
    </g>
   </g>
   <g id="line2d_8">
    <path clip-path="url(#p34e5613f94)" d="M 50.165625 54.542602 
L 53.844746 54.486952 
L 57.523867 54.175968 
L 59.363427 54.05685 
L 61.202988 53.708839 
L 66.721669 53.094985 
L 68.561229 52.867168 
L 70.40079 52.785544 
L 79.598592 51.270789 
L 83.277713 50.473588 
L 90.635955 48.832484 
L 94.315076 48.369787 
L 97.994196 48.0794 
L 101.673317 47.613163 
L 109.031559 46.398855 
L 112.71068 45.468443 
L 118.229361 43.612789 
L 120.068922 42.946243 
L 123.748043 42.084386 
L 127.427163 41.181317 
L 129.266724 40.604202 
L 136.624966 38.98552 
L 142.143647 38.500409 
L 145.822768 38.302829 
L 155.02057 37.196396 
L 158.699691 37.155263 
L 166.057933 37.540048 
L 171.576614 38.060728 
L 173.416174 38.342813 
L 175.255735 38.749921 
L 178.934856 39.791723 
L 189.972218 41.827303 
L 193.651339 42.343393 
L 199.170021 43.386126 
L 204.688702 44.464878 
L 215.726065 46.893035 
L 224.923867 49.637111 
L 230.442548 51.197728 
L 235.961229 52.656355 
L 245.159032 55.586914 
L 248.838152 56.753839 
L 254.356834 58.228167 
L 265.394196 60.809675 
L 269.073317 61.354939 
L 276.431559 62.729387 
L 278.27112 63.266074 
L 281.95024 64.148103 
L 291.148043 67.104217 
L 294.827163 68.088726 
L 307.704087 71.601557 
L 313.222768 73.118912 
L 318.741449 74.984905 
L 324.26013 77.002049 
L 327.939251 78.452358 
L 331.618372 79.609945 
L 344.495295 84.862454 
L 348.174416 86.062038 
L 357.372218 89.004928 
L 359.211779 89.658223 
L 361.051339 90.450682 
L 366.570021 92.418161 
L 390.484306 103.40593 
L 397.842548 106.941701 
L 401.521669 108.797172 
L 405.20079 110.841294 
L 421.756834 121.02305 
L 429.115076 125.680788 
L 432.794196 127.622505 
L 436.473317 129.483313 
L 441.991999 132.264766 
L 456.708482 139.593422 
L 460.387603 141.764403 
L 473.264526 149.513252 
L 478.783207 152.771087 
L 484.301889 156.225714 
L 487.98101 158.283521 
L 499.018372 163.738881 
L 504.537054 166.166761 
L 515.574416 170.952145 
L 522.932658 173.954912 
L 532.13046 178.017531 
L 543.167823 182.781071 
L 550.526065 186.204822 
L 557.884306 189.991819 
L 563.402988 192.556297 
L 568.921669 195.230936 
L 574.44035 197.896432 
L 583.638152 202.317245 
L 594.675515 207.241021 
L 602.033757 210.489279 
L 605.712878 212.237479 
L 618.589801 217.656615 
L 624.108482 220.047712 
L 629.627163 222.768259 
L 640.664526 228.743413 
L 655.38101 236.023165 
L 664.578812 240.981715 
L 668.257933 243.013878 
L 671.937054 244.740761 
L 675.616174 246.005926 
L 681.134856 247.764901 
L 692.172218 251.320207 
L 695.851339 252.431814 
L 706.888702 256.130069 
L 712.407383 257.775673 
L 719.765625 259.641604 
L 719.765625 259.641604 
" style="fill:none;stroke:#e89000;stroke-linecap:square;stroke-width:3;"/>
    <defs>
     <path d="M 0 3 
C 0.795609 3 1.55874 2.683901 2.12132 2.12132 
C 2.683901 1.55874 3 0.795609 3 0 
C 3 -0.795609 2.683901 -1.55874 2.12132 -2.12132 
C 1.55874 -2.683901 0.795609 -3 0 -3 
C -0.795609 -3 -1.55874 -2.683901 -2.12132 -2.12132 
C -2.683901 -1.55874 -3 -0.795609 -3 0 
C -3 0.795609 -2.683901 1.55874 -2.12132 2.12132 
C -1.55874 2.683901 -0.795609 3 0 3 
z
" id="m96fbdd7345" style="stroke:#e89000;"/>
    </defs>
    <g clip-path="url(#p34e5613f94)">
     <use style="fill:#e89000;stroke:#e89000;" x="50.165625" xlink:href="#m96fbdd7345" y="54.542602"/>
     <use style="fill:#e89000;stroke:#e89000;" x="125.587603" xlink:href="#m96fbdd7345" y="41.679268"/>
     <use style="fill:#e89000;stroke:#e89000;" x="202.849141" xlink:href="#m96fbdd7345" y="44.078586"/>
     <use style="fill:#e89000;stroke:#e89000;" x="278.27112" xlink:href="#m96fbdd7345" y="63.266074"/>
     <use style="fill:#e89000;stroke:#e89000;" x="351.853537" xlink:href="#m96fbdd7345" y="87.198535"/>
     <use style="fill:#e89000;stroke:#e89000;" x="419.917273" xlink:href="#m96fbdd7345" y="119.833829"/>
     <use style="fill:#e89000;stroke:#e89000;" x="487.98101" xlink:href="#m96fbdd7345" y="158.283521"/>
     <use style="fill:#e89000;stroke:#e89000;" x="557.884306" xlink:href="#m96fbdd7345" y="189.991819"/>
     <use style="fill:#e89000;stroke:#e89000;" x="629.627163" xlink:href="#m96fbdd7345" y="222.768259"/>
     <use style="fill:#e89000;stroke:#e89000;" x="699.53046" xlink:href="#m96fbdd7345" y="253.678371"/>
    </g>
   </g>
   <g id="line2d_9">
    <path clip-path="url(#p34e5613f94)" d="M 50.165625 54.542602 
L 53.844746 54.491163 
L 59.363427 54.093995 
L 61.202988 53.773655 
L 66.721669 53.206202 
L 68.561229 52.995524 
L 70.40079 52.919143 
L 79.598592 51.519179 
L 83.277713 50.783428 
L 90.635955 49.268006 
L 94.315076 48.83726 
L 97.994196 48.564409 
L 101.673317 48.129609 
L 110.87112 46.61022 
L 114.55024 45.604587 
L 118.229361 44.428662 
L 120.068922 43.814532 
L 123.748043 43.015203 
L 127.427163 42.17787 
L 129.266724 41.644578 
L 138.464526 39.957202 
L 142.143647 39.678104 
L 145.822768 39.485769 
L 155.02057 38.440223 
L 158.699691 38.390938 
L 166.057933 38.723525 
L 171.576614 39.187319 
L 173.416174 39.442726 
L 175.255735 39.814812 
L 178.934856 40.772318 
L 189.972218 42.622986 
L 193.651339 43.087823 
L 199.170021 44.035265 
L 204.688702 45.015916 
L 215.726065 47.22939 
L 224.923867 49.749741 
L 230.442548 51.180852 
L 235.961229 52.515821 
L 245.159032 55.210891 
L 248.838152 56.283844 
L 254.356834 57.633029 
L 265.394196 59.985513 
L 269.073317 60.473983 
L 276.431559 61.716115 
L 278.27112 62.208085 
L 281.95024 63.011808 
L 291.148043 65.728977 
L 294.827163 66.628978 
L 311.383207 70.730351 
L 315.062328 71.777526 
L 322.42057 74.166684 
L 329.778812 76.646736 
L 331.618372 77.212262 
L 344.495295 82.075579 
L 348.174416 83.178961 
L 359.211779 86.48687 
L 362.8909 87.837913 
L 366.570021 89.037258 
L 390.484306 99.25974 
L 397.842548 102.556029 
L 401.521669 104.289004 
L 405.20079 106.204766 
L 421.756834 115.787867 
L 430.954636 121.115773 
L 443.831559 127.194187 
L 449.35024 129.637229 
L 453.029361 131.350325 
L 456.708482 133.21384 
L 460.387603 135.260106 
L 475.104087 143.587196 
L 480.622768 146.764775 
L 484.301889 148.91726 
L 487.98101 150.857339 
L 499.018372 155.982152 
L 504.537054 158.255551 
L 515.574416 162.736835 
L 522.932658 165.544114 
L 532.13046 169.352785 
L 543.167823 173.817221 
L 550.526065 177.034996 
L 557.884306 180.607338 
L 563.402988 183.01926 
L 568.921669 185.538984 
L 574.44035 188.050563 
L 583.638152 192.217231 
L 594.675515 196.849265 
L 602.033757 199.905408 
L 605.712878 201.554662 
L 618.589801 206.649199 
L 624.108482 208.900107 
L 629.627163 211.473008 
L 640.664526 217.145409 
L 655.38101 224.040643 
L 664.578812 228.755185 
L 668.257933 230.68999 
L 671.937054 232.325471 
L 675.616174 233.512413 
L 681.134856 235.158869 
L 692.172218 238.488356 
L 695.851339 239.527513 
L 706.888702 242.996384 
L 712.407383 244.534691 
L 719.765625 246.270168 
L 719.765625 246.270168 
" style="fill:none;stroke:#e4602b;stroke-linecap:square;stroke-width:3;"/>
    <defs>
     <path d="M 0 3 
C 0.795609 3 1.55874 2.683901 2.12132 2.12132 
C 2.683901 1.55874 3 0.795609 3 0 
C 3 -0.795609 2.683901 -1.55874 2.12132 -2.12132 
C 1.55874 -2.683901 0.795609 -3 0 -3 
C -0.795609 -3 -1.55874 -2.683901 -2.12132 -2.12132 
C -2.683901 -1.55874 -3 -0.795609 -3 0 
C -3 0.795609 -2.683901 1.55874 -2.12132 2.12132 
C -1.55874 2.683901 -0.795609 3 0 3 
z
" id="m687cd904e9" style="stroke:#e4602b;"/>
    </defs>
    <g clip-path="url(#p34e5613f94)">
     <use style="fill:#e4602b;stroke:#e4602b;" x="50.165625" xlink:href="#m687cd904e9" y="54.542602"/>
     <use style="fill:#e4602b;stroke:#e4602b;" x="125.587603" xlink:href="#m687cd904e9" y="42.638953"/>
     <use style="fill:#e4602b;stroke:#e4602b;" x="202.849141" xlink:href="#m687cd904e9" y="44.664104"/>
     <use style="fill:#e4602b;stroke:#e4602b;" x="278.27112" xlink:href="#m687cd904e9" y="62.208085"/>
     <use style="fill:#e4602b;stroke:#e4602b;" x="351.853537" xlink:href="#m687cd904e9" y="84.222525"/>
     <use style="fill:#e4602b;stroke:#e4602b;" x="421.756834" xlink:href="#m687cd904e9" y="115.787867"/>
     <use style="fill:#e4602b;stroke:#e4602b;" x="491.66013" xlink:href="#m687cd904e9" y="152.626642"/>
     <use style="fill:#e4602b;stroke:#e4602b;" x="561.563427" xlink:href="#m687cd904e9" y="182.206905"/>
     <use style="fill:#e4602b;stroke:#e4602b;" x="633.306284" xlink:href="#m687cd904e9" y="213.423911"/>
     <use style="fill:#e4602b;stroke:#e4602b;" x="705.049141" xlink:href="#m687cd904e9" y="242.441667"/>
    </g>
   </g>
   <g id="line2d_10">
    <path clip-path="url(#p34e5613f94)" d="M 50.165625 54.542602 
L 53.844746 54.49962 
L 59.363427 54.168403 
L 61.202988 53.90296 
L 66.721669 53.428775 
L 77.759032 52.279671 
L 83.277713 51.405172 
L 90.635955 50.141741 
L 94.315076 49.77687 
L 99.833757 49.391697 
L 109.031559 48.217567 
L 112.71068 47.497366 
L 118.229361 46.075625 
L 120.068922 45.565982 
L 131.106284 43.442196 
L 138.464526 42.315038 
L 142.143647 42.067132 
L 145.822768 41.890432 
L 155.02057 40.97966 
L 160.539251 40.965521 
L 164.218372 41.040354 
L 173.416174 41.721329 
L 175.255735 42.024896 
L 178.934856 42.815123 
L 189.972218 44.308258 
L 193.651339 44.675833 
L 201.009581 45.686357 
L 210.207383 47.090198 
L 215.726065 48.025474 
L 224.923867 50.101916 
L 232.282109 51.622481 
L 239.64035 53.255644 
L 243.319471 54.164799 
L 252.517273 56.2729 
L 259.875515 57.618903 
L 263.554636 58.228982 
L 267.233757 58.642738 
L 276.431559 59.858785 
L 278.27112 60.262268 
L 281.95024 60.913187 
L 292.987603 63.559233 
L 298.506284 64.657774 
L 315.062328 68.093801 
L 324.26013 70.608221 
L 327.939251 71.727866 
L 331.618372 72.603161 
L 344.495295 76.673803 
L 350.013977 78.02331 
L 357.372218 79.815253 
L 359.211779 80.315451 
L 362.8909 81.445425 
L 366.570021 82.441056 
L 390.484306 91.080422 
L 397.842548 93.877858 
L 401.521669 95.354125 
L 405.20079 96.997757 
L 421.756834 105.291993 
L 430.954636 109.913829 
L 443.831559 115.119356 
L 449.35024 117.204807 
L 453.029361 118.672582 
L 456.708482 120.278807 
L 460.387603 122.054818 
L 475.104087 129.301073 
L 480.622768 132.073999 
L 484.301889 133.95585 
L 487.98101 135.640357 
L 499.018372 140.05657 
L 504.537054 142.002258 
L 515.574416 145.838174 
L 522.932658 148.232635 
L 532.13046 151.500202 
L 543.167823 155.327795 
L 550.526065 158.102817 
L 557.884306 161.20755 
L 563.402988 163.290605 
L 568.921669 165.474368 
L 576.279911 168.395481 
L 583.638152 171.266299 
L 598.354636 176.607223 
L 602.033757 177.909479 
L 605.712878 179.342869 
L 618.589801 183.737787 
L 624.108482 185.685078 
L 629.627163 187.932723 
L 640.664526 192.927638 
L 655.38101 198.970097 
L 664.578812 203.134683 
L 668.257933 204.848688 
L 671.937054 206.281419 
L 675.616174 207.30044 
L 681.134856 208.706976 
L 692.172218 211.554245 
L 695.851339 212.439467 
L 708.728262 215.879928 
L 714.246944 217.103342 
L 717.926065 217.848254 
L 719.765625 218.188339 
L 719.765625 218.188339 
" style="fill:none;stroke:#d73333;stroke-linecap:square;stroke-width:3;"/>
    <defs>
     <path d="M 0 3 
C 0.795609 3 1.55874 2.683901 2.12132 2.12132 
C 2.683901 1.55874 3 0.795609 3 0 
C 3 -0.795609 2.683901 -1.55874 2.12132 -2.12132 
C 1.55874 -2.683901 0.795609 -3 0 -3 
C -0.795609 -3 -1.55874 -2.683901 -2.12132 -2.12132 
C -2.683901 -1.55874 -3 -0.795609 -3 0 
C -3 0.795609 -2.683901 1.55874 -2.12132 2.12132 
C -1.55874 2.683901 -0.795609 3 0 3 
z
" id="m4a2d0c2950" style="stroke:#d73333;"/>
    </defs>
    <g clip-path="url(#p34e5613f94)">
     <use style="fill:#d73333;stroke:#d73333;" x="50.165625" xlink:href="#m4a2d0c2950" y="54.542602"/>
     <use style="fill:#d73333;stroke:#d73333;" x="127.427163" xlink:href="#m4a2d0c2950" y="44.19048"/>
     <use style="fill:#d73333;stroke:#d73333;" x="202.849141" xlink:href="#m4a2d0c2950" y="45.945213"/>
     <use style="fill:#d73333;stroke:#d73333;" x="280.11068" xlink:href="#m4a2d0c2950" y="60.549619"/>
     <use style="fill:#d73333;stroke:#d73333;" x="353.693098" xlink:href="#m4a2d0c2950" y="78.889999"/>
     <use style="fill:#d73333;stroke:#d73333;" x="425.435955" xlink:href="#m4a2d0c2950" y="107.263064"/>
     <use style="fill:#d73333;stroke:#d73333;" x="497.178812" xlink:href="#m4a2d0c2950" y="139.3922"/>
     <use style="fill:#d73333;stroke:#d73333;" x="568.921669" xlink:href="#m4a2d0c2950" y="165.474368"/>
     <use style="fill:#d73333;stroke:#d73333;" x="642.504087" xlink:href="#m4a2d0c2950" y="193.674892"/>
     <use style="fill:#d73333;stroke:#d73333;" x="714.246944" xlink:href="#m4a2d0c2950" y="217.103342"/>
    </g>
   </g>
   <g id="line2d_11">
    <path clip-path="url(#p34e5613f94)" d="M 50.165625 54.542602 
L 55.684306 54.443796 
L 74.079911 53.088108 
L 86.956834 51.534778 
L 90.635955 51.0185 
L 94.315076 50.722038 
L 99.833757 50.404656 
L 109.031559 49.452639 
L 112.71068 48.874555 
L 118.229361 47.741012 
L 121.908482 47.039789 
L 127.427163 46.226486 
L 131.106284 45.624358 
L 138.464526 44.707691 
L 143.983207 44.430147 
L 147.662328 44.188445 
L 155.02057 43.583863 
L 160.539251 43.550015 
L 164.218372 43.594445 
L 173.416174 44.10142 
L 177.095295 44.68763 
L 180.774416 45.16341 
L 186.293098 45.741753 
L 189.972218 46.11725 
L 195.4909 46.568437 
L 215.726065 48.988331 
L 226.763427 50.947596 
L 239.64035 53.108285 
L 245.159032 54.167812 
L 250.677713 55.179479 
L 254.356834 55.731347 
L 265.394196 57.208463 
L 269.073317 57.491896 
L 278.27112 58.559598 
L 281.95024 59.063763 
L 292.987603 61.151297 
L 298.506284 62.007889 
L 315.062328 64.692805 
L 324.26013 66.690411 
L 327.939251 67.585619 
L 331.618372 68.275143 
L 344.495295 71.538239 
L 350.013977 72.603391 
L 357.372218 74.017345 
L 366.570021 76.110679 
L 390.484306 83.103966 
L 397.842548 85.377983 
L 403.361229 87.220918 
L 412.559032 90.899451 
L 418.077713 93.215569 
L 430.954636 98.658814 
L 443.831559 102.92912 
L 449.35024 104.633957 
L 454.868922 106.47086 
L 460.387603 108.642414 
L 475.104087 114.686643 
L 480.622768 117.006346 
L 484.301889 118.583646 
L 487.98101 119.98525 
L 499.018372 123.630309 
L 506.376614 125.759025 
L 510.055735 126.915282 
L 513.734856 127.969527 
L 517.413977 128.848628 
L 524.772218 130.87615 
L 530.2909 132.529316 
L 537.649141 134.497668 
L 548.686504 137.814582 
L 567.082109 143.980114 
L 576.279911 146.986664 
L 583.638152 149.370984 
L 598.354636 153.790308 
L 602.033757 154.86698 
L 605.712878 156.060187 
L 627.787603 162.491979 
L 635.145845 165.37014 
L 640.664526 167.399118 
L 655.38101 172.472445 
L 664.578812 175.998851 
L 668.257933 177.454597 
L 671.937054 178.656941 
L 675.616174 179.493506 
L 681.134856 180.641849 
L 692.172218 182.969077 
L 695.851339 183.689484 
L 708.728262 186.5105 
L 716.086504 187.843525 
L 719.765625 188.372421 
L 719.765625 188.372421 
" style="fill:none;stroke:#de4ce2;stroke-linecap:square;stroke-width:3;"/>
    <defs>
     <path d="M 0 3 
C 0.795609 3 1.55874 2.683901 2.12132 2.12132 
C 2.683901 1.55874 3 0.795609 3 0 
C 3 -0.795609 2.683901 -1.55874 2.12132 -2.12132 
C 1.55874 -2.683901 0.795609 -3 0 -3 
C -0.795609 -3 -1.55874 -2.683901 -2.12132 -2.12132 
C -2.683901 -1.55874 -3 -0.795609 -3 0 
C -3 0.795609 -2.683901 1.55874 -2.12132 2.12132 
C -1.55874 2.683901 -0.795609 3 0 3 
z
" id="m33137d2acc" style="stroke:#de4ce2;"/>
    </defs>
    <g clip-path="url(#p34e5613f94)">
     <use style="fill:#de4ce2;stroke:#de4ce2;" x="50.165625" xlink:href="#m33137d2acc" y="54.542602"/>
     <use style="fill:#de4ce2;stroke:#de4ce2;" x="127.427163" xlink:href="#m33137d2acc" y="46.226486"/>
     <use style="fill:#de4ce2;stroke:#de4ce2;" x="204.688702" xlink:href="#m33137d2acc" y="47.594027"/>
     <use style="fill:#de4ce2;stroke:#de4ce2;" x="280.11068" xlink:href="#m33137d2acc" y="58.780213"/>
     <use style="fill:#de4ce2;stroke:#de4ce2;" x="355.532658" xlink:href="#m33137d2acc" y="73.628457"/>
     <use style="fill:#de4ce2;stroke:#de4ce2;" x="429.115076" xlink:href="#m33137d2acc" y="97.996383"/>
     <use style="fill:#de4ce2;stroke:#de4ce2;" x="502.697493" xlink:href="#m33137d2acc" y="124.668901"/>
     <use style="fill:#de4ce2;stroke:#de4ce2;" x="576.279911" xlink:href="#m33137d2acc" y="146.986664"/>
     <use style="fill:#de4ce2;stroke:#de4ce2;" x="649.862328" xlink:href="#m33137d2acc" y="170.532341"/>
    </g>
   </g>
   <g id="patch_3">
    <path d="M 50.165625 395.28 
L 50.165625 7.2 
" style="fill:none;stroke:#000000;stroke-linecap:square;stroke-linejoin:miter;stroke-width:0.8;"/>
   </g>
   <g id="patch_4">
    <path d="M 719.765625 395.28 
L 719.765625 7.2 
" style="fill:none;stroke:#000000;stroke-linecap:square;stroke-linejoin:miter;stroke-width:0.8;"/>
   </g>
   <g id="patch_5">
    <path d="M 50.165625 395.28 
L 719.765625 395.28 
" style="fill:none;stroke:#000000;stroke-linecap:square;stroke-linejoin:miter;stroke-width:0.8;"/>
   </g>
   <g id="patch_6">
    <path d="M 50.165625 7.2 
L 719.765625 7.2 
" style="fill:none;stroke:#000000;stroke-linecap:square;stroke-linejoin:miter;stroke-width:0.8;"/>
   </g>
   <g id="legend_1">
    <g id="patch_7">
     <path d="M 724.623625 124.959872 
L 808.528225 124.959872 
Q 809.916225 124.959872 809.916225 123.571872 
L 809.916225 12.058 
Q 809.916225 10.67 808.528225 10.67 
L 724.623625 10.67 
Q 723.235625 10.67 723.235625 12.058 
L 723.235625 123.571872 
Q 723.235625 124.959872 724.623625 124.959872 
z
" style="fill:#ffffff;opacity:0.8;stroke:#cccccc;stroke-linejoin:miter;"/>
    </g>
    <g id="line2d_12">
     <path d="M 726.011625 16.290316 
L 739.891625 16.290316 
" style="fill:none;stroke:#294ad9;stroke-linecap:square;stroke-width:3;"/>
    </g>
    <g id="line2d_13">
     <g>
      <use style="fill:#294ad9;stroke:#294ad9;" x="732.951625" xlink:href="#m108fe880ed" y="16.290316"/>
     </g>
    </g>
    <g id="text_20">
     <!-- $p =$ -1.2 $\alpha =$ 1.0 -->
     <g transform="translate(745.443625 18.719316)scale(0.0694 -0.0694)">
      <defs>
       <path d="M 49.609375 33.6875 
Q 49.609375 40.875 46.484375 44.671875 
Q 43.359375 48.484375 37.5 48.484375 
Q 33.5 48.484375 29.859375 46.4375 
Q 26.21875 44.390625 23.390625 40.484375 
Q 20.609375 36.625 18.9375 31.15625 
Q 17.28125 25.6875 17.28125 20.3125 
Q 17.28125 13.484375 20.40625 9.796875 
Q 23.53125 6.109375 29.296875 6.109375 
Q 33.546875 6.109375 37.1875 8.109375 
Q 40.828125 10.109375 43.40625 13.921875 
Q 46.1875 17.921875 47.890625 23.34375 
Q 49.609375 28.765625 49.609375 33.6875 
z
M 21.78125 46.390625 
Q 25.390625 51.125 30.296875 53.5625 
Q 35.203125 56 41.21875 56 
Q 49.609375 56 54.25 50.5 
Q 58.890625 45.015625 58.890625 35.109375 
Q 58.890625 27 56 19.65625 
Q 53.125 12.3125 47.703125 6.5 
Q 44.09375 2.640625 39.546875 0.609375 
Q 35.015625 -1.421875 29.984375 -1.421875 
Q 24.171875 -1.421875 20.21875 1 
Q 16.265625 3.421875 14.3125 8.203125 
L 8.6875 -20.796875 
L -0.296875 -20.796875 
L 14.40625 54.6875 
L 23.390625 54.6875 
z
" id="DejaVuSans-Oblique-112"/>
       <path d="M 10.59375 45.40625 
L 73.1875 45.40625 
L 73.1875 37.203125 
L 10.59375 37.203125 
z
M 10.59375 25.484375 
L 73.1875 25.484375 
L 73.1875 17.1875 
L 10.59375 17.1875 
z
" id="DejaVuSans-61"/>
       <path id="DejaVuSans-32"/>
       <path d="M 4.890625 31.390625 
L 31.203125 31.390625 
L 31.203125 23.390625 
L 4.890625 23.390625 
z
" id="DejaVuSans-45"/>
       <path d="M 40.921875 25.4375 
L 40.96875 36.71875 
Q 41.015625 48.25 32.328125 48.296875 
Q 25.828125 48.34375 21.78125 42.921875 
Q 16.703125 36.234375 14.984375 27.296875 
Q 12.890625 16.546875 15.53125 11.421875 
Q 18.265625 6.203125 24.171875 6.203125 
Q 30.71875 6.203125 36.234375 16.609375 
z
M 33.84375 55.90625 
Q 49.078125 56.15625 48.875 40.375 
Q 48.875 40.375 56.5 54.6875 
L 64.5 54.6875 
L 48.734375 25.046875 
L 48.578125 14.359375 
Q 48.578125 11.96875 49.90625 9.96875 
Q 51.421875 7.625 52.984375 7.625 
L 57.328125 7.625 
L 55.859375 0 
L 50.4375 0 
Q 45.84375 0 42.53125 4.109375 
Q 40.96875 6.15625 40.921875 10.453125 
Q 37.75 5.21875 32.28125 0.78125 
Q 29.6875 -1.265625 22.703125 -1.21875 
Q 11.28125 -1.125 7.125 6.203125 
Q 2.875 13.8125 5.515625 27.296875 
Q 8.34375 41.796875 15.765625 48.390625 
Q 24.125 55.765625 33.84375 55.90625 
z
" id="DejaVuSans-Oblique-945"/>
      </defs>
      <use transform="translate(0 0.78125)" xlink:href="#DejaVuSans-Oblique-112"/>
      <use transform="translate(82.958984 0.78125)" xlink:href="#DejaVuSans-61"/>
      <use transform="translate(186.230469 0.78125)" xlink:href="#DejaVuSans-32"/>
      <use transform="translate(218.017578 0.78125)" xlink:href="#DejaVuSans-45"/>
      <use transform="translate(254.101562 0.78125)" xlink:href="#DejaVuSans-49"/>
      <use transform="translate(317.724609 0.78125)" xlink:href="#DejaVuSans-46"/>
      <use transform="translate(344.011719 0.78125)" xlink:href="#DejaVuSans-50"/>
      <use transform="translate(407.634766 0.78125)" xlink:href="#DejaVuSans-32"/>
      <use transform="translate(439.421875 0.78125)" xlink:href="#DejaVuSans-Oblique-945"/>
      <use transform="translate(524.822266 0.78125)" xlink:href="#DejaVuSans-61"/>
      <use transform="translate(628.09375 0.78125)" xlink:href="#DejaVuSans-32"/>
      <use transform="translate(659.880859 0.78125)" xlink:href="#DejaVuSans-49"/>
      <use transform="translate(723.503906 0.78125)" xlink:href="#DejaVuSans-46"/>
      <use transform="translate(755.291016 0.78125)" xlink:href="#DejaVuSans-48"/>
     </g>
    </g>
    <g id="line2d_14">
     <path d="M 726.011625 26.491031 
L 739.891625 26.491031 
" style="fill:none;stroke:#0d98df;stroke-linecap:square;stroke-width:3;"/>
    </g>
    <g id="line2d_15">
     <g>
      <use style="fill:#0d98df;stroke:#0d98df;" x="732.951625" xlink:href="#m7e3f77e17b" y="26.491031"/>
     </g>
    </g>
    <g id="text_21">
     <!-- $p =$ -1.1 $\alpha =$ 1.0 -->
     <g transform="translate(745.443625 28.920031)scale(0.0694 -0.0694)">
      <use transform="translate(0 0.78125)" xlink:href="#DejaVuSans-Oblique-112"/>
      <use transform="translate(82.958984 0.78125)" xlink:href="#DejaVuSans-61"/>
      <use transform="translate(186.230469 0.78125)" xlink:href="#DejaVuSans-32"/>
      <use transform="translate(218.017578 0.78125)" xlink:href="#DejaVuSans-45"/>
      <use transform="translate(254.101562 0.78125)" xlink:href="#DejaVuSans-49"/>
      <use transform="translate(317.724609 0.78125)" xlink:href="#DejaVuSans-46"/>
      <use transform="translate(349.511719 0.78125)" xlink:href="#DejaVuSans-49"/>
      <use transform="translate(413.134766 0.78125)" xlink:href="#DejaVuSans-32"/>
      <use transform="translate(444.921875 0.78125)" xlink:href="#DejaVuSans-Oblique-945"/>
      <use transform="translate(530.322266 0.78125)" xlink:href="#DejaVuSans-61"/>
      <use transform="translate(633.59375 0.78125)" xlink:href="#DejaVuSans-32"/>
      <use transform="translate(665.380859 0.78125)" xlink:href="#DejaVuSans-49"/>
      <use transform="translate(729.003906 0.78125)" xlink:href="#DejaVuSans-46"/>
      <use transform="translate(760.791016 0.78125)" xlink:href="#DejaVuSans-48"/>
     </g>
    </g>
    <g id="line2d_16">
     <path d="M 726.011625 36.691747 
L 739.891625 36.691747 
" style="fill:none;stroke:#11e4c6;stroke-linecap:square;stroke-width:3;"/>
    </g>
    <g id="line2d_17">
     <g>
      <use style="fill:#11e4c6;stroke:#11e4c6;" x="732.951625" xlink:href="#m852c5c411d" y="36.691747"/>
     </g>
    </g>
    <g id="text_22">
     <!-- $p =$ -1.0 $\alpha =$ 1.0 -->
     <g transform="translate(745.443625 39.120747)scale(0.0694 -0.0694)">
      <use transform="translate(0 0.78125)" xlink:href="#DejaVuSans-Oblique-112"/>
      <use transform="translate(82.958984 0.78125)" xlink:href="#DejaVuSans-61"/>
      <use transform="translate(186.230469 0.78125)" xlink:href="#DejaVuSans-32"/>
      <use transform="translate(218.017578 0.78125)" xlink:href="#DejaVuSans-45"/>
      <use transform="translate(254.101562 0.78125)" xlink:href="#DejaVuSans-49"/>
      <use transform="translate(317.724609 0.78125)" xlink:href="#DejaVuSans-46"/>
      <use transform="translate(349.511719 0.78125)" xlink:href="#DejaVuSans-48"/>
      <use transform="translate(413.134766 0.78125)" xlink:href="#DejaVuSans-32"/>
      <use transform="translate(444.921875 0.78125)" xlink:href="#DejaVuSans-Oblique-945"/>
      <use transform="translate(530.322266 0.78125)" xlink:href="#DejaVuSans-61"/>
      <use transform="translate(633.59375 0.78125)" xlink:href="#DejaVuSans-32"/>
      <use transform="translate(665.380859 0.78125)" xlink:href="#DejaVuSans-49"/>
      <use transform="translate(729.003906 0.78125)" xlink:href="#DejaVuSans-46"/>
      <use transform="translate(760.791016 0.78125)" xlink:href="#DejaVuSans-48"/>
     </g>
    </g>
    <g id="line2d_18">
     <path d="M 726.011625 46.892462 
L 739.891625 46.892462 
" style="fill:none;stroke:#0ce359;stroke-linecap:square;stroke-width:3;"/>
    </g>
    <g id="line2d_19">
     <g>
      <use style="fill:#0ce359;stroke:#0ce359;" x="732.951625" xlink:href="#m7116d469bf" y="46.892462"/>
     </g>
    </g>
    <g id="text_23">
     <!-- $p =$ -0.95 $\alpha =$ 1.0 -->
     <g transform="translate(745.443625 49.321462)scale(0.0694 -0.0694)">
      <use transform="translate(0 0.78125)" xlink:href="#DejaVuSans-Oblique-112"/>
      <use transform="translate(82.958984 0.78125)" xlink:href="#DejaVuSans-61"/>
      <use transform="translate(186.230469 0.78125)" xlink:href="#DejaVuSans-32"/>
      <use transform="translate(218.017578 0.78125)" xlink:href="#DejaVuSans-45"/>
      <use transform="translate(254.101562 0.78125)" xlink:href="#DejaVuSans-48"/>
      <use transform="translate(317.724609 0.78125)" xlink:href="#DejaVuSans-46"/>
      <use transform="translate(349.511719 0.78125)" xlink:href="#DejaVuSans-57"/>
      <use transform="translate(413.134766 0.78125)" xlink:href="#DejaVuSans-53"/>
      <use transform="translate(476.757812 0.78125)" xlink:href="#DejaVuSans-32"/>
      <use transform="translate(508.544922 0.78125)" xlink:href="#DejaVuSans-Oblique-945"/>
      <use transform="translate(593.945312 0.78125)" xlink:href="#DejaVuSans-61"/>
      <use transform="translate(697.216797 0.78125)" xlink:href="#DejaVuSans-32"/>
      <use transform="translate(729.003906 0.78125)" xlink:href="#DejaVuSans-49"/>
      <use transform="translate(792.626953 0.78125)" xlink:href="#DejaVuSans-46"/>
      <use transform="translate(824.414062 0.78125)" xlink:href="#DejaVuSans-48"/>
     </g>
    </g>
    <g id="line2d_20">
     <path d="M 726.011625 57.093178 
L 739.891625 57.093178 
" style="fill:none;stroke:#36bc14;stroke-linecap:square;stroke-width:3;"/>
    </g>
    <g id="line2d_21">
     <g>
      <use style="fill:#36bc14;stroke:#36bc14;" x="732.951625" xlink:href="#mc825607b65" y="57.093178"/>
     </g>
    </g>
    <g id="text_24">
     <!-- $p =$ -0.85 $\alpha =$ 1.0 -->
     <g transform="translate(745.443625 59.522178)scale(0.0694 -0.0694)">
      <use transform="translate(0 0.78125)" xlink:href="#DejaVuSans-Oblique-112"/>
      <use transform="translate(82.958984 0.78125)" xlink:href="#DejaVuSans-61"/>
      <use transform="translate(186.230469 0.78125)" xlink:href="#DejaVuSans-32"/>
      <use transform="translate(218.017578 0.78125)" xlink:href="#DejaVuSans-45"/>
      <use transform="translate(254.101562 0.78125)" xlink:href="#DejaVuSans-48"/>
      <use transform="translate(317.724609 0.78125)" xlink:href="#DejaVuSans-46"/>
      <use transform="translate(346.886719 0.78125)" xlink:href="#DejaVuSans-56"/>
      <use transform="translate(410.509766 0.78125)" xlink:href="#DejaVuSans-53"/>
      <use transform="translate(474.132812 0.78125)" xlink:href="#DejaVuSans-32"/>
      <use transform="translate(505.919922 0.78125)" xlink:href="#DejaVuSans-Oblique-945"/>
      <use transform="translate(591.320312 0.78125)" xlink:href="#DejaVuSans-61"/>
      <use transform="translate(694.591797 0.78125)" xlink:href="#DejaVuSans-32"/>
      <use transform="translate(726.378906 0.78125)" xlink:href="#DejaVuSans-49"/>
      <use transform="translate(790.001953 0.78125)" xlink:href="#DejaVuSans-46"/>
      <use transform="translate(821.789062 0.78125)" xlink:href="#DejaVuSans-48"/>
     </g>
    </g>
    <g id="line2d_22">
     <path d="M 726.011625 67.293894 
L 739.891625 67.293894 
" style="fill:none;stroke:#abd800;stroke-linecap:square;stroke-width:3;"/>
    </g>
    <g id="line2d_23">
     <g>
      <use style="fill:#abd800;stroke:#abd800;" x="732.951625" xlink:href="#m520de0e9e3" y="67.293894"/>
     </g>
    </g>
    <g id="text_25">
     <!-- $p =$ -0.8 $\alpha =$ 1.0 -->
     <g transform="translate(745.443625 69.722894)scale(0.0694 -0.0694)">
      <use transform="translate(0 0.78125)" xlink:href="#DejaVuSans-Oblique-112"/>
      <use transform="translate(82.958984 0.78125)" xlink:href="#DejaVuSans-61"/>
      <use transform="translate(186.230469 0.78125)" xlink:href="#DejaVuSans-32"/>
      <use transform="translate(218.017578 0.78125)" xlink:href="#DejaVuSans-45"/>
      <use transform="translate(254.101562 0.78125)" xlink:href="#DejaVuSans-48"/>
      <use transform="translate(317.724609 0.78125)" xlink:href="#DejaVuSans-46"/>
      <use transform="translate(346.886719 0.78125)" xlink:href="#DejaVuSans-56"/>
      <use transform="translate(410.509766 0.78125)" xlink:href="#DejaVuSans-32"/>
      <use transform="translate(442.296875 0.78125)" xlink:href="#DejaVuSans-Oblique-945"/>
      <use transform="translate(527.697266 0.78125)" xlink:href="#DejaVuSans-61"/>
      <use transform="translate(630.96875 0.78125)" xlink:href="#DejaVuSans-32"/>
      <use transform="translate(662.755859 0.78125)" xlink:href="#DejaVuSans-49"/>
      <use transform="translate(726.378906 0.78125)" xlink:href="#DejaVuSans-46"/>
      <use transform="translate(758.166016 0.78125)" xlink:href="#DejaVuSans-48"/>
     </g>
    </g>
    <g id="line2d_24">
     <path d="M 726.011625 77.494609 
L 739.891625 77.494609 
" style="fill:none;stroke:#f3e80b;stroke-linecap:square;stroke-width:3;"/>
    </g>
    <g id="line2d_25">
     <g>
      <use style="fill:#f3e80b;stroke:#f3e80b;" x="732.951625" xlink:href="#md7b40cfa94" y="77.494609"/>
     </g>
    </g>
    <g id="text_26">
     <!-- $p =$ -0.75 $\alpha =$ 1.0 -->
     <g transform="translate(745.443625 79.923609)scale(0.0694 -0.0694)">
      <use transform="translate(0 0.78125)" xlink:href="#DejaVuSans-Oblique-112"/>
      <use transform="translate(82.958984 0.78125)" xlink:href="#DejaVuSans-61"/>
      <use transform="translate(186.230469 0.78125)" xlink:href="#DejaVuSans-32"/>
      <use transform="translate(218.017578 0.78125)" xlink:href="#DejaVuSans-45"/>
      <use transform="translate(254.101562 0.78125)" xlink:href="#DejaVuSans-48"/>
      <use transform="translate(317.724609 0.78125)" xlink:href="#DejaVuSans-46"/>
      <use transform="translate(341.761719 0.78125)" xlink:href="#DejaVuSans-55"/>
      <use transform="translate(405.384766 0.78125)" xlink:href="#DejaVuSans-53"/>
      <use transform="translate(469.007812 0.78125)" xlink:href="#DejaVuSans-32"/>
      <use transform="translate(500.794922 0.78125)" xlink:href="#DejaVuSans-Oblique-945"/>
      <use transform="translate(586.195312 0.78125)" xlink:href="#DejaVuSans-61"/>
      <use transform="translate(689.466797 0.78125)" xlink:href="#DejaVuSans-32"/>
      <use transform="translate(721.253906 0.78125)" xlink:href="#DejaVuSans-49"/>
      <use transform="translate(784.876953 0.78125)" xlink:href="#DejaVuSans-46"/>
      <use transform="translate(816.664062 0.78125)" xlink:href="#DejaVuSans-48"/>
     </g>
    </g>
    <g id="line2d_26">
     <path d="M 726.011625 87.695325 
L 739.891625 87.695325 
" style="fill:none;stroke:#e89000;stroke-linecap:square;stroke-width:3;"/>
    </g>
    <g id="line2d_27">
     <g>
      <use style="fill:#e89000;stroke:#e89000;" x="732.951625" xlink:href="#m96fbdd7345" y="87.695325"/>
     </g>
    </g>
    <g id="text_27">
     <!-- $p =$ -0.65 $\alpha =$ 1.0 -->
     <g transform="translate(745.443625 90.124325)scale(0.0694 -0.0694)">
      <use transform="translate(0 0.78125)" xlink:href="#DejaVuSans-Oblique-112"/>
      <use transform="translate(82.958984 0.78125)" xlink:href="#DejaVuSans-61"/>
      <use transform="translate(186.230469 0.78125)" xlink:href="#DejaVuSans-32"/>
      <use transform="translate(218.017578 0.78125)" xlink:href="#DejaVuSans-45"/>
      <use transform="translate(254.101562 0.78125)" xlink:href="#DejaVuSans-48"/>
      <use transform="translate(317.724609 0.78125)" xlink:href="#DejaVuSans-46"/>
      <use transform="translate(349.511719 0.78125)" xlink:href="#DejaVuSans-54"/>
      <use transform="translate(413.134766 0.78125)" xlink:href="#DejaVuSans-53"/>
      <use transform="translate(476.757812 0.78125)" xlink:href="#DejaVuSans-32"/>
      <use transform="translate(508.544922 0.78125)" xlink:href="#DejaVuSans-Oblique-945"/>
      <use transform="translate(593.945312 0.78125)" xlink:href="#DejaVuSans-61"/>
      <use transform="translate(697.216797 0.78125)" xlink:href="#DejaVuSans-32"/>
      <use transform="translate(729.003906 0.78125)" xlink:href="#DejaVuSans-49"/>
      <use transform="translate(792.626953 0.78125)" xlink:href="#DejaVuSans-46"/>
      <use transform="translate(824.414062 0.78125)" xlink:href="#DejaVuSans-48"/>
     </g>
    </g>
    <g id="line2d_28">
     <path d="M 726.011625 97.896041 
L 739.891625 97.896041 
" style="fill:none;stroke:#e4602b;stroke-linecap:square;stroke-width:3;"/>
    </g>
    <g id="line2d_29">
     <g>
      <use style="fill:#e4602b;stroke:#e4602b;" x="732.951625" xlink:href="#m687cd904e9" y="97.896041"/>
     </g>
    </g>
    <g id="text_28">
     <!-- $p =$ -0.6 $\alpha =$ 1.0 -->
     <g transform="translate(745.443625 100.325041)scale(0.0694 -0.0694)">
      <use transform="translate(0 0.78125)" xlink:href="#DejaVuSans-Oblique-112"/>
      <use transform="translate(82.958984 0.78125)" xlink:href="#DejaVuSans-61"/>
      <use transform="translate(186.230469 0.78125)" xlink:href="#DejaVuSans-32"/>
      <use transform="translate(218.017578 0.78125)" xlink:href="#DejaVuSans-45"/>
      <use transform="translate(254.101562 0.78125)" xlink:href="#DejaVuSans-48"/>
      <use transform="translate(317.724609 0.78125)" xlink:href="#DejaVuSans-46"/>
      <use transform="translate(349.511719 0.78125)" xlink:href="#DejaVuSans-54"/>
      <use transform="translate(413.134766 0.78125)" xlink:href="#DejaVuSans-32"/>
      <use transform="translate(444.921875 0.78125)" xlink:href="#DejaVuSans-Oblique-945"/>
      <use transform="translate(530.322266 0.78125)" xlink:href="#DejaVuSans-61"/>
      <use transform="translate(633.59375 0.78125)" xlink:href="#DejaVuSans-32"/>
      <use transform="translate(665.380859 0.78125)" xlink:href="#DejaVuSans-49"/>
      <use transform="translate(729.003906 0.78125)" xlink:href="#DejaVuSans-46"/>
      <use transform="translate(760.791016 0.78125)" xlink:href="#DejaVuSans-48"/>
     </g>
    </g>
    <g id="line2d_30">
     <path d="M 726.011625 108.096756 
L 739.891625 108.096756 
" style="fill:none;stroke:#d73333;stroke-linecap:square;stroke-width:3;"/>
    </g>
    <g id="line2d_31">
     <g>
      <use style="fill:#d73333;stroke:#d73333;" x="732.951625" xlink:href="#m4a2d0c2950" y="108.096756"/>
     </g>
    </g>
    <g id="text_29">
     <!-- $p =$ -0.5 $\alpha =$ 1.0 -->
     <g transform="translate(745.443625 110.525756)scale(0.0694 -0.0694)">
      <use transform="translate(0 0.78125)" xlink:href="#DejaVuSans-Oblique-112"/>
      <use transform="translate(82.958984 0.78125)" xlink:href="#DejaVuSans-61"/>
      <use transform="translate(186.230469 0.78125)" xlink:href="#DejaVuSans-32"/>
      <use transform="translate(218.017578 0.78125)" xlink:href="#DejaVuSans-45"/>
      <use transform="translate(254.101562 0.78125)" xlink:href="#DejaVuSans-48"/>
      <use transform="translate(317.724609 0.78125)" xlink:href="#DejaVuSans-46"/>
      <use transform="translate(349.511719 0.78125)" xlink:href="#DejaVuSans-53"/>
      <use transform="translate(413.134766 0.78125)" xlink:href="#DejaVuSans-32"/>
      <use transform="translate(444.921875 0.78125)" xlink:href="#DejaVuSans-Oblique-945"/>
      <use transform="translate(530.322266 0.78125)" xlink:href="#DejaVuSans-61"/>
      <use transform="translate(633.59375 0.78125)" xlink:href="#DejaVuSans-32"/>
      <use transform="translate(665.380859 0.78125)" xlink:href="#DejaVuSans-49"/>
      <use transform="translate(729.003906 0.78125)" xlink:href="#DejaVuSans-46"/>
      <use transform="translate(760.791016 0.78125)" xlink:href="#DejaVuSans-48"/>
     </g>
    </g>
    <g id="line2d_32">
     <path d="M 726.011625 118.297472 
L 739.891625 118.297472 
" style="fill:none;stroke:#de4ce2;stroke-linecap:square;stroke-width:3;"/>
    </g>
    <g id="line2d_33">
     <g>
      <use style="fill:#de4ce2;stroke:#de4ce2;" x="732.951625" xlink:href="#m33137d2acc" y="118.297472"/>
     </g>
    </g>
    <g id="text_30">
     <!-- $p =$ -0.4 $\alpha =$ 1.0 -->
     <g transform="translate(745.443625 120.726472)scale(0.0694 -0.0694)">
      <use transform="translate(0 0.78125)" xlink:href="#DejaVuSans-Oblique-112"/>
      <use transform="translate(82.958984 0.78125)" xlink:href="#DejaVuSans-61"/>
      <use transform="translate(186.230469 0.78125)" xlink:href="#DejaVuSans-32"/>
      <use transform="translate(218.017578 0.78125)" xlink:href="#DejaVuSans-45"/>
      <use transform="translate(254.101562 0.78125)" xlink:href="#DejaVuSans-48"/>
      <use transform="translate(317.724609 0.78125)" xlink:href="#DejaVuSans-46"/>
      <use transform="translate(349.511719 0.78125)" xlink:href="#DejaVuSans-52"/>
      <use transform="translate(413.134766 0.78125)" xlink:href="#DejaVuSans-32"/>
      <use transform="translate(444.921875 0.78125)" xlink:href="#DejaVuSans-Oblique-945"/>
      <use transform="translate(530.322266 0.78125)" xlink:href="#DejaVuSans-61"/>
      <use transform="translate(633.59375 0.78125)" xlink:href="#DejaVuSans-32"/>
      <use transform="translate(665.380859 0.78125)" xlink:href="#DejaVuSans-49"/>
      <use transform="translate(729.003906 0.78125)" xlink:href="#DejaVuSans-46"/>
      <use transform="translate(760.791016 0.78125)" xlink:href="#DejaVuSans-48"/>
     </g>
    </g>
   </g>
  </g>
 </g>
 <defs>
  <clipPath id="p34e5613f94">
   <rect height="388.08" width="669.6" x="50.165625" y="7.2"/>
  </clipPath>
 </defs>
</svg>
