<?xml version="1.0" encoding="utf-8" standalone="no"?>
<!DOCTYPE svg PUBLIC "-//W3C//DTD SVG 1.1//EN"
  "http://www.w3.org/Graphics/SVG/1.1/DTD/svg11.dtd">
<!-- Created with matplotlib (https://matplotlib.org/) -->
<svg height="720pt" version="1.1" viewBox="0 0 1080 720" width="1080pt" xmlns="http://www.w3.org/2000/svg" xmlns:xlink="http://www.w3.org/1999/xlink">
 <metadata>
  <rdf:RDF xmlns:cc="http://creativecommons.org/ns#" xmlns:dc="http://purl.org/dc/elements/1.1/" xmlns:rdf="http://www.w3.org/1999/02/22-rdf-syntax-ns#">
   <cc:Work>
    <dc:type rdf:resource="http://purl.org/dc/dcmitype/StillImage"/>
    <dc:date>2021-07-24T17:12:00.320925</dc:date>
    <dc:format>image/svg+xml</dc:format>
    <dc:creator>
     <cc:Agent>
      <dc:title>Matplotlib v3.3.4, https://matplotlib.org/</dc:title>
     </cc:Agent>
    </dc:creator>
   </cc:Work>
  </rdf:RDF>
 </metadata>
 <defs>
  <style type="text/css">*{stroke-linecap:butt;stroke-linejoin:round;}</style>
 </defs>
 <g id="figure_1">
  <g id="patch_1">
   <path d="M 0 720 
L 1080 720 
L 1080 0 
L 0 0 
z
" style="fill:#ffffff;"/>
  </g>
  <g id="axes_1">
   <g id="patch_2">
    <path d="M 135 640.8 
L 972 640.8 
L 972 86.4 
L 135 86.4 
z
" style="fill:#ffffff;"/>
   </g>
   <g id="matplotlib.axis_1">
    <g id="xtick_1">
     <g id="text_1">
      <!-- 0.0 -->
      <g transform="translate(165.093892 655.398438)scale(0.1 -0.1)">
       <defs>
        <path d="M 31.78125 66.40625 
Q 24.171875 66.40625 20.328125 58.90625 
Q 16.5 51.421875 16.5 36.375 
Q 16.5 21.390625 20.328125 13.890625 
Q 24.171875 6.390625 31.78125 6.390625 
Q 39.453125 6.390625 43.28125 13.890625 
Q 47.125 21.390625 47.125 36.375 
Q 47.125 51.421875 43.28125 58.90625 
Q 39.453125 66.40625 31.78125 66.40625 
z
M 31.78125 74.21875 
Q 44.046875 74.21875 50.515625 64.515625 
Q 56.984375 54.828125 56.984375 36.375 
Q 56.984375 17.96875 50.515625 8.265625 
Q 44.046875 -1.421875 31.78125 -1.421875 
Q 19.53125 -1.421875 13.0625 8.265625 
Q 6.59375 17.96875 6.59375 36.375 
Q 6.59375 54.828125 13.0625 64.515625 
Q 19.53125 74.21875 31.78125 74.21875 
z
" id="DejaVuSans-48"/>
        <path d="M 10.6875 12.40625 
L 21 12.40625 
L 21 0 
L 10.6875 0 
z
" id="DejaVuSans-46"/>
       </defs>
       <use xlink:href="#DejaVuSans-48"/>
       <use x="63.623047" xlink:href="#DejaVuSans-46"/>
       <use x="95.410156" xlink:href="#DejaVuSans-48"/>
      </g>
     </g>
    </g>
    <g id="xtick_2">
     <g id="text_2">
      <!-- 0.2 -->
      <g transform="translate(317.27571 655.398438)scale(0.1 -0.1)">
       <defs>
        <path d="M 19.1875 8.296875 
L 53.609375 8.296875 
L 53.609375 0 
L 7.328125 0 
L 7.328125 8.296875 
Q 12.9375 14.109375 22.625 23.890625 
Q 32.328125 33.6875 34.8125 36.53125 
Q 39.546875 41.84375 41.421875 45.53125 
Q 43.3125 49.21875 43.3125 52.78125 
Q 43.3125 58.59375 39.234375 62.25 
Q 35.15625 65.921875 28.609375 65.921875 
Q 23.96875 65.921875 18.8125 64.3125 
Q 13.671875 62.703125 7.8125 59.421875 
L 7.8125 69.390625 
Q 13.765625 71.78125 18.9375 73 
Q 24.125 74.21875 28.421875 74.21875 
Q 39.75 74.21875 46.484375 68.546875 
Q 53.21875 62.890625 53.21875 53.421875 
Q 53.21875 48.921875 51.53125 44.890625 
Q 49.859375 40.875 45.40625 35.40625 
Q 44.1875 33.984375 37.640625 27.21875 
Q 31.109375 20.453125 19.1875 8.296875 
z
" id="DejaVuSans-50"/>
       </defs>
       <use xlink:href="#DejaVuSans-48"/>
       <use x="63.623047" xlink:href="#DejaVuSans-46"/>
       <use x="95.410156" xlink:href="#DejaVuSans-50"/>
      </g>
     </g>
    </g>
    <g id="xtick_3">
     <g id="text_3">
      <!-- 0.4 -->
      <g transform="translate(469.457528 655.398438)scale(0.1 -0.1)">
       <defs>
        <path d="M 37.796875 64.3125 
L 12.890625 25.390625 
L 37.796875 25.390625 
z
M 35.203125 72.90625 
L 47.609375 72.90625 
L 47.609375 25.390625 
L 58.015625 25.390625 
L 58.015625 17.1875 
L 47.609375 17.1875 
L 47.609375 0 
L 37.796875 0 
L 37.796875 17.1875 
L 4.890625 17.1875 
L 4.890625 26.703125 
z
" id="DejaVuSans-52"/>
       </defs>
       <use xlink:href="#DejaVuSans-48"/>
       <use x="63.623047" xlink:href="#DejaVuSans-46"/>
       <use x="95.410156" xlink:href="#DejaVuSans-52"/>
      </g>
     </g>
    </g>
    <g id="xtick_4">
     <g id="text_4">
      <!-- 0.6 -->
      <g transform="translate(621.639347 655.398438)scale(0.1 -0.1)">
       <defs>
        <path d="M 33.015625 40.375 
Q 26.375 40.375 22.484375 35.828125 
Q 18.609375 31.296875 18.609375 23.390625 
Q 18.609375 15.53125 22.484375 10.953125 
Q 26.375 6.390625 33.015625 6.390625 
Q 39.65625 6.390625 43.53125 10.953125 
Q 47.40625 15.53125 47.40625 23.390625 
Q 47.40625 31.296875 43.53125 35.828125 
Q 39.65625 40.375 33.015625 40.375 
z
M 52.59375 71.296875 
L 52.59375 62.3125 
Q 48.875 64.0625 45.09375 64.984375 
Q 41.3125 65.921875 37.59375 65.921875 
Q 27.828125 65.921875 22.671875 59.328125 
Q 17.53125 52.734375 16.796875 39.40625 
Q 19.671875 43.65625 24.015625 45.921875 
Q 28.375 48.1875 33.59375 48.1875 
Q 44.578125 48.1875 50.953125 41.515625 
Q 57.328125 34.859375 57.328125 23.390625 
Q 57.328125 12.15625 50.6875 5.359375 
Q 44.046875 -1.421875 33.015625 -1.421875 
Q 20.359375 -1.421875 13.671875 8.265625 
Q 6.984375 17.96875 6.984375 36.375 
Q 6.984375 53.65625 15.1875 63.9375 
Q 23.390625 74.21875 37.203125 74.21875 
Q 40.921875 74.21875 44.703125 73.484375 
Q 48.484375 72.75 52.59375 71.296875 
z
" id="DejaVuSans-54"/>
       </defs>
       <use xlink:href="#DejaVuSans-48"/>
       <use x="63.623047" xlink:href="#DejaVuSans-46"/>
       <use x="95.410156" xlink:href="#DejaVuSans-54"/>
      </g>
     </g>
    </g>
    <g id="xtick_5">
     <g id="text_5">
      <!-- 0.8 -->
      <g transform="translate(773.821165 655.398438)scale(0.1 -0.1)">
       <defs>
        <path d="M 31.78125 34.625 
Q 24.75 34.625 20.71875 30.859375 
Q 16.703125 27.09375 16.703125 20.515625 
Q 16.703125 13.921875 20.71875 10.15625 
Q 24.75 6.390625 31.78125 6.390625 
Q 38.8125 6.390625 42.859375 10.171875 
Q 46.921875 13.96875 46.921875 20.515625 
Q 46.921875 27.09375 42.890625 30.859375 
Q 38.875 34.625 31.78125 34.625 
z
M 21.921875 38.8125 
Q 15.578125 40.375 12.03125 44.71875 
Q 8.5 49.078125 8.5 55.328125 
Q 8.5 64.0625 14.71875 69.140625 
Q 20.953125 74.21875 31.78125 74.21875 
Q 42.671875 74.21875 48.875 69.140625 
Q 55.078125 64.0625 55.078125 55.328125 
Q 55.078125 49.078125 51.53125 44.71875 
Q 48 40.375 41.703125 38.8125 
Q 48.828125 37.15625 52.796875 32.3125 
Q 56.78125 27.484375 56.78125 20.515625 
Q 56.78125 9.90625 50.3125 4.234375 
Q 43.84375 -1.421875 31.78125 -1.421875 
Q 19.734375 -1.421875 13.25 4.234375 
Q 6.78125 9.90625 6.78125 20.515625 
Q 6.78125 27.484375 10.78125 32.3125 
Q 14.796875 37.15625 21.921875 38.8125 
z
M 18.3125 54.390625 
Q 18.3125 48.734375 21.84375 45.5625 
Q 25.390625 42.390625 31.78125 42.390625 
Q 38.140625 42.390625 41.71875 45.5625 
Q 45.3125 48.734375 45.3125 54.390625 
Q 45.3125 60.0625 41.71875 63.234375 
Q 38.140625 66.40625 31.78125 66.40625 
Q 25.390625 66.40625 21.84375 63.234375 
Q 18.3125 60.0625 18.3125 54.390625 
z
" id="DejaVuSans-56"/>
       </defs>
       <use xlink:href="#DejaVuSans-48"/>
       <use x="63.623047" xlink:href="#DejaVuSans-46"/>
       <use x="95.410156" xlink:href="#DejaVuSans-56"/>
      </g>
     </g>
    </g>
    <g id="xtick_6">
     <g id="text_6">
      <!-- 1.0 -->
      <g transform="translate(926.002983 655.398438)scale(0.1 -0.1)">
       <defs>
        <path d="M 12.40625 8.296875 
L 28.515625 8.296875 
L 28.515625 63.921875 
L 10.984375 60.40625 
L 10.984375 69.390625 
L 28.421875 72.90625 
L 38.28125 72.90625 
L 38.28125 8.296875 
L 54.390625 8.296875 
L 54.390625 0 
L 12.40625 0 
z
" id="DejaVuSans-49"/>
       </defs>
       <use xlink:href="#DejaVuSans-49"/>
       <use x="63.623047" xlink:href="#DejaVuSans-46"/>
       <use x="95.410156" xlink:href="#DejaVuSans-48"/>
      </g>
     </g>
    </g>
    <g id="text_7">
     <!-- $t$ -->
     <g transform="translate(551.5 669.076563)scale(0.1 -0.1)">
      <defs>
       <path d="M 42.28125 54.6875 
L 40.921875 47.703125 
L 23 47.703125 
L 17.1875 18.015625 
Q 16.890625 16.359375 16.75 15.234375 
Q 16.609375 14.109375 16.609375 13.484375 
Q 16.609375 10.359375 18.484375 8.9375 
Q 20.359375 7.515625 24.515625 7.515625 
L 33.59375 7.515625 
L 32.078125 0 
L 23.484375 0 
Q 15.484375 0 11.546875 3.125 
Q 7.625 6.25 7.625 12.59375 
Q 7.625 13.71875 7.765625 15.0625 
Q 7.90625 16.40625 8.203125 18.015625 
L 14.015625 47.703125 
L 6.390625 47.703125 
L 7.8125 54.6875 
L 15.28125 54.6875 
L 18.3125 70.21875 
L 27.296875 70.21875 
L 24.3125 54.6875 
z
" id="DejaVuSans-Oblique-116"/>
      </defs>
      <use transform="translate(0 0.78125)" xlink:href="#DejaVuSans-Oblique-116"/>
     </g>
    </g>
   </g>
   <g id="matplotlib.axis_2">
    <g id="ytick_1">
     <g id="text_8">
      <!-- 0.14 -->
      <g transform="translate(105.734375 583.489279)scale(0.1 -0.1)">
       <use xlink:href="#DejaVuSans-48"/>
       <use x="63.623047" xlink:href="#DejaVuSans-46"/>
       <use x="95.410156" xlink:href="#DejaVuSans-49"/>
       <use x="159.033203" xlink:href="#DejaVuSans-52"/>
      </g>
     </g>
    </g>
    <g id="ytick_2">
     <g id="text_9">
      <!-- 0.15 -->
      <g transform="translate(105.734375 512.546317)scale(0.1 -0.1)">
       <defs>
        <path d="M 10.796875 72.90625 
L 49.515625 72.90625 
L 49.515625 64.59375 
L 19.828125 64.59375 
L 19.828125 46.734375 
Q 21.96875 47.46875 24.109375 47.828125 
Q 26.265625 48.1875 28.421875 48.1875 
Q 40.625 48.1875 47.75 41.5 
Q 54.890625 34.8125 54.890625 23.390625 
Q 54.890625 11.625 47.5625 5.09375 
Q 40.234375 -1.421875 26.90625 -1.421875 
Q 22.3125 -1.421875 17.546875 -0.640625 
Q 12.796875 0.140625 7.71875 1.703125 
L 7.71875 11.625 
Q 12.109375 9.234375 16.796875 8.0625 
Q 21.484375 6.890625 26.703125 6.890625 
Q 35.15625 6.890625 40.078125 11.328125 
Q 45.015625 15.765625 45.015625 23.390625 
Q 45.015625 31 40.078125 35.4375 
Q 35.15625 39.890625 26.703125 39.890625 
Q 22.75 39.890625 18.8125 39.015625 
Q 14.890625 38.140625 10.796875 36.28125 
z
" id="DejaVuSans-53"/>
       </defs>
       <use xlink:href="#DejaVuSans-48"/>
       <use x="63.623047" xlink:href="#DejaVuSans-46"/>
       <use x="95.410156" xlink:href="#DejaVuSans-49"/>
       <use x="159.033203" xlink:href="#DejaVuSans-53"/>
      </g>
     </g>
    </g>
    <g id="ytick_3">
     <g id="text_10">
      <!-- 0.16 -->
      <g transform="translate(105.734375 441.603355)scale(0.1 -0.1)">
       <use xlink:href="#DejaVuSans-48"/>
       <use x="63.623047" xlink:href="#DejaVuSans-46"/>
       <use x="95.410156" xlink:href="#DejaVuSans-49"/>
       <use x="159.033203" xlink:href="#DejaVuSans-54"/>
      </g>
     </g>
    </g>
    <g id="ytick_4">
     <g id="text_11">
      <!-- 0.17 -->
      <g transform="translate(105.734375 370.660393)scale(0.1 -0.1)">
       <defs>
        <path d="M 8.203125 72.90625 
L 55.078125 72.90625 
L 55.078125 68.703125 
L 28.609375 0 
L 18.3125 0 
L 43.21875 64.59375 
L 8.203125 64.59375 
z
" id="DejaVuSans-55"/>
       </defs>
       <use xlink:href="#DejaVuSans-48"/>
       <use x="63.623047" xlink:href="#DejaVuSans-46"/>
       <use x="95.410156" xlink:href="#DejaVuSans-49"/>
       <use x="159.033203" xlink:href="#DejaVuSans-55"/>
      </g>
     </g>
    </g>
    <g id="ytick_5">
     <g id="text_12">
      <!-- 0.18 -->
      <g transform="translate(105.734375 299.717431)scale(0.1 -0.1)">
       <use xlink:href="#DejaVuSans-48"/>
       <use x="63.623047" xlink:href="#DejaVuSans-46"/>
       <use x="95.410156" xlink:href="#DejaVuSans-49"/>
       <use x="159.033203" xlink:href="#DejaVuSans-56"/>
      </g>
     </g>
    </g>
    <g id="ytick_6">
     <g id="text_13">
      <!-- 0.19 -->
      <g transform="translate(105.734375 228.77447)scale(0.1 -0.1)">
       <defs>
        <path d="M 10.984375 1.515625 
L 10.984375 10.5 
Q 14.703125 8.734375 18.5 7.8125 
Q 22.3125 6.890625 25.984375 6.890625 
Q 35.75 6.890625 40.890625 13.453125 
Q 46.046875 20.015625 46.78125 33.40625 
Q 43.953125 29.203125 39.59375 26.953125 
Q 35.25 24.703125 29.984375 24.703125 
Q 19.046875 24.703125 12.671875 31.3125 
Q 6.296875 37.9375 6.296875 49.421875 
Q 6.296875 60.640625 12.9375 67.421875 
Q 19.578125 74.21875 30.609375 74.21875 
Q 43.265625 74.21875 49.921875 64.515625 
Q 56.59375 54.828125 56.59375 36.375 
Q 56.59375 19.140625 48.40625 8.859375 
Q 40.234375 -1.421875 26.421875 -1.421875 
Q 22.703125 -1.421875 18.890625 -0.6875 
Q 15.09375 0.046875 10.984375 1.515625 
z
M 30.609375 32.421875 
Q 37.25 32.421875 41.125 36.953125 
Q 45.015625 41.5 45.015625 49.421875 
Q 45.015625 57.28125 41.125 61.84375 
Q 37.25 66.40625 30.609375 66.40625 
Q 23.96875 66.40625 20.09375 61.84375 
Q 16.21875 57.28125 16.21875 49.421875 
Q 16.21875 41.5 20.09375 36.953125 
Q 23.96875 32.421875 30.609375 32.421875 
z
" id="DejaVuSans-57"/>
       </defs>
       <use xlink:href="#DejaVuSans-48"/>
       <use x="63.623047" xlink:href="#DejaVuSans-46"/>
       <use x="95.410156" xlink:href="#DejaVuSans-49"/>
       <use x="159.033203" xlink:href="#DejaVuSans-57"/>
      </g>
     </g>
    </g>
    <g id="ytick_7">
     <g id="text_14">
      <!-- 0.20 -->
      <g transform="translate(105.734375 157.831508)scale(0.1 -0.1)">
       <use xlink:href="#DejaVuSans-48"/>
       <use x="63.623047" xlink:href="#DejaVuSans-46"/>
       <use x="95.410156" xlink:href="#DejaVuSans-50"/>
       <use x="159.033203" xlink:href="#DejaVuSans-48"/>
      </g>
     </g>
    </g>
    <g id="text_15">
     <!-- $\xi$ -->
     <g transform="translate(99.634375 366.4)rotate(-90)scale(0.1 -0.1)">
      <defs>
       <path d="M 31.5 6.203125 
Q 37.9375 6.15625 41.0625 2.484375 
Q 44.4375 -1.375 43.3125 -7.234375 
Q 42.1875 -12.84375 37.84375 -16.75 
Q 33.109375 -21 25.140625 -21 
Q 25.875 -17.328125 26.5625 -13.625 
Q 29.890625 -13.875 32.375 -11.71875 
Q 34.28125 -10.015625 34.625 -8.203125 
Q 35.109375 -5.609375 33.984375 -3.46875 
Q 32.8125 -1.421875 30.03125 -1.421875 
Q -0.390625 -1.421875 3.765625 19.921875 
Q 6.59375 34.578125 23.6875 38.875 
Q 10.359375 40.625 12.84375 53.328125 
Q 14.703125 62.9375 26.21875 66.9375 
L 16.0625 66.9375 
L 17.828125 75.984375 
L 56.34375 75.984375 
L 54.59375 66.9375 
Q 23.875 66.9375 21.09375 52.734375 
Q 19.28125 43.40625 45.015625 42.96875 
L 43.40625 34.671875 
Q 15.765625 35.75 12.796875 19.921875 
Q 10.296875 6.6875 31.5 6.203125 
z
" id="DejaVuSans-Oblique-958"/>
      </defs>
      <use transform="translate(0 0.015625)" xlink:href="#DejaVuSans-Oblique-958"/>
     </g>
    </g>
   </g>
   <g id="line2d_1">
    <path clip-path="url(#p420396cf2e)" d="M 173.045455 154.032289 
L 175.135864 154.032289 
L 177.226274 153.887719 
L 179.316683 153.615918 
L 181.407093 153.064042 
L 183.497502 152.75875 
L 185.587912 151.813101 
L 187.678322 151.383169 
L 191.859141 150.223932 
L 193.94955 149.637167 
L 196.03996 149.455391 
L 200.220779 147.903772 
L 202.311189 146.985728 
L 204.401598 146.413398 
L 208.582418 144.614576 
L 212.763237 142.289764 
L 214.853646 141.340595 
L 216.944056 140.058026 
L 219.034466 139.153516 
L 221.124875 138.529271 
L 223.215285 138.058839 
L 225.305694 137.841599 
L 229.486513 137.039089 
L 237.848152 134.328392 
L 239.938561 133.471536 
L 242.028971 132.417275 
L 244.119381 131.106279 
L 248.3002 128.081485 
L 252.481019 124.423549 
L 254.571429 123.236347 
L 258.752248 121.320002 
L 260.842657 120.070696 
L 262.933067 118.587525 
L 267.113886 116.789122 
L 271.294705 114.728449 
L 275.475524 114.046145 
L 281.746753 113.7009 
L 285.927572 112.733689 
L 288.017982 112.158484 
L 290.108392 111.760946 
L 292.198801 111.6 
L 296.37962 111.846047 
L 298.47003 112.221886 
L 300.56044 112.426884 
L 302.650849 112.925279 
L 311.012488 115.400492 
L 313.102897 116.280871 
L 315.193307 117.445528 
L 317.283716 118.970705 
L 319.374126 120.266925 
L 323.554945 122.25164 
L 325.645355 123.227855 
L 329.826174 125.557325 
L 336.097403 128.051522 
L 338.187812 129.017406 
L 344.459041 132.218502 
L 348.63986 134.418002 
L 361.182318 141.492229 
L 367.453546 146.074476 
L 371.634366 148.923641 
L 377.905594 153.209783 
L 382.086414 155.940725 
L 384.176823 157.287278 
L 388.357642 160.405612 
L 390.448052 162.071772 
L 394.628871 165.102394 
L 396.719281 166.730739 
L 402.990509 171.104715 
L 407.171329 173.605665 
L 409.261738 175.011591 
L 415.532967 178.707359 
L 417.623377 179.805127 
L 419.713786 180.611989 
L 423.894605 182.708824 
L 425.985015 183.787965 
L 428.075425 184.730443 
L 430.165834 185.89332 
L 432.256244 187.361103 
L 434.346653 188.537391 
L 436.437063 189.907908 
L 444.798701 196.217388 
L 448.97952 199.249732 
L 453.16034 201.898997 
L 459.431568 206.220723 
L 463.612388 208.907076 
L 471.974026 214.527445 
L 476.154845 217.75389 
L 482.426074 222.813369 
L 488.697303 228.200142 
L 492.878122 231.283508 
L 507.510989 244.240897 
L 511.691808 247.386472 
L 522.143856 255.136228 
L 524.234266 256.803921 
L 526.324675 258.715218 
L 532.595904 263.721435 
L 563.952048 293.514904 
L 572.313686 301.806765 
L 576.494505 306.26923 
L 599.489011 332.492016 
L 603.66983 337.175762 
L 607.850649 341.388413 
L 609.941059 343.350149 
L 614.121878 347.548334 
L 630.845155 363.338968 
L 635.025974 367.557573 
L 639.206793 372.034373 
L 651.749251 385.619326 
L 660.110889 394.439746 
L 666.382118 401.306067 
L 670.562937 405.531329 
L 683.105395 417.093573 
L 687.286214 420.572895 
L 699.828671 431.348081 
L 701.919081 432.805738 
L 710.280719 439.435897 
L 718.642358 446.567684 
L 727.003996 453.178949 
L 739.546454 463.791174 
L 745.817682 469.625183 
L 749.998501 473.406971 
L 754.179321 476.971251 
L 764.631369 486.070704 
L 777.173826 497.071472 
L 787.625874 505.752146 
L 802.258741 517.683032 
L 806.43956 521.055302 
L 812.710789 525.843396 
L 818.982018 530.752142 
L 823.162837 534.013659 
L 829.434066 539.199284 
L 835.705295 545.025307 
L 839.886114 548.897387 
L 846.157343 554.364425 
L 864.971029 570.584055 
L 873.332667 578.154949 
L 877.513487 581.792159 
L 879.603896 583.416488 
L 881.694306 584.848789 
L 892.146354 591.182991 
L 902.598402 597.522427 
L 906.779221 599.943577 
L 917.231269 606.521112 
L 923.502498 610.237406 
L 929.773726 613.620161 
L 933.954545 615.6 
L 933.954545 615.6 
" style="fill:none;stroke:#294ad9;stroke-linecap:square;stroke-width:3;"/>
   </g>
   <g id="line2d_2">
    <path clip-path="url(#p420396cf2e)" d="M 173.045455 154.032289 
L 175.135864 154.032289 
L 177.226274 153.8994 
L 179.316683 153.649788 
L 181.407093 153.144916 
L 183.497502 152.863539 
L 185.587912 152.001264 
L 187.678322 151.605073 
L 191.859141 150.53905 
L 193.94955 149.998594 
L 196.03996 149.826279 
L 200.220779 148.399641 
L 202.311189 147.556944 
L 204.401598 147.026393 
L 208.582418 145.371427 
L 212.763237 143.240296 
L 214.853646 142.365735 
L 216.944056 141.190656 
L 219.034466 140.355159 
L 221.124875 139.772704 
L 223.215285 139.329427 
L 225.305694 139.116589 
L 229.486513 138.353199 
L 237.848152 135.814269 
L 239.938561 135.015726 
L 242.028971 134.038332 
L 244.119381 132.82935 
L 248.3002 130.048473 
L 252.481019 126.699704 
L 254.571429 125.599148 
L 258.752248 123.809306 
L 260.842657 122.651097 
L 262.933067 121.282375 
L 269.204296 118.597395 
L 271.294705 117.668085 
L 275.475524 116.991582 
L 281.746753 116.594575 
L 285.927572 115.652759 
L 288.017982 115.097578 
L 290.108392 114.703982 
L 292.198801 114.52664 
L 296.37962 114.693752 
L 298.47003 115.010933 
L 300.56044 115.169251 
L 304.741259 116.137543 
L 308.922078 117.199544 
L 311.012488 117.768412 
L 313.102897 118.55536 
L 315.193307 119.611042 
L 317.283716 121.011159 
L 319.374126 122.191974 
L 323.554945 123.97587 
L 325.645355 124.85221 
L 329.826174 126.961913 
L 336.097403 129.178037 
L 338.187812 130.043251 
L 344.459041 132.925504 
L 348.63986 134.908408 
L 361.182318 141.30759 
L 367.453546 145.509051 
L 371.634366 148.111814 
L 377.905594 152.027838 
L 382.086414 154.516795 
L 384.176823 155.743003 
L 388.357642 158.605921 
L 390.448052 160.14137 
L 394.628871 162.91971 
L 396.719281 164.418636 
L 402.990509 168.420348 
L 407.171329 170.688209 
L 409.261738 171.971813 
L 415.532967 175.320124 
L 417.623377 176.307356 
L 419.713786 177.017224 
L 423.894605 178.896728 
L 425.985015 179.865713 
L 428.075425 180.704068 
L 430.165834 181.75317 
L 432.256244 183.096545 
L 434.346653 184.158516 
L 436.437063 185.407685 
L 444.798701 191.209006 
L 448.97952 193.991073 
L 453.16034 196.401767 
L 459.431568 200.35529 
L 463.612388 202.802378 
L 471.974026 207.937375 
L 476.154845 210.911453 
L 482.426074 215.589692 
L 488.697303 220.592647 
L 490.787712 221.944632 
L 492.878122 223.429635 
L 507.510989 235.501618 
L 511.691808 238.404106 
L 522.143856 245.551025 
L 524.234266 247.09675 
L 526.324675 248.884561 
L 532.595904 253.527508 
L 563.952048 281.537628 
L 572.313686 289.37426 
L 576.494505 293.618157 
L 597.398601 316.337407 
L 601.579421 321.054281 
L 605.76024 325.281714 
L 616.212288 334.967415 
L 620.393107 338.805172 
L 624.573926 342.420685 
L 632.935564 350.068704 
L 639.206793 356.439868 
L 651.749251 369.511116 
L 660.110889 377.99507 
L 666.382118 384.625497 
L 670.562937 388.685657 
L 683.105395 399.743575 
L 687.286214 403.054665 
L 699.828671 413.333653 
L 701.919081 414.71026 
L 710.280719 421.013543 
L 718.642358 427.824161 
L 727.003996 434.115889 
L 739.546454 444.260641 
L 745.817682 449.874853 
L 749.998501 453.510016 
L 754.179321 456.925564 
L 764.631369 465.662337 
L 777.173826 476.241858 
L 787.625874 484.573068 
L 800.168332 494.258563 
L 804.349151 497.67923 
L 808.52997 500.769308 
L 812.710789 503.848285 
L 818.982018 508.55759 
L 823.162837 511.687401 
L 829.434066 516.682418 
L 835.705295 522.340987 
L 839.886114 526.10384 
L 846.157343 531.399222 
L 864.971029 547.122052 
L 873.332667 554.496984 
L 877.513487 558.034097 
L 879.603896 559.603825 
L 881.694306 560.979632 
L 892.146354 567.032997 
L 902.598402 573.092466 
L 906.779221 575.402583 
L 917.231269 581.702056 
L 923.502498 585.252606 
L 929.773726 588.471832 
L 933.954545 590.345626 
L 933.954545 590.345626 
" style="fill:none;stroke:#0d98df;stroke-linecap:square;stroke-width:3;"/>
   </g>
   <g id="line2d_3">
    <path clip-path="url(#p420396cf2e)" d="M 173.045455 154.032289 
L 175.135864 154.032289 
L 179.316683 153.683812 
L 181.407093 153.225768 
L 183.497502 152.968603 
L 185.587912 152.188899 
L 187.678322 151.826881 
L 191.859141 150.854842 
L 193.94955 150.361264 
L 196.03996 150.199483 
L 200.220779 148.898939 
L 202.311189 148.131997 
L 204.401598 147.644468 
L 208.582418 146.134955 
L 212.763237 144.198145 
L 214.853646 143.399336 
L 216.944056 142.332026 
L 219.034466 141.567058 
L 221.124875 141.028542 
L 223.215285 140.614848 
L 225.305694 140.409025 
L 229.486513 139.690248 
L 237.848152 137.334515 
L 239.938561 136.597192 
L 242.028971 135.699302 
L 244.119381 134.594412 
L 248.3002 132.060661 
L 252.481019 129.022246 
L 254.571429 128.011407 
L 258.752248 126.355585 
L 260.842657 125.291785 
L 262.933067 124.040263 
L 269.204296 121.549929 
L 271.294705 120.688057 
L 275.475524 120.027241 
L 281.746753 119.593352 
L 285.927572 118.687924 
L 288.017982 118.15843 
L 290.108392 117.774483 
L 292.198801 117.586297 
L 296.37962 117.684685 
L 298.47003 117.947672 
L 300.56044 118.06437 
L 304.741259 118.896759 
L 308.922078 119.814593 
L 311.012488 120.30811 
L 313.102897 121.004157 
L 315.193307 121.951713 
L 317.283716 123.225052 
L 319.374126 124.290403 
L 323.554945 125.877304 
L 325.645355 126.655805 
L 329.826174 128.547462 
L 336.097403 130.494392 
L 338.187812 131.261152 
L 344.459041 133.829329 
L 348.63986 135.598404 
L 361.182318 141.327475 
L 367.453546 145.142316 
L 373.724775 148.710449 
L 382.086414 153.283983 
L 384.176823 154.3892 
L 388.357642 156.991741 
L 390.448052 158.392991 
L 394.628871 160.914668 
L 398.80969 163.515113 
L 402.990509 165.904997 
L 407.171329 167.939553 
L 411.352148 170.132875 
L 413.442557 171.215666 
L 417.623377 172.97792 
L 419.713786 173.59397 
L 423.894605 175.258973 
L 425.985015 176.118973 
L 428.075425 176.855415 
L 430.165834 177.791224 
L 432.256244 179.008003 
L 434.346653 179.955983 
L 436.437063 181.082449 
L 444.798701 186.362201 
L 448.97952 188.88822 
L 453.16034 191.057958 
L 459.431568 194.636329 
L 463.612388 196.841154 
L 471.974026 201.482176 
L 476.154845 204.195384 
L 482.426074 208.477096 
L 488.697303 213.077151 
L 490.787712 214.304116 
L 492.878122 215.659946 
L 507.510989 226.795382 
L 511.691808 229.445373 
L 522.143856 235.966389 
L 524.234266 237.384232 
L 526.324675 239.040044 
L 532.595904 243.301459 
L 561.861638 267.591006 
L 570.223277 274.81216 
L 574.404096 278.642214 
L 578.584915 282.86071 
L 582.765734 287.097815 
L 589.036963 293.460052 
L 601.579421 306.779135 
L 605.76024 310.781533 
L 616.212288 319.905196 
L 620.393107 323.520852 
L 624.573926 326.915718 
L 632.935564 334.127619 
L 637.116384 338.089703 
L 651.749251 352.65417 
L 660.110889 360.744157 
L 666.382118 367.093609 
L 670.562937 370.961009 
L 683.105395 381.439515 
L 687.286214 384.560033 
L 699.828671 394.273114 
L 701.919081 395.559483 
L 710.280719 401.493353 
L 718.642358 407.936459 
L 727.003996 413.866019 
L 739.546454 423.474047 
L 743.727273 426.993041 
L 747.908092 430.597369 
L 752.088911 433.870087 
L 781.354645 457.130366 
L 791.806693 464.898634 
L 800.168332 471.064725 
L 804.349151 474.329571 
L 808.52997 477.262474 
L 812.710789 480.185365 
L 818.982018 484.662463 
L 823.162837 487.638789 
L 829.434066 492.408567 
L 835.705295 497.861102 
L 839.886114 501.48908 
L 846.157343 506.576251 
L 862.880619 519.929918 
L 877.513487 532.235768 
L 879.603896 533.739838 
L 881.694306 535.049197 
L 892.146354 540.776874 
L 902.598402 546.511855 
L 906.779221 548.693885 
L 917.231269 554.669801 
L 923.502498 558.028792 
L 929.773726 561.060742 
L 933.954545 562.814336 
L 933.954545 562.814336 
" style="fill:none;stroke:#11e4c6;stroke-linecap:square;stroke-width:3;"/>
   </g>
   <g id="line2d_4">
    <path clip-path="url(#p420396cf2e)" d="M 173.045455 154.032289 
L 175.135864 154.032289 
L 179.316683 153.700882 
L 181.407093 153.266184 
L 183.497502 153.021236 
L 185.587912 152.282513 
L 187.678322 151.937738 
L 193.94955 150.54303 
L 196.03996 150.386917 
L 200.220779 149.149804 
L 202.311189 148.420875 
L 204.401598 147.955308 
L 208.582418 146.519072 
L 212.763237 144.6796 
L 214.853646 143.919066 
L 216.944056 142.905707 
L 219.034466 142.176539 
L 221.124875 141.660773 
L 223.215285 141.262761 
L 225.305694 141.061416 
L 229.486513 140.366971 
L 237.848152 138.106987 
L 239.938561 137.401318 
L 242.028971 136.544109 
L 244.119381 135.491972 
L 248.3002 133.082819 
L 252.481019 130.199826 
L 254.571429 129.23492 
L 258.752248 127.648796 
L 260.842657 126.633355 
L 262.933067 125.441361 
L 269.204296 123.052949 
L 271.294705 122.226396 
L 275.475524 121.577101 
L 281.746753 121.130374 
L 285.927572 120.247204 
L 288.017982 119.732636 
L 290.108392 119.355634 
L 292.198801 119.164114 
L 296.37962 119.232045 
L 298.47003 119.469673 
L 300.56044 119.567508 
L 304.741259 120.335042 
L 308.922078 121.18381 
L 311.012488 121.641123 
L 313.102897 122.292781 
L 315.193307 123.186718 
L 317.283716 124.396137 
L 319.374126 125.403861 
L 323.554945 126.893956 
L 325.645355 127.624432 
L 329.826174 129.407989 
L 336.097403 131.224054 
L 338.187812 131.942562 
L 344.459041 134.355943 
L 348.63986 136.019456 
L 361.182318 141.416313 
L 367.453546 145.036125 
L 373.724775 148.415872 
L 382.086414 152.743136 
L 384.176823 153.787803 
L 388.357642 156.258629 
L 390.448052 157.591626 
L 394.628871 159.983684 
L 398.80969 162.452637 
L 402.990509 164.716353 
L 407.171329 166.634594 
L 411.352148 168.706998 
L 413.442557 169.729652 
L 417.623377 171.383473 
L 419.713786 171.954033 
L 423.894605 173.513312 
L 425.985015 174.319493 
L 428.075425 175.006046 
L 430.165834 175.885624 
L 432.256244 177.038493 
L 434.346653 177.92984 
L 436.437063 178.99467 
L 446.889111 185.248435 
L 448.97952 186.405643 
L 453.16034 188.454484 
L 459.431568 191.843352 
L 463.612388 193.926407 
L 471.974026 198.318163 
L 476.154845 200.898148 
L 482.426074 204.976409 
L 488.697303 209.368303 
L 492.878122 211.821507 
L 507.510989 222.470348 
L 511.691808 224.990977 
L 522.143856 231.191465 
L 524.234266 232.543327 
L 526.324675 234.13003 
L 532.595904 238.194357 
L 561.861638 261.529476 
L 570.223277 268.482587 
L 574.404096 272.17926 
L 578.584915 276.266374 
L 582.765734 280.373629 
L 589.036963 286.543377 
L 601.579421 299.492505 
L 605.76024 303.371487 
L 616.212288 312.190156 
L 620.393107 315.685209 
L 624.573926 318.96102 
L 632.935564 325.935594 
L 637.116384 329.780837 
L 651.749251 343.951295 
L 660.110889 351.820987 
L 666.382118 358.011408 
L 670.562937 361.771259 
L 683.105395 371.930286 
L 687.286214 374.94684 
L 699.828671 384.34959 
L 701.919081 385.587393 
L 710.280719 391.320079 
L 718.642358 397.561123 
L 727.003996 403.292988 
L 739.546454 412.605156 
L 743.727273 416.027094 
L 747.908092 419.535661 
L 752.088911 422.712568 
L 781.354645 445.321329 
L 791.806693 452.864252 
L 800.168332 458.852561 
L 804.349151 462.029811 
L 808.52997 464.875495 
L 812.710789 467.711737 
L 818.982018 472.059499 
L 823.162837 474.950277 
L 829.434066 479.593234 
L 835.705295 484.926446 
L 839.886114 488.476126 
L 846.157343 493.443897 
L 862.880619 506.48646 
L 877.513487 518.538615 
L 879.603896 520.005269 
L 881.694306 521.277375 
L 892.146354 526.824437 
L 902.598402 532.379481 
L 906.779221 534.490732 
L 917.231269 540.28659 
L 923.502498 543.539519 
L 929.773726 546.468519 
L 933.954545 548.156589 
L 933.954545 548.156589 
" style="fill:none;stroke:#0ce359;stroke-linecap:square;stroke-width:3;"/>
   </g>
   <g id="line2d_5">
    <path clip-path="url(#p420396cf2e)" d="M 173.045455 154.032289 
L 177.226274 153.928894 
L 179.316683 153.735136 
L 181.407093 153.346997 
L 183.497502 153.126695 
L 185.587912 152.469322 
L 187.678322 152.159338 
L 193.94955 150.907358 
L 196.03996 150.763371 
L 200.220779 149.653833 
L 202.311189 149.001159 
L 204.401598 148.580388 
L 208.582418 147.291716 
L 212.763237 145.647153 
L 214.853646 144.963902 
L 216.944056 144.0585 
L 219.034466 143.401936 
L 223.215285 142.56827 
L 225.305694 142.377807 
L 229.486513 141.736 
L 237.848152 139.675529 
L 239.938561 139.035158 
L 242.028971 138.261054 
L 244.119381 137.31569 
L 248.3002 135.157467 
L 252.481019 132.585416 
L 254.571429 131.714369 
L 258.752248 130.272753 
L 260.842657 129.356163 
L 262.933067 128.284871 
L 269.204296 126.109065 
L 271.294705 125.356191 
L 275.475524 124.737212 
L 281.746753 124.276022 
L 285.927572 123.445353 
L 288.017982 122.964715 
L 290.108392 122.605788 
L 292.198801 122.411774 
L 296.37962 122.426727 
L 298.47003 122.617229 
L 300.56044 122.681317 
L 304.741259 123.325654 
L 308.922078 124.042673 
L 311.012488 124.430708 
L 313.102897 124.995936 
L 315.193307 125.783771 
L 317.283716 126.864528 
L 319.374126 127.757468 
L 323.554945 129.057846 
L 325.645355 129.694324 
L 329.826174 131.264082 
L 336.097403 132.826669 
L 340.278222 134.185706 
L 350.73027 137.799572 
L 354.911089 139.301848 
L 359.091908 140.830289 
L 361.182318 141.755944 
L 367.453546 144.983256 
L 373.724775 147.985442 
L 386.267233 153.823205 
L 398.80969 160.478176 
L 402.990509 162.488602 
L 407.171329 164.175761 
L 411.352148 166.006727 
L 413.442557 166.909399 
L 417.623377 168.34969 
L 419.713786 168.83256 
L 428.075425 171.474145 
L 430.165834 172.242579 
L 432.256244 173.266855 
L 434.346653 174.046149 
L 436.437063 174.987612 
L 446.889111 180.571188 
L 448.97952 181.599648 
L 453.16034 183.406867 
L 459.431568 186.41434 
L 463.612388 188.253608 
L 471.974026 192.144322 
L 476.154845 194.453182 
L 482.426074 198.115418 
L 488.697303 202.078641 
L 492.878122 204.268649 
L 507.510989 213.909828 
L 511.691808 216.166461 
L 522.143856 221.713184 
L 524.234266 222.929433 
L 526.324675 224.371935 
L 532.595904 228.030703 
L 557.680819 246.225919 
L 572.313686 257.432522 
L 574.404096 259.14976 
L 578.584915 262.950598 
L 582.765734 266.774223 
L 589.036963 272.522646 
L 603.66983 286.523873 
L 607.850649 289.918434 
L 609.941059 291.473467 
L 614.121878 294.862748 
L 628.754745 305.814847 
L 635.025974 310.914449 
L 639.206793 314.633801 
L 651.749251 326.015614 
L 660.110889 333.394673 
L 666.382118 339.226637 
L 670.562937 342.747519 
L 683.105395 352.205203 
L 687.286214 354.996045 
L 699.828671 363.721381 
L 701.919081 364.855265 
L 710.280719 370.151948 
L 718.642358 375.950702 
L 727.003996 381.253085 
L 739.546454 389.915902 
L 743.727273 393.121655 
L 747.908092 396.415809 
L 752.088911 399.380936 
L 772.993007 414.628591 
L 777.173826 417.639747 
L 787.625874 424.833513 
L 800.168332 433.178327 
L 804.349151 436.159463 
L 808.52997 438.812448 
L 812.710789 441.457164 
L 818.982018 445.518076 
L 823.162837 448.21898 
L 827.343656 451.129105 
L 829.434066 452.577531 
L 835.705295 457.635653 
L 839.886114 461.00441 
L 846.157343 465.699561 
L 862.880619 478.030874 
L 877.513487 489.492375 
L 879.603896 490.874155 
L 881.694306 492.06316 
L 892.146354 497.211997 
L 902.598402 502.370214 
L 906.779221 504.325953 
L 917.231269 509.723054 
L 923.502498 512.742351 
L 929.773726 515.446328 
L 933.954545 516.992515 
L 933.954545 516.992515 
" style="fill:none;stroke:#36bc14;stroke-linecap:square;stroke-width:3;"/>
   </g>
   <g id="line2d_6">
    <path clip-path="url(#p420396cf2e)" d="M 173.045455 154.032289 
L 177.226274 153.934843 
L 179.316683 153.75232 
L 181.407093 153.387392 
L 183.497502 153.179519 
L 185.587912 152.562512 
L 187.678322 152.270072 
L 193.94955 151.089892 
L 196.03996 150.952362 
L 200.220779 149.906941 
L 202.311189 149.292495 
L 204.401598 148.894545 
L 208.582418 147.680121 
L 212.763237 146.133082 
L 214.853646 145.488814 
L 216.944056 144.637389 
L 219.034466 144.017601 
L 223.215285 143.225577 
L 225.305694 143.041509 
L 229.486513 142.427978 
L 237.848152 140.471154 
L 239.938561 139.864388 
L 242.028971 139.13266 
L 244.119381 138.241257 
L 248.3002 136.209234 
L 252.481019 133.792552 
L 254.571429 132.969367 
L 258.752248 131.602449 
L 260.842657 130.73628 
L 262.933067 129.726081 
L 269.204296 127.660776 
L 271.294705 126.946197 
L 275.475524 126.345974 
L 281.746753 125.883154 
L 285.927572 125.082663 
L 288.017982 124.620987 
L 290.108392 124.273164 
L 292.198801 124.079984 
L 296.37962 124.072455 
L 298.47003 124.241235 
L 300.56044 124.290468 
L 304.741259 124.876581 
L 308.922078 125.531052 
L 311.012488 125.886083 
L 313.102897 126.409359 
L 315.193307 127.144812 
L 317.283716 128.160925 
L 319.374126 128.996813 
L 323.554945 130.204483 
L 325.645355 130.795092 
L 329.826174 132.259375 
L 336.097403 133.699656 
L 340.278222 134.961766 
L 350.73027 138.322091 
L 354.911089 139.719924 
L 359.091908 141.142461 
L 361.182318 142.008312 
L 369.543956 145.940336 
L 377.905594 149.682868 
L 384.176823 152.305034 
L 388.357642 154.376363 
L 390.448052 155.500804 
L 402.990509 161.454121 
L 407.171329 163.026867 
L 411.352148 164.737671 
L 413.442557 165.58068 
L 417.623377 166.916248 
L 419.713786 167.357095 
L 428.075425 169.798449 
L 430.165834 170.512167 
L 432.256244 171.471948 
L 434.346653 172.196024 
L 436.437063 173.075954 
L 446.889111 178.321169 
L 448.97952 179.284974 
L 453.16034 180.971889 
L 459.431568 183.788089 
L 463.612388 185.505771 
L 471.974026 189.145572 
L 476.154845 191.316922 
L 482.426074 194.767142 
L 488.697303 198.510343 
L 492.878122 200.567169 
L 507.510989 209.688315 
L 511.691808 211.810735 
L 522.143856 217.025301 
L 524.234266 218.17211 
L 526.324675 219.539643 
L 532.595904 222.990517 
L 557.680819 240.281574 
L 572.313686 250.959838 
L 574.404096 252.600651 
L 578.584915 256.246219 
L 582.765734 259.915648 
L 589.036963 265.43457 
L 603.66983 278.909855 
L 607.850649 282.160071 
L 609.941059 283.644991 
L 614.121878 286.891061 
L 628.754745 297.358387 
L 635.025974 302.248123 
L 639.206793 305.826734 
L 651.749251 316.792616 
L 660.110889 323.900026 
L 666.382118 329.531243 
L 670.562937 332.920128 
L 683.105395 341.994978 
L 687.286214 344.663975 
L 699.828671 353.021629 
L 701.919081 354.100245 
L 710.280719 359.161989 
L 718.642358 364.720023 
L 727.003996 369.790415 
L 739.546454 378.098876 
L 743.727273 381.184941 
L 747.908092 384.359788 
L 752.088911 387.208544 
L 772.993007 401.879762 
L 777.173826 404.777856 
L 787.625874 411.693997 
L 800.168332 419.712618 
L 804.349151 422.584651 
L 808.52997 425.131818 
L 812.710789 427.671312 
L 818.982018 431.574104 
L 823.162837 434.170268 
L 827.343656 436.974593 
L 829.434066 438.370347 
L 835.705295 443.271132 
L 839.886114 446.536198 
L 846.157343 451.076836 
L 862.880619 463.004554 
L 877.513487 474.125195 
L 879.603896 475.459179 
L 881.694306 476.602153 
L 892.146354 481.532991 
L 902.598402 486.473887 
L 906.779221 488.344777 
L 917.231269 493.522525 
L 923.502498 496.413988 
L 929.773726 498.995821 
L 933.954545 500.465754 
L 933.954545 500.465754 
" style="fill:none;stroke:#abd800;stroke-linecap:square;stroke-width:3;"/>
   </g>
   <g id="line2d_7">
    <path clip-path="url(#p420396cf2e)" d="M 173.045455 154.032289 
L 177.226274 153.940808 
L 179.316683 153.769542 
L 181.407093 153.427779 
L 183.497502 153.232405 
L 185.587912 152.655556 
L 187.678322 152.380757 
L 193.94955 151.272655 
L 196.03996 151.141842 
L 200.220779 150.160742 
L 202.311189 149.584581 
L 204.401598 149.209725 
L 208.582418 148.069835 
L 212.763237 146.620334 
L 214.853646 146.015262 
L 216.944056 145.217792 
L 219.034466 144.635078 
L 223.215285 143.885727 
L 227.396104 143.424456 
L 229.486513 143.12471 
L 237.848152 141.274047 
L 239.938561 140.701497 
L 242.028971 140.012661 
L 246.20979 138.21957 
L 248.3002 137.270147 
L 252.481019 135.008663 
L 254.571429 134.233921 
L 258.752248 132.943257 
L 260.842657 132.128124 
L 262.933067 131.179456 
L 269.204296 129.227328 
L 271.294705 128.551969 
L 275.475524 127.972871 
L 281.746753 127.512144 
L 285.927572 126.744401 
L 290.108392 125.967628 
L 292.198801 125.776664 
L 296.37962 125.749348 
L 298.47003 125.897658 
L 300.56044 125.933398 
L 306.831668 126.724862 
L 311.012488 127.381 
L 313.102897 127.863223 
L 315.193307 128.546806 
L 317.283716 129.498136 
L 319.374126 130.27727 
L 331.916583 133.729647 
L 334.006993 134.117885 
L 338.187812 135.153732 
L 344.459041 136.967121 
L 348.63986 138.220354 
L 361.182318 142.316708 
L 369.543956 145.990204 
L 377.905594 149.481698 
L 384.176823 151.923232 
L 388.357642 153.860457 
L 390.448052 154.914359 
L 402.990509 160.475658 
L 407.171329 161.934986 
L 411.352148 163.526243 
L 413.442557 164.309932 
L 417.623377 165.542386 
L 419.713786 165.942541 
L 428.075425 168.187495 
L 430.165834 168.847199 
L 432.256244 169.742485 
L 434.346653 170.412016 
L 436.437063 171.230649 
L 446.889111 176.135976 
L 448.97952 177.035078 
L 453.16034 178.602315 
L 459.431568 181.227287 
L 463.612388 182.823886 
L 471.974026 186.21311 
L 478.245255 189.300855 
L 482.426074 191.481862 
L 488.697303 195.001613 
L 492.878122 196.924501 
L 507.510989 205.515593 
L 511.691808 207.502622 
L 522.143856 212.382287 
L 524.234266 213.458709 
L 526.324675 214.749459 
L 532.595904 217.989453 
L 557.680819 234.349335 
L 572.313686 244.479987 
L 574.404096 246.041059 
L 578.584915 249.523049 
L 582.765734 253.02978 
L 589.036963 258.306238 
L 603.66983 271.22194 
L 607.850649 274.320624 
L 609.941059 275.732399 
L 614.121878 278.828001 
L 628.754745 288.788443 
L 635.025974 293.45696 
L 639.206793 296.88583 
L 653.83966 309.092673 
L 660.110889 314.224756 
L 666.382118 319.640014 
L 670.562937 322.8882 
L 683.105395 331.558243 
L 687.286214 334.099381 
L 699.828671 342.069761 
L 701.919081 343.090985 
L 710.280719 347.906511 
L 718.642358 353.210532 
L 727.003996 358.037393 
L 739.546454 365.97126 
L 743.727273 368.929561 
L 747.908092 371.976623 
L 752.088911 374.70179 
L 772.993007 388.758261 
L 777.173826 391.535666 
L 787.625874 398.156258 
L 800.168332 405.828028 
L 804.349151 408.583233 
L 808.52997 411.018084 
L 812.710789 413.445863 
L 818.982018 417.180391 
L 823.162837 419.665042 
L 827.343656 422.355961 
L 829.434066 423.695253 
L 835.705295 428.424457 
L 839.886114 431.576294 
L 846.157343 435.949438 
L 862.880619 447.439321 
L 877.513487 458.186102 
L 879.603896 459.468506 
L 881.694306 460.562357 
L 892.146354 465.26248 
L 902.598402 469.973288 
L 906.779221 471.75458 
L 919.321678 477.644194 
L 923.502498 479.455524 
L 929.773726 481.908833 
L 933.954545 483.299101 
L 933.954545 483.299101 
" style="fill:none;stroke:#f3e80b;stroke-linecap:square;stroke-width:3;"/>
   </g>
   <g id="line2d_8">
    <path clip-path="url(#p420396cf2e)" d="M 173.045455 154.032289 
L 177.226274 153.952789 
L 179.316683 153.804098 
L 181.407093 153.508526 
L 183.497502 153.338357 
L 185.587912 152.841198 
L 189.768731 152.258084 
L 193.94955 151.638811 
L 196.03996 151.522206 
L 200.220779 150.670312 
L 202.311189 150.170861 
L 204.401598 149.84299 
L 208.582418 148.852952 
L 212.763237 147.598476 
L 214.853646 147.07238 
L 216.944056 146.382702 
L 219.034466 145.874977 
L 223.215285 145.213982 
L 227.396104 144.799143 
L 229.486513 144.531773 
L 237.848152 142.90073 
L 242.028971 141.796762 
L 246.20979 140.240954 
L 248.3002 139.417944 
L 252.481019 137.466062 
L 254.571429 136.789818 
L 258.752248 135.656097 
L 265.023477 133.569537 
L 269.204296 132.402164 
L 271.294705 131.807886 
L 275.475524 131.278038 
L 281.746753 130.832612 
L 285.927572 130.137917 
L 290.108392 129.434411 
L 292.198801 129.251995 
L 296.37962 129.193232 
L 304.741259 129.742925 
L 308.922078 130.223787 
L 311.012488 130.486755 
L 313.102897 130.889733 
L 315.193307 131.471315 
L 317.283716 132.292869 
L 319.374126 132.959605 
L 331.916583 135.867576 
L 336.097403 136.604847 
L 340.278222 137.586156 
L 350.73027 140.209018 
L 357.001499 141.852609 
L 359.091908 142.415773 
L 361.182318 143.104335 
L 369.543956 146.261839 
L 377.905594 149.253898 
L 384.176823 151.33765 
L 388.357642 153.006232 
L 392.538462 154.713483 
L 402.990509 158.696035 
L 407.171329 159.932236 
L 411.352148 161.286991 
L 413.442557 161.953451 
L 417.623377 162.98525 
L 419.713786 163.308348 
L 428.075425 165.173504 
L 430.165834 165.727695 
L 432.256244 166.494392 
L 434.346653 167.057267 
L 436.437063 167.754433 
L 446.889111 171.977453 
L 448.97952 172.747439 
L 453.16034 174.078083 
L 459.431568 176.322074 
L 463.612388 177.678934 
L 471.974026 180.569875 
L 478.245255 183.235579 
L 482.426074 185.125315 
L 488.697303 188.189083 
L 492.878122 189.842778 
L 507.510989 197.346362 
L 511.691808 199.060054 
L 522.143856 203.264183 
L 524.234266 204.197461 
L 526.324675 205.329545 
L 532.595904 208.140229 
L 557.680819 222.560027 
L 572.313686 231.538817 
L 574.404096 232.930473 
L 578.584915 236.059835 
L 582.765734 239.215037 
L 589.036963 243.966646 
L 603.66983 255.658268 
L 607.850649 258.432149 
L 609.941059 259.688635 
L 614.121878 262.46132 
L 628.754745 271.341986 
L 635.025974 275.53346 
L 639.206793 278.634861 
L 653.83966 289.704646 
L 660.110889 294.358696 
L 666.382118 299.293877 
L 670.562937 302.233602 
L 683.105395 310.026973 
L 687.286214 312.294466 
L 699.828671 319.431224 
L 701.919081 320.331635 
L 710.280719 324.621303 
L 718.642358 329.377031 
L 727.003996 333.682469 
L 739.546454 340.805591 
L 743.727273 343.483238 
L 747.908092 346.248182 
L 752.088911 348.703982 
L 770.902597 360.120212 
L 777.173826 363.924495 
L 787.625874 369.898709 
L 800.168332 376.813256 
L 804.349151 379.310684 
L 808.52997 381.501039 
L 812.710789 383.685517 
L 818.982018 387.052307 
L 823.162837 389.293073 
L 827.343656 391.733393 
L 829.434066 392.947913 
L 835.705295 397.288098 
L 839.886114 400.18273 
L 846.157343 404.179522 
L 862.880619 414.684512 
L 877.513487 424.576636 
L 879.603896 425.743944 
L 881.694306 426.730067 
L 892.146354 430.930761 
L 902.598402 435.143153 
L 906.779221 436.731163 
L 919.321678 442.014384 
L 923.502498 443.631916 
L 929.773726 445.809506 
L 933.954545 447.030863 
L 933.954545 447.030863 
" style="fill:none;stroke:#e89000;stroke-linecap:square;stroke-width:3;"/>
   </g>
   <g id="line2d_9">
    <path clip-path="url(#p420396cf2e)" d="M 173.045455 154.032289 
L 177.226274 153.958804 
L 179.316683 153.821431 
L 181.407093 153.548885 
L 183.497502 153.391421 
L 185.587912 152.933792 
L 189.768731 152.394923 
L 193.94955 151.822177 
L 196.03996 151.713061 
L 200.220779 150.926026 
L 202.311189 150.464986 
L 204.401598 150.160992 
L 208.582418 149.246235 
L 216.944056 146.96699 
L 219.034466 146.497151 
L 223.215285 145.881799 
L 227.396104 145.492013 
L 229.486513 145.241769 
L 237.848152 143.724059 
L 242.028971 142.700314 
L 246.20979 141.263696 
L 248.3002 140.504097 
L 252.481019 138.706474 
L 256.661838 137.564576 
L 258.752248 137.027076 
L 265.023477 135.094234 
L 269.204296 134.009048 
L 271.294705 133.456561 
L 275.475524 132.954782 
L 283.837163 132.216853 
L 290.108392 131.204992 
L 292.198801 131.02889 
L 296.37962 130.958484 
L 304.741259 131.433608 
L 311.012488 132.09617 
L 313.102897 132.461038 
L 315.193307 132.992588 
L 317.283716 133.749256 
L 319.374126 134.360454 
L 331.916583 137.004266 
L 336.097403 137.668319 
L 340.278222 138.559732 
L 350.73027 140.945514 
L 357.001499 142.441557 
L 359.091908 142.954425 
L 361.182318 143.584843 
L 369.543956 146.485488 
L 377.905594 149.229789 
L 384.176823 151.136887 
L 388.357642 152.671267 
L 392.538462 154.242143 
L 402.990509 157.899468 
L 407.171329 159.026327 
L 411.352148 160.264505 
L 413.442557 160.873246 
L 417.623377 161.807876 
L 419.713786 162.094771 
L 428.075425 163.777275 
L 430.165834 164.280165 
L 432.256244 164.982978 
L 434.346653 165.493946 
L 436.437063 166.131154 
L 446.889111 170.012824 
L 448.97952 170.718618 
L 453.16034 171.932798 
L 459.431568 173.987726 
L 463.612388 175.226395 
L 471.974026 177.870586 
L 478.245255 180.324117 
L 482.426074 182.066691 
L 490.787712 185.609623 
L 492.878122 186.417518 
L 507.510989 193.365113 
L 511.691808 194.941372 
L 522.143856 198.806185 
L 524.234266 199.666957 
L 526.324675 200.717355 
L 532.595904 203.310369 
L 557.680819 216.723235 
L 572.313686 225.098577 
L 574.404096 226.400597 
L 578.584915 229.340697 
L 582.765734 232.30681 
L 589.036963 236.775603 
L 603.66983 247.800895 
L 607.850649 250.401483 
L 609.941059 251.575907 
L 614.121878 254.176104 
L 628.754745 262.484294 
L 635.025974 266.419771 
L 639.206793 269.343008 
L 653.83966 279.790868 
L 660.110889 284.183369 
L 666.382118 288.853228 
L 670.562937 291.624771 
L 683.105395 298.945932 
L 687.286214 301.067778 
L 699.828671 307.758277 
L 701.919081 308.595478 
L 710.280719 312.605878 
L 718.642358 317.067299 
L 727.003996 321.095144 
L 739.546454 327.781944 
L 743.727273 330.306319 
L 747.908092 332.916436 
L 752.088911 335.226271 
L 770.902597 345.980907 
L 777.173826 349.566961 
L 787.625874 355.189784 
L 800.168332 361.69344 
L 804.349151 364.049516 
L 808.52997 366.10759 
L 812.710789 368.160376 
L 818.982018 371.327428 
L 823.162837 373.435633 
L 827.343656 375.73835 
L 829.434066 376.884357 
L 835.705295 381.005587 
L 839.886114 383.755198 
L 846.157343 387.541992 
L 862.880619 397.496869 
L 877.513487 406.904277 
L 879.603896 408.007816 
L 881.694306 408.93527 
L 892.146354 412.867587 
L 902.598402 416.811937 
L 906.779221 418.296448 
L 919.321678 423.251977 
L 923.502498 424.765473 
L 929.773726 426.796266 
L 933.954545 427.928811 
L 933.954545 427.928811 
" style="fill:none;stroke:#e4602b;stroke-linecap:square;stroke-width:3;"/>
   </g>
   <g id="line2d_10">
    <path clip-path="url(#p420396cf2e)" d="M 173.045455 154.032289 
L 177.226274 153.970885 
L 179.316683 153.85621 
L 198.13037 151.783847 
L 208.582418 150.035953 
L 216.944056 148.13869 
L 221.124875 147.455814 
L 225.305694 147.091459 
L 229.486513 146.673853 
L 239.938561 144.996524 
L 244.119381 143.967666 
L 248.3002 142.699077 
L 252.481019 141.208545 
L 256.661838 140.248595 
L 260.842657 139.243543 
L 262.933067 138.6077 
L 271.294705 136.791664 
L 277.565934 136.210189 
L 281.746753 135.95776 
L 292.198801 134.656657 
L 296.37962 134.571135 
L 304.741259 134.912874 
L 311.012488 135.424318 
L 313.102897 135.716184 
L 315.193307 136.149852 
L 317.283716 136.777026 
L 319.374126 137.278746 
L 331.916583 139.411797 
L 336.097403 139.936904 
L 340.278222 140.654737 
L 350.73027 142.581268 
L 361.182318 144.722105 
L 369.543956 147.112859 
L 377.905594 149.367182 
L 384.176823 150.926688 
L 394.628871 154.106546 
L 398.80969 155.371942 
L 402.990509 156.504143 
L 407.171329 157.417679 
L 411.352148 158.427005 
L 413.442557 158.922586 
L 417.623377 159.670098 
L 421.804196 160.214818 
L 430.165834 161.626836 
L 432.256244 162.20324 
L 436.437063 163.133125 
L 446.889111 166.334475 
L 451.06993 167.382734 
L 457.341159 169.010012 
L 461.521978 170.049742 
L 471.974026 172.745418 
L 478.245255 174.774141 
L 484.516484 176.983173 
L 488.697303 178.582666 
L 492.878122 179.833087 
L 507.510989 185.64829 
L 511.691808 186.949516 
L 522.143856 190.136075 
L 524.234266 190.850644 
L 526.324675 191.73353 
L 532.595904 193.887223 
L 557.680819 205.218387 
L 572.313686 212.334464 
L 576.494505 214.68251 
L 593.217782 225.137498 
L 603.66983 231.985368 
L 607.850649 234.21775 
L 609.941059 235.219532 
L 614.121878 237.452821 
L 628.754745 244.552719 
L 635.025974 247.941153 
L 639.206793 250.478312 
L 653.83966 259.571328 
L 660.110889 263.393935 
L 666.382118 267.479786 
L 670.562937 269.886225 
L 683.105395 276.1951 
L 687.286214 278.008612 
L 699.828671 283.748706 
L 701.919081 284.454535 
L 710.280719 287.875193 
L 718.642358 291.708148 
L 727.003996 295.148346 
L 739.546454 300.900998 
L 743.727273 303.092239 
L 747.908092 305.364158 
L 754.179321 308.383479 
L 764.631369 313.507693 
L 779.264236 320.780427 
L 791.806693 326.497718 
L 800.168332 330.270684 
L 804.349151 332.318385 
L 808.52997 334.091877 
L 812.710789 335.861223 
L 829.434066 343.417001 
L 835.705295 347.04784 
L 839.886114 349.472097 
L 846.157343 352.792702 
L 862.880619 361.525185 
L 877.513487 369.838982 
L 879.603896 370.802027 
L 881.694306 371.602539 
L 894.236763 375.647431 
L 902.598402 378.334635 
L 906.779221 379.599239 
L 919.321678 383.851566 
L 925.592907 385.723441 
L 933.954545 387.811913 
L 933.954545 387.811913 
" style="fill:none;stroke:#d73333;stroke-linecap:square;stroke-width:3;"/>
   </g>
   <g id="line2d_11">
    <path clip-path="url(#p420396cf2e)" d="M 173.045455 154.032289 
L 177.226274 153.983033 
L 183.497502 153.604234 
L 185.587912 153.302601 
L 191.859141 152.759264 
L 193.94955 152.557246 
L 196.03996 152.480603 
L 206.492008 151.14163 
L 210.672827 150.441918 
L 219.034466 148.997857 
L 223.215285 148.57434 
L 227.396104 148.296647 
L 231.576923 147.866391 
L 242.028971 146.384731 
L 246.20979 145.427169 
L 250.390609 144.315731 
L 252.481019 143.736055 
L 256.661838 142.962043 
L 260.842657 142.152123 
L 262.933067 141.643073 
L 273.385115 139.982416 
L 277.565934 139.681951 
L 281.746753 139.46153 
L 292.198801 138.376948 
L 296.37962 138.287189 
L 304.741259 138.516894 
L 311.012488 138.892916 
L 313.102897 139.116315 
L 315.193307 139.455332 
L 319.374126 140.348484 
L 331.916583 141.996072 
L 336.097403 142.392781 
L 342.368631 143.233678 
L 348.63986 144.105753 
L 361.182318 146.097616 
L 371.634366 148.439195 
L 377.905594 149.759589 
L 384.176823 150.980794 
L 394.628871 153.496874 
L 398.80969 154.497593 
L 405.080919 155.730496 
L 417.623377 157.840662 
L 421.804196 158.245565 
L 430.165834 159.318321 
L 432.256244 159.770854 
L 436.437063 160.491089 
L 446.889111 163.019127 
L 451.06993 163.836782 
L 469.883616 167.564251 
L 474.064436 168.532578 
L 482.426074 170.778303 
L 490.787712 173.12222 
L 492.878122 173.650205 
L 507.510989 178.31177 
L 511.691808 179.339651 
L 522.143856 181.853351 
L 524.234266 182.421104 
L 526.324675 183.131806 
L 532.595904 184.843826 
L 557.680819 194.012289 
L 572.313686 199.80389 
L 576.494505 201.734325 
L 593.217782 210.402561 
L 603.66983 216.109118 
L 607.850649 217.945055 
L 612.031469 219.694057 
L 618.302697 222.309466 
L 626.664336 225.591367 
L 630.845155 227.312167 
L 635.025974 229.207148 
L 639.206793 231.317734 
L 653.83966 238.903535 
L 660.110889 242.092083 
L 666.382118 245.519494 
L 670.562937 247.521786 
L 683.105395 252.729014 
L 689.376623 255.006381 
L 693.557443 256.636006 
L 699.828671 258.927895 
L 701.919081 259.496821 
L 710.280719 262.288979 
L 718.642358 265.441879 
L 727.003996 268.253812 
L 739.546454 272.99226 
L 745.817682 275.788116 
L 749.998501 277.577491 
L 756.26973 280.038582 
L 760.450549 281.800163 
L 768.812188 285.211353 
L 777.173826 288.681289 
L 787.625874 292.708494 
L 800.168332 297.352828 
L 804.349151 299.05741 
L 808.52997 300.520212 
L 812.710789 301.979937 
L 829.434066 308.245685 
L 835.705295 311.311872 
L 839.886114 313.360709 
L 848.247752 317.056369 
L 854.518981 319.731916 
L 860.79021 322.503493 
L 871.242258 327.541215 
L 875.423077 329.620853 
L 879.603896 331.338488 
L 881.694306 331.999539 
L 894.236763 335.303427 
L 904.688811 337.983934 
L 910.96004 339.705199 
L 915.140859 340.913402 
L 925.592907 343.539653 
L 933.954545 345.217744 
L 933.954545 345.217744 
" style="fill:none;stroke:#de4ce2;stroke-linecap:square;stroke-width:3;"/>
   </g>
   <g id="patch_3">
    <path d="M 135 640.8 
L 135 86.4 
" style="fill:none;stroke:#000000;stroke-linecap:square;stroke-linejoin:miter;stroke-width:0.8;"/>
   </g>
   <g id="patch_4">
    <path d="M 972 640.8 
L 972 86.4 
" style="fill:none;stroke:#000000;stroke-linecap:square;stroke-linejoin:miter;stroke-width:0.8;"/>
   </g>
   <g id="patch_5">
    <path d="M 135 640.8 
L 972 640.8 
" style="fill:none;stroke:#000000;stroke-linecap:square;stroke-linejoin:miter;stroke-width:0.8;"/>
   </g>
   <g id="patch_6">
    <path d="M 135 86.4 
L 972 86.4 
" style="fill:none;stroke:#000000;stroke-linecap:square;stroke-linejoin:miter;stroke-width:0.8;"/>
   </g>
   <g id="legend_1">
    <g id="patch_7">
     <path d="M 976.858 204.159872 
L 1032.1698 204.159872 
Q 1033.5578 204.159872 1033.5578 202.771872 
L 1033.5578 91.258 
Q 1033.5578 89.87 1032.1698 89.87 
L 976.858 89.87 
Q 975.47 89.87 975.47 91.258 
L 975.47 202.771872 
Q 975.47 204.159872 976.858 204.159872 
z
" style="fill:#ffffff;opacity:0.8;stroke:#cccccc;stroke-linejoin:miter;"/>
    </g>
    <g id="line2d_12">
     <path d="M 978.246 95.490316 
L 992.126 95.490316 
" style="fill:none;stroke:#294ad9;stroke-linecap:square;stroke-width:3;"/>
    </g>
    <g id="line2d_13"/>
    <g id="text_16">
     <!-- $p =$ -1.2 -->
     <g transform="translate(997.678 97.919316)scale(0.0694 -0.0694)">
      <defs>
       <path d="M 49.609375 33.6875 
Q 49.609375 40.875 46.484375 44.671875 
Q 43.359375 48.484375 37.5 48.484375 
Q 33.5 48.484375 29.859375 46.4375 
Q 26.21875 44.390625 23.390625 40.484375 
Q 20.609375 36.625 18.9375 31.15625 
Q 17.28125 25.6875 17.28125 20.3125 
Q 17.28125 13.484375 20.40625 9.796875 
Q 23.53125 6.109375 29.296875 6.109375 
Q 33.546875 6.109375 37.1875 8.109375 
Q 40.828125 10.109375 43.40625 13.921875 
Q 46.1875 17.921875 47.890625 23.34375 
Q 49.609375 28.765625 49.609375 33.6875 
z
M 21.78125 46.390625 
Q 25.390625 51.125 30.296875 53.5625 
Q 35.203125 56 41.21875 56 
Q 49.609375 56 54.25 50.5 
Q 58.890625 45.015625 58.890625 35.109375 
Q 58.890625 27 56 19.65625 
Q 53.125 12.3125 47.703125 6.5 
Q 44.09375 2.640625 39.546875 0.609375 
Q 35.015625 -1.421875 29.984375 -1.421875 
Q 24.171875 -1.421875 20.21875 1 
Q 16.265625 3.421875 14.3125 8.203125 
L 8.6875 -20.796875 
L -0.296875 -20.796875 
L 14.40625 54.6875 
L 23.390625 54.6875 
z
" id="DejaVuSans-Oblique-112"/>
       <path d="M 10.59375 45.40625 
L 73.1875 45.40625 
L 73.1875 37.203125 
L 10.59375 37.203125 
z
M 10.59375 25.484375 
L 73.1875 25.484375 
L 73.1875 17.1875 
L 10.59375 17.1875 
z
" id="DejaVuSans-61"/>
       <path id="DejaVuSans-32"/>
       <path d="M 4.890625 31.390625 
L 31.203125 31.390625 
L 31.203125 23.390625 
L 4.890625 23.390625 
z
" id="DejaVuSans-45"/>
      </defs>
      <use transform="translate(0 0.78125)" xlink:href="#DejaVuSans-Oblique-112"/>
      <use transform="translate(82.958984 0.78125)" xlink:href="#DejaVuSans-61"/>
      <use transform="translate(186.230469 0.78125)" xlink:href="#DejaVuSans-32"/>
      <use transform="translate(218.017578 0.78125)" xlink:href="#DejaVuSans-45"/>
      <use transform="translate(254.101562 0.78125)" xlink:href="#DejaVuSans-49"/>
      <use transform="translate(317.724609 0.78125)" xlink:href="#DejaVuSans-46"/>
      <use transform="translate(344.011719 0.78125)" xlink:href="#DejaVuSans-50"/>
     </g>
    </g>
    <g id="line2d_14">
     <path d="M 978.246 105.691031 
L 992.126 105.691031 
" style="fill:none;stroke:#0d98df;stroke-linecap:square;stroke-width:3;"/>
    </g>
    <g id="line2d_15"/>
    <g id="text_17">
     <!-- $p =$ -1.1 -->
     <g transform="translate(997.678 108.120031)scale(0.0694 -0.0694)">
      <use transform="translate(0 0.09375)" xlink:href="#DejaVuSans-Oblique-112"/>
      <use transform="translate(82.958984 0.09375)" xlink:href="#DejaVuSans-61"/>
      <use transform="translate(186.230469 0.09375)" xlink:href="#DejaVuSans-32"/>
      <use transform="translate(218.017578 0.09375)" xlink:href="#DejaVuSans-45"/>
      <use transform="translate(254.101562 0.09375)" xlink:href="#DejaVuSans-49"/>
      <use transform="translate(317.724609 0.09375)" xlink:href="#DejaVuSans-46"/>
      <use transform="translate(349.511719 0.09375)" xlink:href="#DejaVuSans-49"/>
     </g>
    </g>
    <g id="line2d_16">
     <path d="M 978.246 115.891747 
L 992.126 115.891747 
" style="fill:none;stroke:#11e4c6;stroke-linecap:square;stroke-width:3;"/>
    </g>
    <g id="line2d_17"/>
    <g id="text_18">
     <!-- $p =$ -1.0 -->
     <g transform="translate(997.678 118.320747)scale(0.0694 -0.0694)">
      <use transform="translate(0 0.78125)" xlink:href="#DejaVuSans-Oblique-112"/>
      <use transform="translate(82.958984 0.78125)" xlink:href="#DejaVuSans-61"/>
      <use transform="translate(186.230469 0.78125)" xlink:href="#DejaVuSans-32"/>
      <use transform="translate(218.017578 0.78125)" xlink:href="#DejaVuSans-45"/>
      <use transform="translate(254.101562 0.78125)" xlink:href="#DejaVuSans-49"/>
      <use transform="translate(317.724609 0.78125)" xlink:href="#DejaVuSans-46"/>
      <use transform="translate(349.511719 0.78125)" xlink:href="#DejaVuSans-48"/>
     </g>
    </g>
    <g id="line2d_18">
     <path d="M 978.246 126.092462 
L 992.126 126.092462 
" style="fill:none;stroke:#0ce359;stroke-linecap:square;stroke-width:3;"/>
    </g>
    <g id="line2d_19"/>
    <g id="text_19">
     <!-- $p =$ -0.95 -->
     <g transform="translate(997.678 128.521462)scale(0.0694 -0.0694)">
      <use transform="translate(0 0.78125)" xlink:href="#DejaVuSans-Oblique-112"/>
      <use transform="translate(82.958984 0.78125)" xlink:href="#DejaVuSans-61"/>
      <use transform="translate(186.230469 0.78125)" xlink:href="#DejaVuSans-32"/>
      <use transform="translate(218.017578 0.78125)" xlink:href="#DejaVuSans-45"/>
      <use transform="translate(254.101562 0.78125)" xlink:href="#DejaVuSans-48"/>
      <use transform="translate(317.724609 0.78125)" xlink:href="#DejaVuSans-46"/>
      <use transform="translate(349.511719 0.78125)" xlink:href="#DejaVuSans-57"/>
      <use transform="translate(413.134766 0.78125)" xlink:href="#DejaVuSans-53"/>
     </g>
    </g>
    <g id="line2d_20">
     <path d="M 978.246 136.293178 
L 992.126 136.293178 
" style="fill:none;stroke:#36bc14;stroke-linecap:square;stroke-width:3;"/>
    </g>
    <g id="line2d_21"/>
    <g id="text_20">
     <!-- $p =$ -0.85 -->
     <g transform="translate(997.678 138.722178)scale(0.0694 -0.0694)">
      <use transform="translate(0 0.78125)" xlink:href="#DejaVuSans-Oblique-112"/>
      <use transform="translate(82.958984 0.78125)" xlink:href="#DejaVuSans-61"/>
      <use transform="translate(186.230469 0.78125)" xlink:href="#DejaVuSans-32"/>
      <use transform="translate(218.017578 0.78125)" xlink:href="#DejaVuSans-45"/>
      <use transform="translate(254.101562 0.78125)" xlink:href="#DejaVuSans-48"/>
      <use transform="translate(317.724609 0.78125)" xlink:href="#DejaVuSans-46"/>
      <use transform="translate(346.886719 0.78125)" xlink:href="#DejaVuSans-56"/>
      <use transform="translate(410.509766 0.78125)" xlink:href="#DejaVuSans-53"/>
     </g>
    </g>
    <g id="line2d_22">
     <path d="M 978.246 146.493894 
L 992.126 146.493894 
" style="fill:none;stroke:#abd800;stroke-linecap:square;stroke-width:3;"/>
    </g>
    <g id="line2d_23"/>
    <g id="text_21">
     <!-- $p =$ -0.8 -->
     <g transform="translate(997.678 148.922894)scale(0.0694 -0.0694)">
      <use transform="translate(0 0.78125)" xlink:href="#DejaVuSans-Oblique-112"/>
      <use transform="translate(82.958984 0.78125)" xlink:href="#DejaVuSans-61"/>
      <use transform="translate(186.230469 0.78125)" xlink:href="#DejaVuSans-32"/>
      <use transform="translate(218.017578 0.78125)" xlink:href="#DejaVuSans-45"/>
      <use transform="translate(254.101562 0.78125)" xlink:href="#DejaVuSans-48"/>
      <use transform="translate(317.724609 0.78125)" xlink:href="#DejaVuSans-46"/>
      <use transform="translate(346.886719 0.78125)" xlink:href="#DejaVuSans-56"/>
     </g>
    </g>
    <g id="line2d_24">
     <path d="M 978.246 156.694609 
L 992.126 156.694609 
" style="fill:none;stroke:#f3e80b;stroke-linecap:square;stroke-width:3;"/>
    </g>
    <g id="line2d_25"/>
    <g id="text_22">
     <!-- $p =$ -0.75 -->
     <g transform="translate(997.678 159.123609)scale(0.0694 -0.0694)">
      <use transform="translate(0 0.78125)" xlink:href="#DejaVuSans-Oblique-112"/>
      <use transform="translate(82.958984 0.78125)" xlink:href="#DejaVuSans-61"/>
      <use transform="translate(186.230469 0.78125)" xlink:href="#DejaVuSans-32"/>
      <use transform="translate(218.017578 0.78125)" xlink:href="#DejaVuSans-45"/>
      <use transform="translate(254.101562 0.78125)" xlink:href="#DejaVuSans-48"/>
      <use transform="translate(317.724609 0.78125)" xlink:href="#DejaVuSans-46"/>
      <use transform="translate(341.761719 0.78125)" xlink:href="#DejaVuSans-55"/>
      <use transform="translate(405.384766 0.78125)" xlink:href="#DejaVuSans-53"/>
     </g>
    </g>
    <g id="line2d_26">
     <path d="M 978.246 166.895325 
L 992.126 166.895325 
" style="fill:none;stroke:#e89000;stroke-linecap:square;stroke-width:3;"/>
    </g>
    <g id="line2d_27"/>
    <g id="text_23">
     <!-- $p =$ -0.65 -->
     <g transform="translate(997.678 169.324325)scale(0.0694 -0.0694)">
      <use transform="translate(0 0.78125)" xlink:href="#DejaVuSans-Oblique-112"/>
      <use transform="translate(82.958984 0.78125)" xlink:href="#DejaVuSans-61"/>
      <use transform="translate(186.230469 0.78125)" xlink:href="#DejaVuSans-32"/>
      <use transform="translate(218.017578 0.78125)" xlink:href="#DejaVuSans-45"/>
      <use transform="translate(254.101562 0.78125)" xlink:href="#DejaVuSans-48"/>
      <use transform="translate(317.724609 0.78125)" xlink:href="#DejaVuSans-46"/>
      <use transform="translate(349.511719 0.78125)" xlink:href="#DejaVuSans-54"/>
      <use transform="translate(413.134766 0.78125)" xlink:href="#DejaVuSans-53"/>
     </g>
    </g>
    <g id="line2d_28">
     <path d="M 978.246 177.096041 
L 992.126 177.096041 
" style="fill:none;stroke:#e4602b;stroke-linecap:square;stroke-width:3;"/>
    </g>
    <g id="line2d_29"/>
    <g id="text_24">
     <!-- $p =$ -0.6 -->
     <g transform="translate(997.678 179.525041)scale(0.0694 -0.0694)">
      <use transform="translate(0 0.78125)" xlink:href="#DejaVuSans-Oblique-112"/>
      <use transform="translate(82.958984 0.78125)" xlink:href="#DejaVuSans-61"/>
      <use transform="translate(186.230469 0.78125)" xlink:href="#DejaVuSans-32"/>
      <use transform="translate(218.017578 0.78125)" xlink:href="#DejaVuSans-45"/>
      <use transform="translate(254.101562 0.78125)" xlink:href="#DejaVuSans-48"/>
      <use transform="translate(317.724609 0.78125)" xlink:href="#DejaVuSans-46"/>
      <use transform="translate(349.511719 0.78125)" xlink:href="#DejaVuSans-54"/>
     </g>
    </g>
    <g id="line2d_30">
     <path d="M 978.246 187.296756 
L 992.126 187.296756 
" style="fill:none;stroke:#d73333;stroke-linecap:square;stroke-width:3;"/>
    </g>
    <g id="line2d_31"/>
    <g id="text_25">
     <!-- $p =$ -0.5 -->
     <g transform="translate(997.678 189.725756)scale(0.0694 -0.0694)">
      <use transform="translate(0 0.78125)" xlink:href="#DejaVuSans-Oblique-112"/>
      <use transform="translate(82.958984 0.78125)" xlink:href="#DejaVuSans-61"/>
      <use transform="translate(186.230469 0.78125)" xlink:href="#DejaVuSans-32"/>
      <use transform="translate(218.017578 0.78125)" xlink:href="#DejaVuSans-45"/>
      <use transform="translate(254.101562 0.78125)" xlink:href="#DejaVuSans-48"/>
      <use transform="translate(317.724609 0.78125)" xlink:href="#DejaVuSans-46"/>
      <use transform="translate(349.511719 0.78125)" xlink:href="#DejaVuSans-53"/>
     </g>
    </g>
    <g id="line2d_32">
     <path d="M 978.246 197.497472 
L 992.126 197.497472 
" style="fill:none;stroke:#de4ce2;stroke-linecap:square;stroke-width:3;"/>
    </g>
    <g id="line2d_33"/>
    <g id="text_26">
     <!-- $p =$ -0.4 -->
     <g transform="translate(997.678 199.926472)scale(0.0694 -0.0694)">
      <use transform="translate(0 0.78125)" xlink:href="#DejaVuSans-Oblique-112"/>
      <use transform="translate(82.958984 0.78125)" xlink:href="#DejaVuSans-61"/>
      <use transform="translate(186.230469 0.78125)" xlink:href="#DejaVuSans-32"/>
      <use transform="translate(218.017578 0.78125)" xlink:href="#DejaVuSans-45"/>
      <use transform="translate(254.101562 0.78125)" xlink:href="#DejaVuSans-48"/>
      <use transform="translate(317.724609 0.78125)" xlink:href="#DejaVuSans-46"/>
      <use transform="translate(349.511719 0.78125)" xlink:href="#DejaVuSans-52"/>
     </g>
    </g>
   </g>
  </g>
 </g>
 <defs>
  <clipPath id="p420396cf2e">
   <rect height="554.4" width="837" x="135" y="86.4"/>
  </clipPath>
 </defs>
</svg>
